SplineFontDB: 3.0
FontName: Nunito-SemiBold
FullName: Nunito SemiBold
FamilyName: Nunito
Weight: SemiBold
Copyright: Digitized data Copyright (c) 2011-2013, vernon adams.
Version: 2.0
ItalicAngle: 0
UnderlinePosition: 0
UnderlineWidth: 0
Ascent: 1638
Descent: 410
UFOAscent: 2030
UFODescent: -675
LayerCount: 2
Layer: 0 0 "Back"  1
Layer: 1 0 "Fore"  0
FSType: 0
OS2Version: 0
OS2_WeightWidthSlopeOnly: 0
OS2_UseTypoMetrics: 1
CreationTime: 1393441876
ModificationTime: 1393442157
PfmFamily: 17
TTFWeight: 600
TTFWidth: 5
LineGap: 0
VLineGap: 0
OS2TypoAscent: 1999
OS2TypoAOffset: 0
OS2TypoDescent: 572
OS2TypoDOffset: 0
OS2TypoLinegap: 0
OS2WinAscent: 1999
OS2WinAOffset: 0
OS2WinDescent: -572
OS2WinDOffset: 0
HheadAscent: 1999
HheadAOffset: 0
HheadDescent: -572
HheadDOffset: 0
OS2Vendor: 'NeWT'
Lookup: 258 0 0 "kernHorizontalKerninglookup0"  {"kernHorizontalKerninglookup0 subtable"  } ['kern' ('DFLT' <'dflt' > ) ]
Lookup: 258 0 0 "kernHorizontalKerninginLatinloo"  {"kernHorizontalKerninginLatinloo subtable"  } ['kern' ('latn' <'dflt' > ) ]
MarkAttachClasses: 1
DEI: 91125
LangName: 1033 "" "" "" "" "" "Version 2.0" "" "Nunito is a trademark of Vernon Adams and may be registered in certain jurisdictions." "newtypography" "Vernon Adams" "" "newtypography.co.uk" "newtypography.co.uk" "Copyright (c) 2013, vernon adams.+AAoACgAA-This Font Software is licensed under the SIL Open Font License, Version 1.1.+AAoA-This license is copied below, and is also available with a FAQ at:+AAoA-http://scripts.sil.org/OFL+AAoA" "http://scripts.sil.org/OFL" "" "" "" "Nunito-SemiBold" 
PickledData: "(dp1
S'com.typemytype.robofont.foreground.layerStrokeColor'
p2
(F0.5
I0
F0.5
F0.69999999999999996
tp3
sS'com.typemytype.robofont.guides'
p4
((dp5
S'angle'
p6
I0
sS'name'
p7
NsS'magnetic'
p8
I5
sS'isGlobal'
p9
I1
sS'y'
I1013
sS'x'
I587
s(dp10
g6
I0
sg7
Nsg8
I5
sg9
I1
sS'y'
I903
sS'x'
I595
s(dp11
g6
I0
sg7
Nsg8
I5
sg9
I1
sS'y'
I120
sS'x'
I780
s(dp12
g6
I0
sg7
Nsg8
I5
sg9
I1
sS'y'
S'-22'
p13
sS'x'
I907

StartChar: A
Encoding: 65 65 0
Width: 1453
VWidth: 0
GlyphClass: 2
Flags: W
PickledData: "(dp1
S'b'
(dp2
sS'anchors'
p3
(tsS'lib'
p4
(dp5
sS'unicodes'
p6
(tsS'y'
I1232
sS'width'
p7
I1445
sS'points'
p8
(dp9
sS'contours'
p10
(dp11
sS'components'
p12
(tsS'segmentType'
p13
S'line'
p14
sS'x'
I718
sS'com.typemytype.robofont.layerData'
p15
(dp16
S'b'
(dp17
S'name'
p18
S'A'
sg4
(dp19
sg6
(tsg7
I1414
sg10
((dp20
g8
((dp21
g13
S'line'
p22
sS'x'
I403
sS'smooth'
p23
I0
sS'y'
I502
s(dp24
g13
S'line'
p25
sS'x'
I703
sg23
I0
sS'y'
I1275
s(dp26
g13
S'line'
p27
sS'x'
I705
sg23
I0
sS'y'
I1275
s(dp28
g13
S'line'
p29
sS'x'
I1004
sg23
I0
sS'y'
I502
stp30
s(dp31
g8
((dp32
g13
S'curve'
p33
sS'x'
I150
sg23
I1
sS'y'
I0
s(dp34
S'y'
I0
sS'x'
I181
sg23
I0
s(dp35
S'y'
I15
sS'x'
I214
sg23
I0
s(dp36
g13
S'curve'
p37
sS'x'
I229
sg23
I1
sS'y'
I53
s(dp38
g13
S'line'
p39
sS'x'
I356
sg23
I0
sS'y'
I373
s(dp40
g13
S'line'
p41
sS'x'
I1051
sg23
I0
sS'y'
I373
s(dp42
g13
S'line'
p43
sS'x'
I1179
sg23
I1
sS'y'
I53
s(dp44
S'y'
I17
sS'x'
I1193
sg23
I0
s(dp45
S'y'
I0
sS'x'
I1228
sg23
I0
s(dp46
g13
S'curve'
p47
sS'x'
I1260
sg23
I1
sS'y'
I0
s(dp48
S'y'
I0
sS'x'
I1306
sg23
I0
s(dp49
S'y'
I31
sS'x'
I1354
sg23
I0
s(dp50
g13
S'curve'
p51
sS'x'
I1354
sg23
I1
sS'y'
I80
s(dp52
S'y'
I87
sS'x'
I1354
sg23
I0
s(dp53
S'y'
I97
sS'x'
I1352
sg23
I0
s(dp54
g13
S'curve'
p55
sS'x'
I1349
sg23
I0
sS'y'
I108
s(dp56
g13
S'line'
p57
sS'x'
I871
sg23
I1
sS'y'
I1288
s(dp58
S'y'
I1420
sS'x'
I817
sg23
I0
s(dp59
S'y'
I1430
sS'x'
I777
sg23
I0
s(dp60
g13
S'curve'
p61
sS'x'
I710
sg23
I1
sS'y'
I1430
s(dp62
S'y'
I1430
sS'x'
I644
sg23
I0
s(dp63
S'y'
I1413
sS'x'
I596
sg23
I0
s(dp64
g13
S'curve'
p65
sS'x'
I542
sg23
I1
sS'y'
I1280
s(dp66
g13
S'line'
p67
sS'x'
I66
sg23
I1
sS'y'
I108
s(dp68
S'y'
I97
sS'x'
I62
sg23
I0
s(dp69
S'y'
I87
sS'x'
I60
sg23
I0
s(dp70
g13
S'curve'
p71
sS'x'
I60
sg23
I1
sS'y'
I78
s(dp72
S'y'
I32
sS'x'
I60
sg23
I0
s(dp73
S'y'
I0
sS'x'
I106
sg23
I0
stp74
stp75
sg12
(tsg3
(tsssg18
S'A'
s."
AnchorPoint: "ogonek" 1266 19 basechar 0
AnchorPoint: "top" 726 1438 basechar 0
LayerCount: 2
Fore
SplineSet
991.459 517 m 257
 465.148 517 l 257
 728 1206 l 257
 991.459 517 l 257
1162 71 m 258
 1183.12 15.1944 1228.26 -7.91028 1273.41 -7.91028 c 256
 1335.35 -7.91028 1397.3 35.5562 1397.3 97.7273 c 256
 1397.3 110.44 1394.71 123.935 1389 138 c 258
 926 1297 l 258
 872 1430 806 1448 728 1448 c 256
 651 1448 584 1430 531 1297 c 258
 68 138 l 258
 62.2893 123.935 59.6989 110.44 59.6989 97.7273 c 256
 59.6989 35.5562 121.653 -7.91028 183.586 -7.91028 c 256
 228.741 -7.91028 273.884 15.1944 295 71 c 258
 398.004 341 l 257
 1058.76 341 l 257
 1162 71 l 258
EndSplineSet
EndChar

StartChar: AE
Encoding: 198 198 1
Width: 1973
VWidth: 0
GlyphClass: 2
Flags: W
PickledData: "(dp1
S'com.typemytype.robofont.layerData'
p2
(dp3
S'b'
(dp4
S'name'
p5
S'AE'
p6
sS'lib'
p7
(dp8
sS'unicodes'
p9
(tsS'width'
p10
I1976
sS'contours'
p11
(tsS'components'
p12
(tsS'anchors'
p13
(tsss."
AnchorPoint: "top" 1300 1441 basechar 0
LayerCount: 2
Fore
SplineSet
1260 0 m 258
 1846 0 l 257
 1906 2 1933 42 1933 86 c 256
 1933 135 1897 187 1831 187 c 258
 1363 187 l 257
 1290 642 l 257
 1796 642 l 258
 1856 642 1883 684 1883 728 c 256
 1883 777 1848 829 1782 829 c 258
 1265 829 l 257
 1199 1248 l 257
 1830 1248 l 258
 1890 1248 1917 1290 1917 1334 c 256
 1917 1383 1881 1436 1815 1436 c 258
 991 1435 l 258
 894 1435 821 1407 735 1240 c 257
 72 147 l 257
 61 126 55 106 55 89 c 256
 55 34 104 0 157 0 c 256
 203 0 250 24 277 79 c 257
 450 357 l 257
 1093 357 l 257
 1140 79 l 257
 1147 19 1204 0 1260 0 c 258
534 518 m 257
 960 1278 l 257
 963 1278 l 257
 1073 518 l 257
 534 518 l 257
EndSplineSet
EndChar

StartChar: B
Encoding: 66 66 13
Width: 1364
VWidth: 0
GlyphClass: 2
Flags: W
PickledData: "(dp1
S'b'
(dp2
sS'anchors'
p3
(tsS'lib'
p4
(dp5
sS'unicodes'
p6
(tsS'y'
I1260
sS'width'
p7
I1395
sS'points'
p8
(dp9
sS'contours'
p10
(dp11
sS'components'
p12
(tsS'segmentType'
p13
S'curve'
p14
sS'x'
I676
sS'com.typemytype.robofont.layerData'
p15
(dp16
S'b'
(dp17
S'name'
p18
S'B'
sg4
(dp19
sg6
(tsg7
I1292
sg10
((dp20
g8
((dp21
g13
S'curve'
p22
sS'x'
I266
sS'smooth'
p23
I1
sS'y'
I0
s(dp24
g13
S'line'
p25
sS'x'
I1035
sg23
I1
sS'y'
I0
s(dp26
S'y'
I0
sS'x'
I1084
sg23
I0
s(dp27
S'y'
I36
sS'x'
I1108
sg23
I0
s(dp28
g13
S'curve'
p29
sS'x'
I1108
sg23
I1
sS'y'
I73
s(dp30
S'y'
I109
sS'x'
I1108
sg23
I0
s(dp31
S'y'
I145
sS'x'
I1084
sg23
I0
s(dp32
g13
S'curve'
p33
sS'x'
I1035
sg23
I1
sS'y'
I145
s(dp34
g13
S'line'
p35
sS'x'
I353
sg23
I0
sS'y'
I145
s(dp36
g13
S'line'
p37
sS'x'
I353
sg23
I0
sS'y'
I662
s(dp38
g13
S'line'
p39
sS'x'
I975
sg23
I1
sS'y'
I662
s(dp40
S'y'
I662
sS'x'
I1024
sg23
I0
s(dp41
S'y'
I698
sS'x'
I1049
sg23
I0
s(dp42
g13
S'curve'
p43
sS'x'
I1049
sg23
I1
sS'y'
I734
s(dp44
S'y'
I770
sS'x'
I1049
sg23
I0
s(dp45
S'y'
I806
sS'x'
I1026
sg23
I0
s(dp46
g13
S'curve'
p47
sS'x'
I975
sg23
I1
sS'y'
I806
s(dp48
g13
S'line'
p49
sS'x'
I353
sg23
I0
sS'y'
I806
s(dp50
g13
S'line'
p51
sS'x'
I353
sg23
I0
sS'y'
I1281
s(dp52
g13
S'line'
p53
sS'x'
I1007
sg23
I1
sS'y'
I1281
s(dp54
S'y'
I1281
sS'x'
I1056
sg23
I0
s(dp55
S'y'
I1317
sS'x'
I1080
sg23
I0
s(dp56
g13
S'curve'
p57
sS'x'
I1080
sg23
I1
sS'y'
I1354
s(dp58
S'y'
I1390
sS'x'
I1080
sg23
I0
s(dp59
S'y'
I1426
sS'x'
I1056
sg23
I0
s(dp60
g13
S'curve'
p61
sS'x'
I1007
sg23
I1
sS'y'
I1426
s(dp62
g13
S'line'
p63
sS'x'
I261
sg23
I1
sS'y'
I1426
s(dp64
S'y'
I1426
sS'x'
I213
sg23
I0
s(dp65
S'y'
I1383
sS'x'
I178
sg23
I0
s(dp66
g13
S'curve'
p67
sS'x'
I178
sg23
I1
sS'y'
I1340
s(dp68
g13
S'line'
p69
sS'x'
I178
sg23
I1
sS'y'
I86
s(dp70
S'y'
I41
sS'x'
I178
sg23
I0
s(dp71
S'y'
I0
sS'x'
I222
sg23
I0
stp72
stp73
sg12
(tsg3
(tsssg18
S'B'
s."
AnchorPoint: "top" 663 1438 basechar 0
LayerCount: 2
Fore
SplineSet
295 0 m 258
 758 0 l 258
 1100 0 1272 191 1272 384 c 256
 1272 603 1141 718 938 745 c 257
 938 749 l 257
 1124 781 1210 906 1210 1082 c 256
 1210 1293 1061 1436 721 1436 c 258
 295 1436 l 258
 228 1436 174 1383 174 1316 c 258
 174 119 l 258
 174 53 228 0 295 0 c 258
422 192 m 257
 422 641 l 257
 642 641 l 258
 883 641 1014 613 1014 413 c 256
 1014 225 910 192 715 192 c 258
 422 192 l 257
422 831 m 257
 422 1245 l 257
 701 1245 l 258
 860 1245 970 1224 970 1059 c 256
 970 892 888 831 675 831 c 258
 422 831 l 257
EndSplineSet
EndChar

StartChar: C
Encoding: 67 67 14
Width: 1354
VWidth: 0
GlyphClass: 2
Flags: W
PickledData: "(dp1
S'b'
(dp2
sS'anchors'
p3
(tsS'lib'
p4
(dp5
sS'unicodes'
p6
(tsS'width'
p7
I1354
sS'contours'
p8
(tsS'components'
p9
(tsS'com.typemytype.robofont.layerData'
p10
(dp11
S'b'
(dp12
S'name'
p13
S'C'
sg4
(dp14
sg6
(tsg7
F1353.8900000000001
sg8
(tsg9
(tsg3
(tsssg13
S'C'
s."
AnchorPoint: "bot" 777 2 basechar 0
AnchorPoint: "top" 784 1438 basechar 0
LayerCount: 2
Fore
SplineSet
786 -22 m 256
 982 -22 1102 26 1200 88 c 256
 1236.93 111.41 1252.01 144.17 1252.01 175.668 c 256
 1252.01 226.327 1213.01 273.724 1163.2 273.724 c 256
 1150.05 273.724 1136.14 270.42 1122 263 c 256
 1043 221 956 176 830 176 c 256
 528 176 376 391 376 724 c 256
 376 1055 527 1274 820 1274 c 256
 972 1274 1054 1220 1104 1199 c 256
 1114.82 1194.58 1125.68 1192.57 1136.26 1192.57 c 256
 1189.07 1192.57 1234.97 1242.74 1234.97 1294.88 c 256
 1234.97 1326.9 1217.66 1359.66 1174 1382 c 256
 1066 1439 946 1472 810 1472 c 256
 400 1472 114 1171 114 719 c 256
 114 285 384 -22 786 -22 c 256
EndSplineSet
EndChar

StartChar: D
Encoding: 68 68 20
Width: 1528
VWidth: 0
GlyphClass: 2
Flags: W
PickledData: "(dp1
S'b'
(dp2
sS'anchors'
p3
(tsS'lib'
p4
(dp5
sS'unicodes'
p6
(tsS'width'
p7
I1535
sS'contours'
p8
(tsS'components'
p9
(tsS'com.typemytype.robofont.layerData'
p10
(dp11
S'b'
(dp12
S'name'
p13
S'D'
sg4
(dp14
sg6
(tsg7
I1499
sg8
((dp15
S'points'
p16
((dp17
S'segmentType'
p18
S'curve'
p19
sS'x'
I266
sS'smooth'
p20
I1
sS'y'
I0
s(dp21
g18
S'line'
p22
sS'x'
I1035
sg20
I1
sS'y'
I0
s(dp23
S'y'
I0
sS'x'
I1084
sg20
I0
s(dp24
S'y'
I34
sS'x'
I1108
sg20
I0
s(dp25
g18
S'curve'
p26
sS'x'
I1108
sg20
I1
sS'y'
I71
s(dp27
S'y'
I107
sS'x'
I1108
sg20
I0
s(dp28
S'y'
I141
sS'x'
I1084
sg20
I0
s(dp29
g18
S'curve'
p30
sS'x'
I1035
sg20
I1
sS'y'
I141
s(dp31
g18
S'line'
p32
sS'x'
I356
sg20
I0
sS'y'
I141
s(dp33
g18
S'line'
p34
sS'x'
I356
sg20
I0
sS'y'
I665
s(dp35
g18
S'line'
p36
sS'x'
I975
sg20
I1
sS'y'
I665
s(dp37
S'y'
I665
sS'x'
I1024
sg20
I0
s(dp38
S'y'
I698
sS'x'
I1049
sg20
I0
s(dp39
g18
S'curve'
p40
sS'x'
I1049
sg20
I1
sS'y'
I734
s(dp41
S'y'
I770
sS'x'
I1049
sg20
I0
s(dp42
S'y'
I803
sS'x'
I1026
sg20
I0
s(dp43
g18
S'curve'
p44
sS'x'
I975
sg20
I1
sS'y'
I803
s(dp45
g18
S'line'
p46
sS'x'
I356
sg20
I0
sS'y'
I803
s(dp47
g18
S'line'
p48
sS'x'
I356
sg20
I0
sS'y'
I1285
s(dp49
g18
S'line'
p50
sS'x'
I1007
sg20
I1
sS'y'
I1285
s(dp51
S'y'
I1285
sS'x'
I1056
sg20
I0
s(dp52
S'y'
I1319
sS'x'
I1080
sg20
I0
s(dp53
g18
S'curve'
p54
sS'x'
I1080
sg20
I1
sS'y'
I1356
s(dp55
S'y'
I1392
sS'x'
I1080
sg20
I0
s(dp56
S'y'
I1426
sS'x'
I1056
sg20
I0
s(dp57
g18
S'curve'
p58
sS'x'
I1007
sg20
I1
sS'y'
I1426
s(dp59
g18
S'line'
p60
sS'x'
I261
sg20
I1
sS'y'
I1426
s(dp61
S'y'
I1426
sS'x'
I213
sg20
I0
s(dp62
S'y'
I1383
sS'x'
I178
sg20
I0
s(dp63
g18
S'curve'
p64
sS'x'
I178
sg20
I1
sS'y'
I1340
s(dp65
g18
S'line'
p66
sS'x'
I178
sg20
I1
sS'y'
I86
s(dp67
S'y'
I41
sS'x'
I178
sg20
I0
s(dp68
S'y'
I0
sS'x'
I222
sg20
I0
stp69
stp70
sg9
(tsg3
(tsssg13
S'D'
s."
AnchorPoint: "mid" 303 747 basechar 0
AnchorPoint: "top" 752 1438 basechar 0
LayerCount: 2
Fore
SplineSet
298 1 m 258
 660 1 l 258
 1137 1 1417 251 1417 713 c 256
 1417 1178 1155 1436 642 1436 c 258
 298 1436 l 258
 230 1436 174 1381 174 1314 c 258
 174 122 l 258
 174 55 230 1 298 1 c 258
422 198 m 257
 422 1239 l 257
 645 1239 l 258
 994 1239 1160 1101 1160 718 c 256
 1160 368 1042 198 675 198 c 258
 422 198 l 257
EndSplineSet
EndChar

StartChar: Dcroat
Encoding: 272 272 22
Width: 1517
VWidth: 0
GlyphClass: 2
Flags: W
LayerCount: 2
Fore
SplineSet
81 649 m 258
 552 649 l 258
 612 649 650 680 650 728 c 256
 650 778 612 809 552 809 c 258
 90 809 l 258
 30 809 -8 778 -8 728 c 256
 -8 680 26 649 81 649 c 258
EndSplineSet
Refer: 20 68 N 1 0 0 1 0 0 2
EndChar

StartChar: uni0394
Encoding: 916 916 23
Width: 1279
VWidth: 0
GlyphClass: 2
Flags: W
LayerCount: 2
Fore
SplineSet
16 0 m 257
 1264 0 l 257
 761 1377 l 257
 738.283 1428.36 687.52 1453.14 637.615 1453.14 c 256
 586.467 1453.14 536.222 1427.11 518 1377 c 258
 16 0 l 257
258 128 m 257
 636 1223 l 257
 1022 128 l 257
 258 128 l 257
EndSplineSet
EndChar

StartChar: E
Encoding: 69 69 24
Width: 1253
VWidth: 0
GlyphClass: 2
Flags: W
PickledData: "(dp1
S'b'
(dp2
sS'anchors'
p3
(tsS'lib'
p4
(dp5
sS'unicodes'
p6
(tsS'width'
p7
I1258
sS'contours'
p8
(tsS'components'
p9
(tsS'com.typemytype.robofont.layerData'
p10
(dp11
S'b'
(dp12
S'name'
p13
S'E'
sg4
(dp14
sg6
(tsg7
I1234
sg8
(tsg9
(tsg3
(tsssg13
S'E'
s."
AnchorPoint: "bot" 677 1 basechar 0
AnchorPoint: "ogonek" 831 9 basechar 0
AnchorPoint: "top" 662 1438 basechar 0
LayerCount: 2
Fore
SplineSet
296 0 m 258
 1047 0 l 258
 1110 0 1141 51 1141 97 c 256
 1141 145 1110 197 1047 197 c 258
 422 197 l 257
 422 639 l 257
 987 639 l 258
 1050 639 1082 689 1082 736 c 256
 1082 783 1052 832 987 832 c 258
 422 832 l 257
 422 1238 l 257
 1024 1238 l 258
 1087 1238 1118 1290 1118 1337 c 256
 1118 1384 1087 1436 1024 1436 c 258
 292 1436 l 258
 225 1436 174 1378 174 1315 c 258
 174 120 l 258
 174 56 233 0 296 0 c 258
EndSplineSet
EndChar

StartChar: Eng
Encoding: 330 330 33
Width: 1545
VWidth: 0
GlyphClass: 2
Flags: W
PickledData: "(dp1
S'com.typemytype.robofont.layerData'
p2
(dp3
S'b'
(dp4
S'name'
p5
S'Eng'
p6
sS'lib'
p7
(dp8
sS'unicodes'
p9
(tsS'width'
p10
I1495
sS'contours'
p11
(tsS'components'
p12
(tsS'anchors'
p13
(tsss."
LayerCount: 2
Fore
SplineSet
635 -427 m 256
 750.904 -454.847 855.227 -470.61 946.485 -470.61 c 256
 1218.99 -470.61 1375 -330.058 1375 49 c 258
 1375 1328 l 258
 1375 1400 1318 1436 1262 1436 c 256
 1206 1436 1148 1399 1148 1328 c 258
 1148 387 l 257
 458 1357 l 258
 420 1411 354 1435 305 1435 c 256
 232 1435 170 1380 170 1284 c 258
 170 106 l 258
 170 35 227 0 283 0 c 256
 339 0 398 36 398 106 c 258
 398 1057 l 257
 1154 22.3924 l 257
 1154 -7 l 258
 1154 -215.475 1087.58 -299.595 924.734 -299.595 c 256
 857.147 -299.595 772.951 -285.104 670 -259 c 256
 659.052 -256.197 648.641 -254.906 638.854 -254.906 c 256
 583.805 -254.906 548.509 -295.767 548.509 -338.391 c 256
 548.509 -374.71 574.134 -412.308 635 -427 c 256
EndSplineSet
EndChar

StartChar: Euro
Encoding: 8364 8364 36
Width: 1422
VWidth: 0
GlyphClass: 2
Flags: HW
LayerCount: 2
Fore
SplineSet
851 -22 m 0
 1047 -22 1167 26 1265 88 c 0
 1301.9296875 111.41015625 1317.00976562 144.169921875 1317.00976562 175.66796875 c 0
 1317.00976562 226.327148438 1278.00976562 273.723632812 1228.20019531 273.723632812 c 0
 1215.04980469 273.723632812 1201.13964844 270.419921875 1187 263 c 0
 1108 221 1021 176 895 176 c 0
 667.33416553 176 524.914151723 298.185676284 468.596804534 501 c 1
 963 501 l 2
 1000.87 501 1019.39 530.512 1019.39 560.506 c 0
 1019.39 591.496 999.621 623 961 623 c 2
 446.037569813 623 l 1
 442.679964566 655.287344672 441 688.991580827 441 724 c 0
 441 740.275012356 441.365059466 756.279252128 442.094108548 772 c 1
 963 772 l 2
 1000.87 772 1019.39 801.512 1019.39 831.506 c 0
 1019.39 862.496 999.621 894 961 894 c 2
 456.151664882 894 l 1
 501.099331459 1127.8986374 645.683470548 1274 885 1274 c 0
 1037 1274 1119 1220 1169 1199 c 0
 1179.8203125 1194.58007812 1190.6796875 1192.5703125 1201.25976562 1192.5703125 c 0
 1254.0703125 1192.5703125 1299.96972656 1242.74023438 1299.96972656 1294.87988281 c 0
 1299.96972656 1326.90039062 1282.66015625 1359.66015625 1239 1382 c 0
 1131 1439 1011 1472 875 1472 c 0
 520.539056901 1472 258.759121909 1247.0243271 194.341375226 894 c 1
 67 894 l 2
 32.1331 894 14.119 862.848 14.119 832.027 c 0
 14.119 801.855 31.3828 772 67 772 c 2
 180.336546467 772 l 1
 179.448873098 754.576543567 179 736.906768003 179 719 c 0
 179 686.251087878 180.537368792 654.225308485 183.552813771 623 c 1
 67 623 l 2
 32.1331 623 14.119 591.848 14.119 561.027 c 0
 14.119 530.855 31.3828 501 67 501 c 2
 203.725761536 501 l 1
 278.960594727 185.728925546 520.321961578 -22 851 -22 c 0
EndSplineSet
EndChar

StartChar: F
Encoding: 70 70 37
Width: 1168
VWidth: 0
GlyphClass: 2
Flags: W
PickledData: "(dp1
S'b'
(dp2
sS'anchors'
p3
(tsS'lib'
p4
(dp5
sS'unicodes'
p6
(tsS'width'
p7
I1175
sS'contours'
p8
(tsS'components'
p9
(tsS'com.typemytype.robofont.layerData'
p10
(dp11
S'b'
(dp12
S'name'
p13
S'F'
sg4
(dp14
sg6
(tsg7
I1142
sg8
((dp15
S'points'
p16
((dp17
S'segmentType'
p18
S'curve'
p19
sS'x'
I266
sS'smooth'
p20
I1
sS'y'
I0
s(dp21
g18
S'line'
p22
sS'x'
I1035
sg20
I1
sS'y'
I0
s(dp23
S'y'
I0
sS'x'
I1084
sg20
I0
s(dp24
S'y'
I34
sS'x'
I1108
sg20
I0
s(dp25
g18
S'curve'
p26
sS'x'
I1108
sg20
I1
sS'y'
I71
s(dp27
S'y'
I107
sS'x'
I1108
sg20
I0
s(dp28
S'y'
I141
sS'x'
I1084
sg20
I0
s(dp29
g18
S'curve'
p30
sS'x'
I1035
sg20
I1
sS'y'
I141
s(dp31
g18
S'line'
p32
sS'x'
I353
sg20
I0
sS'y'
I141
s(dp33
g18
S'line'
p34
sS'x'
I353
sg20
I0
sS'y'
I665
s(dp35
g18
S'line'
p36
sS'x'
I975
sg20
I1
sS'y'
I665
s(dp37
S'y'
I665
sS'x'
I1024
sg20
I0
s(dp38
S'y'
I698
sS'x'
I1049
sg20
I0
s(dp39
g18
S'curve'
p40
sS'x'
I1049
sg20
I1
sS'y'
I734
s(dp41
S'y'
I770
sS'x'
I1049
sg20
I0
s(dp42
S'y'
I803
sS'x'
I1026
sg20
I0
s(dp43
g18
S'curve'
p44
sS'x'
I975
sg20
I1
sS'y'
I803
s(dp45
g18
S'line'
p46
sS'x'
I353
sg20
I0
sS'y'
I803
s(dp47
g18
S'line'
p48
sS'x'
I353
sg20
I0
sS'y'
I1285
s(dp49
g18
S'line'
p50
sS'x'
I1007
sg20
I1
sS'y'
I1285
s(dp51
S'y'
I1285
sS'x'
I1056
sg20
I0
s(dp52
S'y'
I1319
sS'x'
I1080
sg20
I0
s(dp53
g18
S'curve'
p54
sS'x'
I1080
sg20
I1
sS'y'
I1356
s(dp55
S'y'
I1392
sS'x'
I1080
sg20
I0
s(dp56
S'y'
I1426
sS'x'
I1056
sg20
I0
s(dp57
g18
S'curve'
p58
sS'x'
I1007
sg20
I1
sS'y'
I1426
s(dp59
g18
S'line'
p60
sS'x'
I261
sg20
I1
sS'y'
I1426
s(dp61
S'y'
I1426
sS'x'
I213
sg20
I0
s(dp62
S'y'
I1383
sS'x'
I178
sg20
I0
s(dp63
g18
S'curve'
p64
sS'x'
I178
sg20
I1
sS'y'
I1340
s(dp65
g18
S'line'
p66
sS'x'
I178
sg20
I1
sS'y'
I86
s(dp67
S'y'
I41
sS'x'
I178
sg20
I0
s(dp68
S'y'
I0
sS'x'
I222
sg20
I0
stp69
stp70
sg9
(tsg3
(tsssg13
S'F'
s."
LayerCount: 2
Fore
SplineSet
295 0 m 256
 358 0 421 40 421 120 c 258
 421 644 l 257
 959 644 l 258
 1022 644 1053 692 1053 740 c 256
 1053 787 1022 836 959 836 c 258
 421 836 l 257
 421 1238 l 257
 986 1238 l 258
 1050 1238 1080 1290 1080 1337 c 256
 1080 1384 1050 1436 986 1436 c 258
 293 1436 l 258
 229 1436 172 1384 172 1313 c 258
 172 120 l 258
 172 40 232 0 295 0 c 256
EndSplineSet
EndChar

StartChar: G
Encoding: 71 71 38
Width: 1483
VWidth: 0
GlyphClass: 2
Flags: W
PickledData: "(dp1
S'b'
(dp2
sS'anchors'
p3
(tsS'lib'
p4
(dp5
sS'unicodes'
p6
(tsS'width'
p7
I1538
sS'contours'
p8
(tsS'components'
p9
(tsS'com.typemytype.robofont.layerData'
p10
(dp11
S'b'
(dp12
S'name'
p13
S'G'
sg4
(dp14
sg6
(tsg7
I1448
sg8
((dp15
S'points'
p16
((dp17
S'segmentType'
p18
S'curve'
p19
sS'x'
I783
sS'smooth'
p20
I1
sS'y'
S'-22'
p21
s(dp22
S'y'
S'-22'
p23
sS'x'
I965
sg20
I0
s(dp24
S'y'
I34
sS'x'
I1086
sg20
I0
s(dp25
g18
S'curve'
p26
sS'x'
I1166
sg20
I1
sS'y'
I86
s(dp27
S'y'
I154
sS'x'
I1270
sg20
I0
s(dp28
S'y'
I258
sS'x'
I1186
sg20
I0
s(dp29
g18
S'curve'
p30
sS'x'
I1112
sg20
I1
sS'y'
I214
s(dp31
S'y'
I162
sS'x'
I1024
sg20
I0
s(dp32
S'y'
I120
sS'x'
I939
sg20
I0
s(dp33
g18
S'curve'
p34
sS'x'
I806
sg20
I1
sS'y'
I120
s(dp35
S'y'
I120
sS'x'
I446
sg20
I0
s(dp36
S'y'
I406
sS'x'
I316
sg20
I0
s(dp37
g18
S'curve'
p38
sS'x'
I316
sg20
I1
sS'y'
I706
s(dp39
S'y'
I1005
sS'x'
I316
sg20
I0
s(dp40
S'y'
I1296
sS'x'
I450
sg20
I0
s(dp41
g18
S'curve'
p42
sS'x'
I801
sg20
I1
sS'y'
I1296
s(dp43
S'y'
I1296
sS'x'
I980
sg20
I0
s(dp44
S'y'
I1246
sS'x'
I1053
sg20
I0
s(dp45
g18
S'curve'
p46
sS'x'
I1094
sg20
I1
sS'y'
I1225
s(dp47
S'y'
I1184
sS'x'
I1174
sg20
I0
s(dp48
S'y'
I1300
sS'x'
I1231
sg20
I0
s(dp49
g18
S'curve'
p50
sS'x'
I1156
sg20
I1
sS'y'
I1343
s(dp51
S'y'
I1372
sS'x'
I1106
sg20
I0
s(dp52
S'y'
I1438
sS'x'
I995
sg20
I0
s(dp53
g18
S'curve'
p54
sS'x'
I797
sg20
I1
sS'y'
I1438
s(dp55
S'y'
I1438
sS'x'
I359
sg20
I0
s(dp56
S'y'
I1093
sS'x'
I128
sg20
I0
s(dp57
g18
S'curve'
p58
sS'x'
I128
sg20
I1
sS'y'
I704
s(dp59
S'y'
I307
sS'x'
I128
sg20
I0
s(dp60
S'y'
S'-22'
p61
sS'x'
I350
sg20
I0
stp62
stp63
sg9
(tsg3
(tsssg13
S'G'
s."
AnchorPoint: "bot" 826 0 basechar 0
AnchorPoint: "top" 822 1436 basechar 0
LayerCount: 2
Fore
SplineSet
824 -22 m 256
 986 -22 1148 15 1271 49 c 256
 1331 65 1371 102 1371 181 c 258
 1371 661 l 258
 1371 727 1338 773 1272 773 c 258
 884 773 l 258
 829 773 802 718 802 677 c 256
 802 637 829 584 884 584 c 258
 1123 584 l 257
 1123 212 l 257
 1033 190 933 176 839 176 c 256
 529 176 376 377 376 731 c 256
 376 1049 510 1274 852 1274 c 256
 983 1274 1095 1242 1206 1214 c 256
 1214 1211 1224 1210 1231 1210 c 256
 1286 1210 1319 1266 1319 1314 c 256
 1319 1347 1302 1381 1261 1399 c 256
 1143 1447 1000 1472 844 1472 c 256
 352 1472 114 1134 114 726 c 256
 114 242 400 -22 824 -22 c 256
EndSplineSet
EndChar

StartChar: H
Encoding: 72 72 44
Width: 1512
VWidth: 0
GlyphClass: 2
Flags: W
PickledData: "(dp1
S'b'
(dp2
sS'anchors'
p3
(tsS'lib'
p4
(dp5
sS'unicodes'
p6
(tsS'width'
p7
I1524
sS'contours'
p8
(tsS'components'
p9
(tsS'com.typemytype.robofont.layerData'
p10
(dp11
S'b'
(dp12
S'name'
p13
S'H'
sg4
(dp14
sg6
(tsg7
I1464
sg8
(tsg9
(tsg3
(tsssg13
S'H'
s."
AnchorPoint: "top" 766 1438 basechar 0
LayerCount: 2
Fore
SplineSet
297 2 m 256
 361 2 422 41 422 122 c 258
 422 645 l 257
 1090 645 l 257
 1090 122 l 258
 1090 42 1151 2 1214 2 c 256
 1277 2 1338 41 1338 122 c 258
 1338 1314 l 258
 1338 1394 1277 1434 1215 1434 c 256
 1151 1434 1090 1393 1090 1314 c 258
 1090 843 l 257
 422 843 l 257
 422 1314 l 258
 422 1394 361 1434 298 1434 c 256
 235 1434 174 1393 174 1314 c 258
 174 122 l 258
 174 42 235 2 297 2 c 256
EndSplineSet
EndChar

StartChar: Hbar
Encoding: 294 294 45
Width: 1502
VWidth: 0
GlyphClass: 2
Flags: W
PickledData: "(dp1
S'com.typemytype.robofont.layerData'
p2
(dp3
S'b'
(dp4
S'name'
p5
S'Hbar'
p6
sS'lib'
p7
(dp8
sS'unicodes'
p9
(tsS'width'
p10
I1464
sS'contours'
p11
(tsS'components'
p12
(tsS'anchors'
p13
(tsss."
LayerCount: 2
Fore
SplineSet
113 1018 m 258
 1390 1018 l 258
 1434 1018 1459 1043 1459 1076 c 256
 1459 1109 1434 1135 1390 1135 c 258
 113 1135 l 258
 70 1135 45 1109 45 1076 c 256
 45 1043 70 1018 113 1018 c 258
EndSplineSet
Refer: 44 72 N 1 0 0 1 0 0 2
EndChar

StartChar: I
Encoding: 73 73 47
Width: 628
VWidth: 0
GlyphClass: 2
Flags: W
PickledData: "(dp1
S'b'
(dp2
sS'anchors'
p3
(tsS'lib'
p4
(dp5
sS'unicodes'
p6
(tsS'width'
p7
I637
sS'contours'
p8
(tsS'components'
p9
(tsS'com.typemytype.robofont.layerData'
p10
(dp11
S'b'
(dp12
S'name'
p13
S'I'
sg4
(dp14
sg6
(tsg7
I592
sg8
(tsg9
(tsg3
(tsssg13
S'I'
s."
AnchorPoint: "ogonek" 322 22 basechar 0
AnchorPoint: "top" 314 1438 basechar 0
LayerCount: 2
Fore
SplineSet
314 2 m 256
 377 2 439 41 439 121 c 258
 439 1317 l 258
 439 1397 377 1437 315 1437 c 256
 252 1437 190 1397 190 1317 c 258
 190 121 l 258
 190 42 251 2 314 2 c 256
EndSplineSet
EndChar

StartChar: J
Encoding: 74 74 58
Width: 1047
VWidth: 0
GlyphClass: 2
Flags: W
PickledData: "(dp1
S'b'
(dp2
sS'anchors'
p3
(tsS'lib'
p4
(dp5
sS'unicodes'
p6
(tsS'width'
p7
I1126
sS'contours'
p8
(tsS'components'
p9
(tsS'com.typemytype.robofont.layerData'
p10
(dp11
S'b'
(dp12
S'name'
p13
S'J'
sg4
(dp14
sg6
(tsg7
I1003
sg8
(tsg9
(tsg3
(tsssg13
S'J'
s."
AnchorPoint: "top" 774 1438 basechar 0
LayerCount: 2
Fore
SplineSet
439 -29 m 256
 691 -29 899 102 899 443 c 258
 899 1317 l 258
 899 1396 839 1436 776 1436 c 256
 713 1436 651 1396 651 1317 c 258
 651 460 l 258
 651 250 577 177 425 177 c 256
 345 177 270 208 208 237 c 256
 192 246 177 250 163 250 c 256
 108 250 71 194 71 139 c 256
 71 97.7471 88.927 64.5365 126 46 c 256
 203 7 275 -29 439 -29 c 256
EndSplineSet
EndChar

StartChar: K
Encoding: 75 75 60
Width: 1322
VWidth: 0
GlyphClass: 2
Flags: W
PickledData: "(dp1
S'b'
(dp2
sS'anchors'
p3
(tsS'lib'
p4
(dp5
sS'unicodes'
p6
(tsS'width'
p7
I1329
sS'contours'
p8
(tsS'components'
p9
(tsS'com.typemytype.robofont.layerData'
p10
(dp11
S'b'
(dp12
S'name'
p13
S'K'
sg4
(dp14
sg6
(tsg7
I1210
sg8
(tsg9
(tsg3
(tsssg13
S'K'
s."
AnchorPoint: "bot" 668 0 basechar 0
AnchorPoint: "top" 644 1438 basechar 0
LayerCount: 2
Fore
SplineSet
298 0 m 256
 360 0 423 40 423 118 c 258
 423 710 l 257
 1004 55 l 258
 1035 19 1065 1 1101 1 c 256
 1165 1 1226 51 1226 115 c 256
 1226 137 1222 162 1202 184 c 258
 678 759 l 257
 1150 1266 l 258
 1168 1285 1173 1309 1173 1330 c 256
 1173 1389 1116 1434 1057 1434 c 256
 1023 1434 993 1416 963 1383 c 258
 423 779 l 257
 423 1317 l 258
 423 1396 361 1436 300 1436 c 256
 238 1436 176 1396 176 1317 c 258
 176 118 l 258
 176 39 236 0 298 0 c 256
EndSplineSet
EndChar

StartChar: L
Encoding: 76 76 62
Width: 1122
VWidth: 0
GlyphClass: 2
Flags: W
PickledData: "(dp1
S'b'
(dp2
sS'anchors'
p3
(tsS'lib'
p4
(dp5
sS'unicodes'
p6
(tsS'width'
p7
I1169
sS'contours'
p8
(tsS'components'
p9
(tsS'com.typemytype.robofont.layerData'
p10
(dp11
S'b'
(dp12
S'name'
p13
S'L'
sg4
(dp14
sg6
(tsg7
I1095
sg8
((dp15
S'points'
p16
((dp17
S'segmentType'
p18
S'curve'
p19
sS'x'
I266
sS'smooth'
p20
I1
sS'y'
I0
s(dp21
g18
S'line'
p22
sS'x'
I1035
sg20
I1
sS'y'
I0
s(dp23
S'y'
I0
sS'x'
I1084
sg20
I0
s(dp24
S'y'
I34
sS'x'
I1108
sg20
I0
s(dp25
g18
S'curve'
p26
sS'x'
I1108
sg20
I1
sS'y'
I71
s(dp27
S'y'
I107
sS'x'
I1108
sg20
I0
s(dp28
S'y'
I141
sS'x'
I1084
sg20
I0
s(dp29
g18
S'curve'
p30
sS'x'
I1035
sg20
I1
sS'y'
I141
s(dp31
g18
S'line'
p32
sS'x'
I356
sg20
I0
sS'y'
I141
s(dp33
g18
S'line'
p34
sS'x'
I356
sg20
I0
sS'y'
I665
s(dp35
g18
S'line'
p36
sS'x'
I975
sg20
I1
sS'y'
I665
s(dp37
S'y'
I665
sS'x'
I1024
sg20
I0
s(dp38
S'y'
I698
sS'x'
I1049
sg20
I0
s(dp39
g18
S'curve'
p40
sS'x'
I1049
sg20
I1
sS'y'
I734
s(dp41
S'y'
I770
sS'x'
I1049
sg20
I0
s(dp42
S'y'
I803
sS'x'
I1026
sg20
I0
s(dp43
g18
S'curve'
p44
sS'x'
I975
sg20
I1
sS'y'
I803
s(dp45
g18
S'line'
p46
sS'x'
I356
sg20
I0
sS'y'
I803
s(dp47
g18
S'line'
p48
sS'x'
I356
sg20
I0
sS'y'
I1285
s(dp49
g18
S'line'
p50
sS'x'
I1007
sg20
I1
sS'y'
I1285
s(dp51
S'y'
I1285
sS'x'
I1056
sg20
I0
s(dp52
S'y'
I1319
sS'x'
I1080
sg20
I0
s(dp53
g18
S'curve'
p54
sS'x'
I1080
sg20
I1
sS'y'
I1356
s(dp55
S'y'
I1392
sS'x'
I1080
sg20
I0
s(dp56
S'y'
I1426
sS'x'
I1056
sg20
I0
s(dp57
g18
S'curve'
p58
sS'x'
I1007
sg20
I1
sS'y'
I1426
s(dp59
g18
S'line'
p60
sS'x'
I261
sg20
I1
sS'y'
I1426
s(dp61
S'y'
I1426
sS'x'
I213
sg20
I0
s(dp62
S'y'
I1383
sS'x'
I178
sg20
I0
s(dp63
g18
S'curve'
p64
sS'x'
I178
sg20
I1
sS'y'
I1340
s(dp65
g18
S'line'
p66
sS'x'
I178
sg20
I1
sS'y'
I86
s(dp67
S'y'
I41
sS'x'
I178
sg20
I0
s(dp68
S'y'
I0
sS'x'
I222
sg20
I0
stp69
stp70
sg9
(tsg3
(tsssg13
S'L'
s."
AnchorPoint: "mid" 296 735 basechar 0
AnchorPoint: "bot" 671 0 basechar 0
AnchorPoint: "caron.alt" 335 1030 basechar 0
AnchorPoint: "top" 542 1441 basechar 0
LayerCount: 2
Fore
SplineSet
300 0 m 258
 1017 0 l 258
 1080 0 1112 50 1112 98 c 256
 1112 145 1080 197 1017 197 c 258
 422 197 l 257
 422 1314 l 258
 422 1394 362 1434 299 1434 c 256
 236 1434 174 1394 174 1314 c 258
 174 124 l 258
 174 55 233 0 300 0 c 258
EndSplineSet
EndChar

StartChar: Lslash
Encoding: 321 321 67
Width: 1169
VWidth: 0
GlyphClass: 2
Flags: HW
LayerCount: 2
Fore
SplineSet
300 0 m 2
 1017 0 l 2
 1080 0 1112 50 1112 98 c 0
 1112 145 1080 197 1017 197 c 2
 422 197 l 1
 422 735.554938821 l 1
 605 853 l 2
 627.102539062 867.84765625 637 889 637 912 c 0
 637 957 601 1005 558 1005 c 0
 546 1005 533.970703125 1002.04296875 522 994 c 2
 422 930.582632212 l 1
 422 1314 l 2
 422 1394 362 1434 299 1434 c 0
 236 1434 174 1394 174 1314 c 2
 174 772.635705749 l 1
 63 699 l 2
 39.158203125 682.767578125 29 658 29 633 c 0
 29 589 61 544 103 544 c 0
 115 544 127.813476562 547.282226562 141 556 c 2
 174 576.716500419 l 1
 174 124 l 2
 174 55 233 0 300 0 c 2
EndSplineSet
EndChar

StartChar: M
Encoding: 77 77 68
Width: 1919
VWidth: 0
GlyphClass: 2
Flags: W
PickledData: "(dp1
S'b'
(dp2
sS'anchors'
p3
(tsS'lib'
p4
(dp5
sS'unicodes'
p6
(tsS'width'
p7
I1984
sS'contours'
p8
(tsS'components'
p9
(tsS'com.typemytype.robofont.layerData'
p10
(dp11
S'b'
(dp12
S'name'
p13
S'M'
sg4
(dp14
sg6
(tsg7
I1899
sg8
(tsg9
(tsg3
(tsssg13
S'M'
s."
AnchorPoint: "top" 976 1438 basechar 0
LayerCount: 2
Fore
SplineSet
952 45 m 257
 952 346 l 257
 564 1253 l 258
 522.73 1350.34 440.207 1391.34 361.748 1391.34 c 256
 265.304 1391.34 175 1329.39 175 1234 c 258
 175 107 l 258
 175 51.5 232.25 23.75 289.5 23.75 c 256
 346.75 23.75 404 51.5 404 107 c 258
 404 1112 l 257
 809 153 l 258
 839 82 897 45 952 45 c 257
953 45 m 257
 1008 45 1067 82 1096 153 c 258
 1502 1112 l 257
 1502 107 l 258
 1502 51.5 1559.25 23.75 1616.5 23.75 c 256
 1673.75 23.75 1731 51.5 1731 107 c 258
 1731 1234 l 258
 1731 1329.39 1640.7 1391.34 1544.08 1391.34 c 256
 1465.49 1391.34 1382.72 1350.34 1341 1253 c 258
 953 346 l 257
 953 45 l 257
EndSplineSet
EndChar

StartChar: N
Encoding: 78 78 69
Width: 1545
VWidth: 0
GlyphClass: 2
Flags: W
PickledData: "(dp1
S'b'
(dp2
sS'anchors'
p3
(tsS'lib'
p4
(dp5
sS'unicodes'
p6
(tsS'width'
p7
I1557
sS'contours'
p8
(tsS'components'
p9
(tsS'com.typemytype.robofont.layerData'
p10
(dp11
S'b'
(dp12
S'name'
p13
S'N'
sg4
(dp14
sg6
(tsg7
I1499
sg8
(tsg9
(tsg3
(tsssg13
S'N'
s."
AnchorPoint: "bot" 802 0 basechar 0
AnchorPoint: "top" 804 1438 basechar 0
LayerCount: 2
Fore
SplineSet
283 0 m 256
 339 0 398 36 398 106 c 258
 398 1057 l 257
 1083 82 l 258
 1120 30 1189 0 1236 0 c 256
 1310 0 1375 56 1375 151 c 258
 1375 1328 l 258
 1375 1400 1318 1436 1262 1436 c 256
 1206 1436 1148 1399 1148 1328 c 258
 1148 370 l 257
 458 1357 l 258
 420 1411 354 1435 305 1435 c 256
 232 1435 170 1380 170 1284 c 258
 170 106 l 258
 170 35 227 0 283 0 c 256
EndSplineSet
EndChar

StartChar: O
Encoding: 79 79 74
Width: 1603
VWidth: 0
GlyphClass: 2
Flags: W
PickledData: "(dp1
S'b'
(dp2
sS'anchors'
p3
(tsS'com.typemytype.robofont.layerData'
p4
(dp5
S'b'
(dp6
S'name'
p7
S'O'
sS'lib'
p8
(dp9
sS'unicodes'
p10
(tsS'width'
p11
I1597
sS'contours'
p12
(tsS'components'
p13
(tsg3
(tsssg10
(tsg7
S'O'
sg11
I1604
sg12
(tsg13
(tsg8
(dp14
sS'com.typemytype.robofont.guides'
p15
(ts."
AnchorPoint: "top" 804 1438 basechar 0
LayerCount: 2
Fore
SplineSet
801 176 m 256
 514 176 372 396 372 725 c 256
 372 1052 513 1274 801 1274 c 256
 1090 1274 1231 1052 1231 725 c 256
 1231 396 1088 176 801 176 c 256
801 -22 m 256
 1244 -22 1493 278 1493 725 c 256
 1493 1173 1244 1472 801 1472 c 256
 361 1472 109 1173 109 725 c 256
 109 278 361 -22 801 -22 c 256
EndSplineSet
EndChar

StartChar: OE
Encoding: 338 338 75
Width: 1997
VWidth: 0
GlyphClass: 2
Flags: W
LayerCount: 2
Fore
SplineSet
725 -25 m 256
 846 -25 1054 -1 1079 -1 c 258
 1792 -1 l 258
 1853 -1 1885 46 1885 92 c 256
 1885 138 1853 185 1792 185 c 258
 1285 185 l 257
 1285 643 l 257
 1733 643 l 258
 1794 643 1827 688 1827 735 c 256
 1827 781 1794 828 1733 828 c 258
 1285 828 l 257
 1285 1248 l 257
 1770 1248 l 258
 1832 1248 1863 1295 1863 1342 c 256
 1863 1387 1832 1435 1770 1435 c 258
 1101 1435 l 258
 1076 1435 871 1458 742 1458 c 256
 344 1458 106 1174 106 717 c 256
 106 262 346 -25 725 -25 c 256
738 152 m 256
 471 152 353 409 353 719 c 256
 353 1029 476 1281 739 1281 c 256
 931 1281 1036 1262 1045 1259 c 257
 1045 179 l 257
 1038 174 921 155 738 152 c 256
EndSplineSet
EndChar

StartChar: Omega
Encoding: 8486 8486 83
Width: 1510
VWidth: 0
GlyphClass: 2
Flags: W
LayerCount: 2
Fore
SplineSet
218 0 m 258
 711 0 l 257
 562 246 378 594 378 855 c 256
 378 1072 493 1226 811 1226 c 256
 1130 1226 1245 1072 1245 855 c 256
 1245 595 1061 248 911 0 c 257
 1404 0 l 258
 1450 0 1474 42 1474 85 c 256
 1474 127 1450 169 1404 169 c 258
 1145 169 l 257
 1349 413 1499 708 1499 938 c 256
 1499 1203 1368 1460 811 1460 c 256
 285 1460 123 1200 123 938 c 256
 123 708 265 433 477 169 c 257
 218 169 l 258
 172 169 149 127 149 85 c 256
 149 42 172 0 218 0 c 258
EndSplineSet
EndChar

StartChar: Oslash
Encoding: 216 216 84
Width: 1603
VWidth: 0
GlyphClass: 2
Flags: W
PickledData: "(dp1
S'com.typemytype.robofont.layerData'
p2
(dp3
S'b'
(dp4
S'name'
p5
S'Oslash'
p6
sS'lib'
p7
(dp8
sS'unicodes'
p9
(tsS'width'
p10
I1597
sS'contours'
p11
(tsS'components'
p12
(tsS'anchors'
p13
(tsss."
LayerCount: 2
Fore
SplineSet
291 -161 m 256
 321 -161 341 -142 364 -108 c 258
 468.681 49.2245 l 257
 562.785 2.96586 674.07 -22 801 -22 c 256
 1244 -22 1493 278 1493 725 c 256
 1493 961.334 1423.71 1156.2 1293.19 1287.59 c 257
 1398 1445 l 258
 1413 1469 1422 1493 1422 1513 c 256
 1422 1554 1388 1582 1351 1582 c 256
 1327 1582 1302 1572 1283 1542 c 258
 1175.36 1379.04 l 257
 1073.19 1439.2 947.736 1472 801 1472 c 256
 361 1472 109 1173 109 725 c 256
 109 466.999 192.951 257.97 348.548 127.331 c 257
 240 -37 l 258
 228 -56 221 -76 221 -94 c 256
 221 -134 254 -161 291 -161 c 256
1153.28 1077.44 m 257
 1205.27 985.197 1231 864.677 1231 725 c 256
 1231 396 1088 176 801 176 c 256
 717.914 176 646.98 194.438 588.125 228.621 c 257
 1153.28 1077.44 l 257
1053.7 1194.87 m 257
 479.748 325.954 l 257
 407.789 422.134 372 559.831 372 725 c 256
 372 1052 513 1274 801 1274 c 256
 903.887 1274 988.017 1245.86 1053.7 1194.87 c 257
EndSplineSet
EndChar

StartChar: P
Encoding: 80 80 87
Width: 1283
VWidth: 0
GlyphClass: 2
Flags: W
PickledData: "(dp1
S'b'
(dp2
sS'anchors'
p3
(tsS'lib'
p4
(dp5
sS'unicodes'
p6
(tsS'width'
p7
I1319
sS'contours'
p8
(tsS'components'
p9
(tsS'com.typemytype.robofont.layerData'
p10
(dp11
S'b'
(dp12
S'name'
p13
S'P'
sg4
(dp14
sg6
(tsg7
I1201
sg8
((dp15
S'points'
p16
((dp17
S'segmentType'
p18
S'curve'
p19
sS'x'
I266
sS'smooth'
p20
I1
sS'y'
I0
s(dp21
g18
S'line'
p22
sS'x'
I1035
sg20
I1
sS'y'
I0
s(dp23
S'y'
I0
sS'x'
I1084
sg20
I0
s(dp24
S'y'
I34
sS'x'
I1108
sg20
I0
s(dp25
g18
S'curve'
p26
sS'x'
I1108
sg20
I1
sS'y'
I71
s(dp27
S'y'
I107
sS'x'
I1108
sg20
I0
s(dp28
S'y'
I141
sS'x'
I1084
sg20
I0
s(dp29
g18
S'curve'
p30
sS'x'
I1035
sg20
I1
sS'y'
I141
s(dp31
g18
S'line'
p32
sS'x'
I356
sg20
I0
sS'y'
I141
s(dp33
g18
S'line'
p34
sS'x'
I356
sg20
I0
sS'y'
I665
s(dp35
g18
S'line'
p36
sS'x'
I975
sg20
I1
sS'y'
I665
s(dp37
S'y'
I665
sS'x'
I1024
sg20
I0
s(dp38
S'y'
I698
sS'x'
I1049
sg20
I0
s(dp39
g18
S'curve'
p40
sS'x'
I1049
sg20
I1
sS'y'
I734
s(dp41
S'y'
I770
sS'x'
I1049
sg20
I0
s(dp42
S'y'
I803
sS'x'
I1026
sg20
I0
s(dp43
g18
S'curve'
p44
sS'x'
I975
sg20
I1
sS'y'
I803
s(dp45
g18
S'line'
p46
sS'x'
I356
sg20
I0
sS'y'
I803
s(dp47
g18
S'line'
p48
sS'x'
I356
sg20
I0
sS'y'
I1285
s(dp49
g18
S'line'
p50
sS'x'
I1007
sg20
I1
sS'y'
I1285
s(dp51
S'y'
I1285
sS'x'
I1056
sg20
I0
s(dp52
S'y'
I1319
sS'x'
I1080
sg20
I0
s(dp53
g18
S'curve'
p54
sS'x'
I1080
sg20
I1
sS'y'
I1356
s(dp55
S'y'
I1392
sS'x'
I1080
sg20
I0
s(dp56
S'y'
I1426
sS'x'
I1056
sg20
I0
s(dp57
g18
S'curve'
p58
sS'x'
I1007
sg20
I1
sS'y'
I1426
s(dp59
g18
S'line'
p60
sS'x'
I261
sg20
I1
sS'y'
I1426
s(dp61
S'y'
I1426
sS'x'
I213
sg20
I0
s(dp62
S'y'
I1383
sS'x'
I178
sg20
I0
s(dp63
g18
S'curve'
p64
sS'x'
I178
sg20
I1
sS'y'
I1340
s(dp65
g18
S'line'
p66
sS'x'
I178
sg20
I1
sS'y'
I86
s(dp67
S'y'
I41
sS'x'
I178
sg20
I0
s(dp68
S'y'
I0
sS'x'
I222
sg20
I0
stp69
stp70
sg9
(tsg3
(tsssg13
S'P'
s."
AnchorPoint: "top" 661 1438 basechar 0
LayerCount: 2
Fore
SplineSet
298 -1 m 256
 361 -1 422 39 422 119 c 258
 422 590 l 257
 713 590 l 258
 1040 590 1250 700 1250 1014 c 256
 1250 1322 1053 1436 735 1436 c 258
 300 1436 l 258
 230 1436 174 1380 174 1312 c 258
 174 119 l 258
 174 39 236 -1 298 -1 c 256
422 779 m 257
 422 1239 l 257
 713 1239 l 258
 900 1239 1006 1200 1006 1014 c 256
 1006 826 899 779 706 779 c 258
 422 779 l 257
EndSplineSet
EndChar

StartChar: Q
Encoding: 81 81 88
Width: 1603
VWidth: 0
GlyphClass: 2
Flags: W
PickledData: "(dp1
S'b'
(dp2
sS'anchors'
p3
(tsS'lib'
p4
(dp5
sS'unicodes'
p6
(tsS'width'
p7
I1604
sS'contours'
p8
(tsS'components'
p9
(tsS'com.typemytype.robofont.layerData'
p10
(dp11
S'b'
(dp12
S'name'
p13
S'Q'
sg4
(dp14
sg6
(tsg7
I1597
sg8
(tsg9
(tsg3
(tsssg13
S'Q'
s."
LayerCount: 2
Fore
SplineSet
1256.63 -206.534 m 256
 1303.81 -206.534 1346.18 -164.585 1346.18 -112.16 c 256
 1346.18 -81.4138 1329.77 -50.7398 1291 -31 c 258
 1022 101 l 257
 718 37 l 257
 1217 -197 l 258
 1230.72 -203.607 1244.06 -206.534 1256.63 -206.534 c 256
EndSplineSet
Refer: 74 79 N 1 0 0 1 0 0 2
EndChar

StartChar: R
Encoding: 82 82 89
Width: 1396
VWidth: 0
GlyphClass: 2
Flags: W
PickledData: "(dp1
S'b'
(dp2
sS'anchors'
p3
(tsS'com.typemytype.robofont.layerData'
p4
(dp5
S'b'
(dp6
S'name'
p7
S'R'
sS'lib'
p8
(dp9
sS'unicodes'
p10
(tsS'width'
p11
I1363
sS'contours'
p12
((dp13
S'points'
p14
((dp15
S'segmentType'
p16
S'curve'
p17
sS'x'
I267
sS'smooth'
p18
I1
sS'y'
I0
s(dp19
S'y'
I0
sS'x'
I311
sg18
I0
s(dp20
S'y'
I27
sS'x'
I356
sg18
I0
s(dp21
g16
S'curve'
p22
sS'x'
I356
sg18
I1
sS'y'
I84
s(dp23
g16
S'line'
p24
sS'x'
I356
sg18
I0
sS'y'
I628
s(dp25
g16
S'line'
p26
sS'x'
I669
sg18
I1
sS'y'
I628
s(dp27
S'y'
I628
sS'x'
I962
sg18
I0
s(dp28
S'y'
I722
sS'x'
I1182
sg18
I0
s(dp29
g16
S'curve'
p30
sS'x'
I1182
sg18
I1
sS'y'
I1026
s(dp31
S'y'
I1324
sS'x'
I1182
sg18
I0
s(dp32
S'y'
I1426
sS'x'
I993
sg18
I0
s(dp33
g16
S'curve'
p34
sS'x'
I684
sg18
I1
sS'y'
I1426
s(dp35
g16
S'line'
p36
sS'x'
I268
sg18
I1
sS'y'
I1426
s(dp37
S'y'
I1426
sS'x'
I217
sg18
I0
s(dp38
S'y'
I1387
sS'x'
I178
sg18
I0
s(dp39
g16
S'curve'
p40
sS'x'
I178
sg18
I1
sS'y'
I1339
s(dp41
g16
S'line'
p42
sS'x'
I178
sg18
I1
sS'y'
I84
s(dp43
S'y'
I28
sS'x'
I178
sg18
I0
s(dp44
S'y'
I0
sS'x'
I222
sg18
I0
stp45
s(dp46
g14
((dp47
g16
S'line'
p48
sS'x'
I356
sg18
I0
sS'y'
I764
s(dp49
g16
S'line'
p50
sS'x'
I356
sg18
I0
sS'y'
I1285
s(dp51
g16
S'line'
p52
sS'x'
I684
sg18
I1
sS'y'
I1285
s(dp53
S'y'
I1285
sS'x'
I914
sg18
I0
s(dp54
S'y'
I1210
sS'x'
I1008
sg18
I0
s(dp55
g16
S'curve'
p56
sS'x'
I1008
sg18
I1
sS'y'
I1026
s(dp57
S'y'
I838
sS'x'
I1008
sg18
I0
s(dp58
S'y'
I764
sS'x'
I901
sg18
I0
s(dp59
g16
S'curve'
p60
sS'x'
I670
sg18
I1
sS'y'
I764
stp61
stp62
sS'components'
p63
(tsg3
(tsssg10
(tsg7
S'R'
sg11
I1408
sg12
(tsg63
(tsg8
(dp64
sS'com.typemytype.robofont.guides'
p65
(ts."
AnchorPoint: "bot" 747 0 basechar 0
AnchorPoint: "top" 678 1438 basechar 0
LayerCount: 2
Fore
SplineSet
297 2 m 256
 359 2 422 41 422 120 c 258
 422 634 l 257
 714 634 l 258
 715.525 634.008 717.041 634.011 718.548 634.011 c 256
 916.633 634.011 958.159 568.551 979 378 c 258
 1007 110 l 258
 1015 36 1082 2 1140 2 c 256
 1198.93 2 1257.86 42.25 1257.86 108.836 c 256
 1257.86 113.433 1257.58 118.156 1257 123 c 258
 1225 406 l 258
 1206 576 1122 700 941 739 c 257
 941 743 l 257
 1160 779 1260 910 1260 1071 c 256
 1260 1365 1007 1436 744 1436 c 258
 298 1436 l 258
 230 1436 174 1381 174 1314 c 258
 174 120 l 258
 174 41 236 2 297 2 c 256
422 825 m 257
 422 1239 l 257
 704 1239 l 258
 708 1239 712.026 1239 716.073 1239 c 256
 851.655 1239 1011 1236.17 1011 1041 c 256
 1011 837 827 825 659 825 c 258
 422 825 l 257
EndSplineSet
EndChar

StartChar: S
Encoding: 83 83 93
Width: 1308
VWidth: 0
GlyphClass: 2
Flags: W
PickledData: "(dp1
S'b'
(dp2
sS'anchors'
p3
(tsS'lib'
p4
(dp5
sS'unicodes'
p6
(tsS'width'
p7
I1317
sS'contours'
p8
(tsS'components'
p9
(tsS'com.typemytype.robofont.layerData'
p10
(dp11
S'b'
(dp12
S'name'
p13
S'S'
sg4
(dp14
sg6
(tsg7
I1274
sg8
(tsg9
(tsg3
(tsssg13
S'S'
s."
AnchorPoint: "bot" 651 2 basechar 0
AnchorPoint: "top" 662 1438 basechar 0
LayerCount: 2
Fore
SplineSet
649 -22 m 256
 987.071 -22 1208.02 135.811 1208.02 402.887 c 256
 1208.02 631.395 1068.34 729.543 834 806 c 257
 518 907 l 257
 416 941 369 992 369 1083 c 256
 369 1227 511 1274 681 1274 c 256
 830 1274 960 1218 1031 1177 c 256
 1048.16 1166.77 1064.7 1162.34 1080.03 1162.34 c 256
 1133.18 1162.34 1171.82 1215.57 1171.82 1264.94 c 256
 1171.82 1287.62 1163.66 1309.49 1145 1325 c 256
 1055 1401 866 1472 663 1472 c 256
 361 1472 130 1326 130 1074 c 256
 130 873 234 772 446 701 c 258
 764 595 l 258
 899 550 965 502 965 380 c 256
 965 240 828 176 653 176 c 256
 471 176 334 245 250 303 c 256
 241.517 308.655 232.536 311.182 223.405 311.182 c 256
 172.652 311.182 117.282 233.124 117.282 180.39 c 256
 117.282 165.439 121.732 152.524 132 144 c 256
 228 62 390 -22 649 -22 c 256
EndSplineSet
EndChar

StartChar: Sigma
Encoding: 931 931 99
Width: 1399
VWidth: 0
GlyphClass: 2
Flags: W
LayerCount: 2
Fore
SplineSet
316 -166 m 258
 1162 -165 l 258
 1226.12 -165 1258.38 -109.033 1258.38 -53.1746 c 256
 1258.38 2.46671 1226.37 58 1162 58 c 258
 396 58 l 257
 855 503 l 258
 905.299 550.733 932.68 594.514 932.68 639.482 c 256
 932.68 682.127 908.055 725.839 855 775 c 257
 396 1217 l 257
 1162 1217 l 258
 1226.37 1217 1258.38 1272.53 1258.38 1328.17 c 256
 1258.38 1384.03 1226.12 1440 1162 1440 c 258
 326 1440 l 258
 219.396 1440 142.589 1374.77 142.589 1286.47 c 256
 142.589 1235.62 168.065 1177.11 228 1119 c 258
 713 640 l 257
 228 145 l 258
 174.061 91.061 150.285 33.5652 150.285 -17.1301 c 256
 150.285 -100.835 215.106 -166 316 -166 c 258
EndSplineSet
EndChar

StartChar: T
Encoding: 84 84 100
Width: 1191
VWidth: 0
GlyphClass: 2
Flags: W
PickledData: "(dp1
S'b'
(dp2
sS'anchors'
p3
(tsS'lib'
p4
(dp5
sS'unicodes'
p6
(tsS'width'
p7
I1199
sS'contours'
p8
(tsS'components'
p9
(tsS'com.typemytype.robofont.layerData'
p10
(dp11
S'b'
(dp12
S'name'
p13
S'T'
sg4
(dp14
sg6
(tsg7
I1158
sg8
((dp15
S'points'
p16
((dp17
S'segmentType'
p18
S'curve'
p19
sS'x'
I581
sS'smooth'
p20
I1
sS'y'
I0
s(dp21
g18
S'line'
p22
sS'x'
I1350
sg20
I1
sS'y'
I0
s(dp23
S'y'
I0
sS'x'
I1399
sg20
I0
s(dp24
S'y'
I34
sS'x'
I1423
sg20
I0
s(dp25
g18
S'curve'
p26
sS'x'
I1423
sg20
I1
sS'y'
I71
s(dp27
S'y'
I107
sS'x'
I1423
sg20
I0
s(dp28
S'y'
I141
sS'x'
I1399
sg20
I0
s(dp29
g18
S'curve'
p30
sS'x'
I1350
sg20
I1
sS'y'
I141
s(dp31
g18
S'line'
p32
sS'x'
I671
sg20
I0
sS'y'
I141
s(dp33
g18
S'line'
p34
sS'x'
I671
sg20
I0
sS'y'
I665
s(dp35
g18
S'line'
p36
sS'x'
I1290
sg20
I1
sS'y'
I665
s(dp37
S'y'
I665
sS'x'
I1339
sg20
I0
s(dp38
S'y'
I698
sS'x'
I1364
sg20
I0
s(dp39
g18
S'curve'
p40
sS'x'
I1364
sg20
I1
sS'y'
I734
s(dp41
S'y'
I770
sS'x'
I1364
sg20
I0
s(dp42
S'y'
I803
sS'x'
I1341
sg20
I0
s(dp43
g18
S'curve'
p44
sS'x'
I1290
sg20
I1
sS'y'
I803
s(dp45
g18
S'line'
p46
sS'x'
I671
sg20
I0
sS'y'
I803
s(dp47
g18
S'line'
p48
sS'x'
I671
sg20
I0
sS'y'
I1285
s(dp49
g18
S'line'
p50
sS'x'
I1322
sg20
I1
sS'y'
I1285
s(dp51
S'y'
I1285
sS'x'
I1371
sg20
I0
s(dp52
S'y'
I1319
sS'x'
I1395
sg20
I0
s(dp53
g18
S'curve'
p54
sS'x'
I1395
sg20
I1
sS'y'
I1356
s(dp55
S'y'
I1392
sS'x'
I1395
sg20
I0
s(dp56
S'y'
I1426
sS'x'
I1371
sg20
I0
s(dp57
g18
S'curve'
p58
sS'x'
I1322
sg20
I1
sS'y'
I1426
s(dp59
g18
S'line'
p60
sS'x'
I576
sg20
I1
sS'y'
I1426
s(dp61
S'y'
I1426
sS'x'
I528
sg20
I0
s(dp62
S'y'
I1383
sS'x'
I493
sg20
I0
s(dp63
g18
S'curve'
p64
sS'x'
I493
sg20
I1
sS'y'
I1340
s(dp65
g18
S'line'
p66
sS'x'
I493
sg20
I1
sS'y'
I86
s(dp67
S'y'
I41
sS'x'
I493
sg20
I0
s(dp68
S'y'
I0
sS'x'
I537
sg20
I0
stp69
stp70
sg9
(tsg3
(tsssg13
S'T'
s."
AnchorPoint: "mid" 601 707 basechar 0
AnchorPoint: "bot" 596 2 basechar 0
AnchorPoint: "top" 610 1438 basechar 0
LayerCount: 2
Fore
SplineSet
596 -1 m 256
 659 -1 721 40 721 120 c 258
 721 1238 l 257
 1069 1238 l 258
 1133 1238 1165 1289 1165 1337 c 256
 1165 1385 1133 1436 1069 1436 c 258
 123 1436 l 258
 58 1436 25 1385 25 1337 c 256
 25 1289 58 1238 123 1238 c 258
 472 1238 l 257
 472 120 l 258
 472 40 534 -1 596 -1 c 256
EndSplineSet
EndChar

StartChar: Thorn
Encoding: 222 222 105
Width: 1320
VWidth: 0
GlyphClass: 2
Flags: W
LayerCount: 2
Fore
SplineSet
304 -1 m 256
 367 -1 430 39 430 119 c 258
 430 371 l 257
 680 371 l 258
 990 371 1261 479 1261 797 c 256
 1261 1108 997 1220 701 1220 c 258
 430 1220 l 257
 430 1328 l 258
 430 1407 367 1447 304 1447 c 256
 241 1447 179 1407 179 1328 c 258
 179 119 l 258
 179 39 241 -1 304 -1 c 256
430 545 m 257
 430 1045 l 257
 685 1045 l 258
 864 1045 1008 988 1008 797 c 256
 1008 604 863 545 677 545 c 258
 430 545 l 257
EndSplineSet
EndChar

StartChar: U
Encoding: 85 85 106
Width: 1508
VWidth: 0
GlyphClass: 2
Flags: W
PickledData: "(dp1
S'b'
(dp2
sS'anchors'
p3
(tsS'lib'
p4
(dp5
sS'unicodes'
p6
(tsS'width'
p7
I1513
sS'contours'
p8
(tsS'components'
p9
(tsS'com.typemytype.robofont.layerData'
p10
(dp11
S'b'
(dp12
S'name'
p13
S'U'
sg4
(dp14
sg6
(tsg7
I1490
sg8
(tsg9
(tsg3
(tsssg13
S'U'
s."
AnchorPoint: "ogonek" 891 9 basechar 0
AnchorPoint: "top" 774 1438 basechar 0
LayerCount: 2
Fore
SplineSet
754 -22 m 256
 1070 -22 1337 147 1337 499 c 258
 1337 1322 l 258
 1337 1402 1276 1442 1214 1442 c 256
 1150 1442 1089 1402 1089 1322 c 258
 1089 506 l 258
 1089 274 921 176 754 176 c 256
 588 176 421 274 421 506 c 258
 421 1322 l 258
 421 1402 359 1442 297 1442 c 256
 233 1442 172 1402 172 1322 c 258
 172 499 l 258
 172 147 438 -22 754 -22 c 256
EndSplineSet
EndChar

StartChar: V
Encoding: 86 86 117
Width: 1350
VWidth: 0
GlyphClass: 2
Flags: W
PickledData: "(dp1
S'b'
(dp2
sS'anchors'
p3
(tsS'com.typemytype.robofont.layerData'
p4
(dp5
S'b'
(dp6
S'name'
p7
S'V'
sS'lib'
p8
(dp9
sS'unicodes'
p10
(tsS'width'
p11
I1289
sS'contours'
p12
((dp13
S'points'
p14
((dp15
S'segmentType'
p16
S'curve'
p17
sS'x'
I644
sS'smooth'
p18
I1
sS'y'
S'-5'
p19
s(dp20
S'y'
S'-5'
p21
sS'x'
I712
sg18
I0
s(dp22
S'y'
I38
sS'x'
I764
sg18
I0
s(dp23
g16
S'curve'
p24
sS'x'
I793
sg18
I1
sS'y'
I117
s(dp25
g16
S'line'
p26
sS'x'
I1243
sg18
I1
sS'y'
I1324
s(dp27
S'y'
I1335
sS'x'
I1247
sg18
I0
s(dp28
S'y'
I1342
sS'x'
I1248
sg18
I0
s(dp29
g16
S'curve'
p30
sS'x'
I1248
sg18
I1
sS'y'
I1351
s(dp31
S'y'
I1395
sS'x'
I1248
sg18
I0
s(dp32
S'y'
I1427
sS'x'
I1203
sg18
I0
s(dp33
g16
S'curve'
p34
sS'x'
I1160
sg18
I1
sS'y'
I1427
s(dp35
S'y'
I1427
sS'x'
I1125
sg18
I0
s(dp36
S'y'
I1408
sS'x'
I1090
sg18
I0
s(dp37
g16
S'curve'
p38
sS'x'
I1076
sg18
I1
sS'y'
I1369
s(dp39
g16
S'line'
p40
sS'x'
I651
sg18
I0
sS'y'
I192
s(dp41
g16
S'line'
p42
sS'x'
I650
sg18
I0
sS'y'
I190
s(dp43
g16
S'line'
p44
sS'x'
I214
sg18
I1
sS'y'
I1370
s(dp45
S'y'
I1407
sS'x'
I200
sg18
I0
s(dp46
S'y'
I1427
sS'x'
I170
sg18
I0
s(dp47
g16
S'curve'
p48
sS'x'
I135
sg18
I1
sS'y'
I1427
s(dp49
S'y'
I1427
sS'x'
I90
sg18
I0
s(dp50
S'y'
I1392
sS'x'
I43
sg18
I0
s(dp51
g16
S'curve'
p52
sS'x'
I43
sg18
I1
sS'y'
I1344
s(dp53
S'y'
I1336
sS'x'
I43
sg18
I0
s(dp54
S'y'
I1326
sS'x'
I44
sg18
I0
s(dp55
g16
S'curve'
p56
sS'x'
I48
sg18
I0
sS'y'
I1318
s(dp57
g16
S'line'
p58
sS'x'
I501
sg18
I1
sS'y'
I117
s(dp59
S'y'
I35
sS'x'
I532
sg18
I0
s(dp60
S'y'
S'-5'
p61
sS'x'
I581
sg18
I0
stp62
stp63
sS'components'
p64
(tsg3
(tsssg10
(tsg7
S'V'
sg11
I1365
sg12
(tsg64
(tsg8
(dp65
sS'com.typemytype.robofont.guides'
p66
(ts."
LayerCount: 2
Fore
SplineSet
680 -14 m 256
 780 -14 845 25 892 162 c 258
 1288 1299 l 258
 1292.6 1312.33 1294.71 1325 1294.71 1336.9 c 256
 1294.71 1402.26 1231.13 1444.27 1168.33 1444.27 c 256
 1120.81 1444.27 1073.74 1420.21 1055 1364 c 258
 680 250 l 257
 304 1364 l 258
 285.654 1420.21 238.817 1444.27 191.44 1444.27 c 256
 128.838 1444.27 65.2934 1402.26 65.2934 1336.9 c 256
 65.2934 1325 67.3992 1312.33 72 1299 c 258
 468 162 l 258
 515 25 580 -14 680 -14 c 256
EndSplineSet
EndChar

StartChar: W
Encoding: 87 87 118
Width: 2081
VWidth: 0
GlyphClass: 2
Flags: W
PickledData: "(dp1
S'b'
(dp2
sS'anchors'
p3
(tsS'lib'
p4
(dp5
sS'unicodes'
p6
(tsS'width'
p7
I2070
sS'contours'
p8
(tsS'components'
p9
(tsS'com.typemytype.robofont.layerData'
p10
(dp11
S'b'
(dp12
S'name'
p13
S'W'
sg4
(dp14
sg6
(tsg7
I2126
sg8
(tsg9
(tsg3
(tsssg13
S'W'
s."
AnchorPoint: "top" 1038 1438 basechar 0
LayerCount: 2
Fore
SplineSet
1717 135 m 258
 2029 1294 l 258
 2032.11 1305.65 2033.55 1316.68 2033.55 1327.04 c 256
 2033.55 1395.27 1971.04 1434.67 1910.01 1434.67 c 256
 1861.01 1434.67 1812.96 1409.27 1799 1353 c 258
 1521 244 l 257
 1196 1318 l 258
 1166 1416 1110 1436 1037 1436 c 256
 965 1436 908 1414 879 1318 c 258
 553 244 l 257
 276 1353 l 258
 262.035 1409.27 213.824 1434.67 164.696 1434.67 c 256
 103.681 1434.67 41.2508 1395.49 41.2508 1327.63 c 256
 41.2508 1317.1 42.7543 1305.87 46 1294 c 258
 358 135 l 258
 382.465 44.1282 460.28 -0.125264 538.668 -0.125264 c 256
 617.277 -0.125264 696.463 44.3782 723 131 c 258
 1037 1154 l 257
 1352 131 l 258
 1378.39 43.8697 1456.83 -0.127377 1535 -0.127377 c 256
 1613.84 -0.127377 1692.4 44.6197 1717 135 c 258
EndSplineSet
EndChar

StartChar: X
Encoding: 88 88 123
Width: 1312
VWidth: 0
GlyphClass: 2
Flags: W
PickledData: "(dp1
S'b'
(dp2
sS'anchors'
p3
(tsS'lib'
p4
(dp5
sS'unicodes'
p6
(tsS'width'
p7
I1322
sS'contours'
p8
(tsS'components'
p9
(tsS'com.typemytype.robofont.layerData'
p10
(dp11
S'b'
(dp12
S'name'
p13
S'X'
sg4
(dp14
sg6
(tsg7
I1274
sg8
((dp15
S'points'
p16
((dp17
S'segmentType'
p18
S'curve'
p19
sS'x'
I151
sS'smooth'
p20
I1
sS'y'
I0
s(dp21
S'y'
I0
sS'x'
I176
sg20
I0
s(dp22
S'y'
I12
sS'x'
I201
sg20
I0
s(dp23
g18
S'curve'
p24
sS'x'
I222
sg20
I1
sS'y'
I41
s(dp25
g18
S'line'
p26
sS'x'
I641
sg20
I0
sS'y'
I616
s(dp27
g18
S'line'
p28
sS'x'
I746
sg20
I0
sS'y'
I734
s(dp29
g18
S'line'
p30
sS'x'
I1175
sg20
I1
sS'y'
I1310
s(dp31
S'y'
I1325
sS'x'
I1186
sg20
I0
s(dp32
S'y'
I1338
sS'x'
I1190
sg20
I0
s(dp33
g18
S'curve'
p34
sS'x'
I1190
sg20
I1
sS'y'
I1353
s(dp35
S'y'
I1393
sS'x'
I1190
sg20
I0
s(dp36
S'y'
I1426
sS'x'
I1153
sg20
I0
s(dp37
g18
S'curve'
p38
sS'x'
I1110
sg20
I1
sS'y'
I1426
s(dp39
S'y'
I1426
sS'x'
I1083
sg20
I0
s(dp40
S'y'
I1414
sS'x'
I1058
sg20
I0
s(dp41
g18
S'curve'
p42
sS'x'
I1037
sg20
I1
sS'y'
I1385
s(dp43
g18
S'line'
p44
sS'x'
I648
sg20
I0
sS'y'
I844
s(dp45
g18
S'line'
p46
sS'x'
I542
sg20
I0
sS'y'
I732
s(dp47
g18
S'line'
p48
sS'x'
I84
sg20
I1
sS'y'
I121
s(dp49
S'y'
I106
sS'x'
I73
sg20
I0
s(dp50
S'y'
I91
sS'x'
I68
sg20
I0
s(dp51
g18
S'curve'
p52
sS'x'
I68
sg20
I1
sS'y'
I76
s(dp53
S'y'
I35
sS'x'
I68
sg20
I0
s(dp54
S'y'
I0
sS'x'
I108
sg20
I0
stp55
s(dp56
g16
((dp57
g18
S'curve'
p58
sS'x'
I1104
sg20
I1
sS'y'
I0
s(dp59
S'y'
I0
sS'x'
I1151
sg20
I0
s(dp60
S'y'
I40
sS'x'
I1200
sg20
I0
s(dp61
g18
S'curve'
p62
sS'x'
I1200
sg20
I1
sS'y'
I85
s(dp63
S'y'
I98
sS'x'
I1200
sg20
I0
s(dp64
S'y'
I113
sS'x'
I1195
sg20
I0
s(dp65
g18
S'curve'
p66
sS'x'
I1186
sg20
I0
sS'y'
I126
s(dp67
g18
S'line'
p68
sS'x'
I272
sg20
I0
sS'y'
I1385
s(dp69
S'y'
I1414
sS'x'
I252
sg20
I0
s(dp70
S'y'
I1426
sS'x'
I225
sg20
I0
s(dp71
g18
S'curve'
p72
sS'x'
I197
sg20
I1
sS'y'
I1426
s(dp73
S'y'
I1426
sS'x'
I149
sg20
I0
s(dp74
S'y'
I1388
sS'x'
I100
sg20
I0
s(dp75
g18
S'curve'
p76
sS'x'
I100
sg20
I1
sS'y'
I1343
s(dp77
S'y'
I1328
sS'x'
I100
sg20
I0
s(dp78
S'y'
I1315
sS'x'
I105
sg20
I0
s(dp79
g18
S'curve'
p80
sS'x'
I114
sg20
I0
sS'y'
I1303
s(dp81
g18
S'line'
p82
sS'x'
I1033
sg20
I0
sS'y'
I40
s(dp83
S'y'
I13
sS'x'
I1052
sg20
I0
s(dp84
S'y'
I0
sS'x'
I1076
sg20
I0
stp85
stp86
sg9
(tsg3
(tsssg13
S'X'
s."
LayerCount: 2
Fore
SplineSet
1030 38 m 258
 1054.82 4.62 1088.92 -9.38784 1122.78 -9.38784 c 256
 1185.77 -9.38784 1247.93 39.1013 1247.93 101.532 c 256
 1247.93 123.16 1240.47 146.462 1223 170 c 258
 809.762 723.404 l 257
 1237 1285 l 258
 1253.78 1306.91 1261.01 1329.37 1261.01 1350.27 c 256
 1261.01 1402.54 1215.8 1445.08 1161.57 1445.08 c 256
 1127.62 1445.08 1090.14 1428.41 1058 1387 c 258
 680.309 896.765 l 257
 312 1390 l 258
 284.39 1426.81 250.326 1441.77 217.375 1441.77 c 256
 153.31 1441.77 93.4591 1385.23 93.4591 1322.84 c 256
 93.4591 1302.25 99.9734 1281.04 115 1261 c 258
 521.613 717.517 l 257
 89 165 l 258
 69.3715 140.11 61.0446 115.302 61.0446 92.5983 c 256
 61.0446 36.5554 111.78 -6.66978 168.513 -6.66978 c 256
 202.377 -6.66978 238.378 8.73118 267 46 c 258
 649.786 546.199 l 257
 1030 38 l 258
EndSplineSet
EndChar

StartChar: Y
Encoding: 89 89 124
Width: 1297
VWidth: 0
GlyphClass: 2
Flags: W
PickledData: "(dp1
S'b'
(dp2
sS'anchors'
p3
(tsS'com.typemytype.robofont.layerData'
p4
(dp5
S'b'
(dp6
S'name'
p7
S'Y'
sS'lib'
p8
(dp9
sS'unicodes'
p10
(tsS'width'
p11
I1278
sS'contours'
p12
((dp13
S'points'
p14
((dp15
S'segmentType'
p16
S'curve'
p17
sS'x'
I641
sS'smooth'
p18
I1
sS'y'
I0
s(dp19
S'y'
I0
sS'x'
I685
sg18
I0
s(dp20
S'y'
I29
sS'x'
I730
sg18
I0
s(dp21
g16
S'curve'
p22
sS'x'
I730
sg18
I1
sS'y'
I85
s(dp23
g16
S'line'
p24
sS'x'
I730
sg18
I0
sS'y'
I1285
s(dp25
g16
S'line'
p26
sS'x'
I1115
sg18
I1
sS'y'
I1285
s(dp27
S'y'
I1285
sS'x'
I1164
sg18
I0
s(dp28
S'y'
I1319
sS'x'
I1190
sg18
I0
s(dp29
g16
S'curve'
p30
sS'x'
I1190
sg18
I1
sS'y'
I1355
s(dp31
S'y'
I1392
sS'x'
I1190
sg18
I0
s(dp32
S'y'
I1426
sS'x'
I1166
sg18
I0
s(dp33
g16
S'curve'
p34
sS'x'
I1115
sg18
I1
sS'y'
I1426
s(dp35
g16
S'line'
p36
sS'x'
I160
sg18
I1
sS'y'
I1426
s(dp37
S'y'
I1426
sS'x'
I111
sg18
I0
s(dp38
S'y'
I1392
sS'x'
I86
sg18
I0
s(dp39
g16
S'curve'
p40
sS'x'
I86
sg18
I1
sS'y'
I1355
s(dp41
S'y'
I1319
sS'x'
I86
sg18
I0
s(dp42
S'y'
I1285
sS'x'
I111
sg18
I0
s(dp43
g16
S'curve'
p44
sS'x'
I160
sg18
I1
sS'y'
I1285
s(dp45
g16
S'line'
p46
sS'x'
I552
sg18
I0
sS'y'
I1285
s(dp47
g16
S'line'
p48
sS'x'
I552
sg18
I1
sS'y'
I85
s(dp49
S'y'
I29
sS'x'
I552
sg18
I0
s(dp50
S'y'
I0
sS'x'
I596
sg18
I0
stp51
stp52
sS'components'
p53
(tsg3
(tsssg10
(tsg7
S'Y'
sg11
I1321
sg12
(tsg53
(tsg8
(dp54
sS'com.typemytype.robofont.guides'
p55
(ts."
AnchorPoint: "top" 661 1438 basechar 0
LayerCount: 2
Fore
SplineSet
522 121 m 258
 522 40.5 584 0.5 646 0.5 c 256
 708 0.5 770 40.5 770 120 c 258
 770 595 l 257
 1209 1288 l 258
 1221.75 1308.2 1227.26 1327.49 1227.26 1345.1 c 256
 1227.26 1398.96 1175.7 1437.05 1121.92 1437.05 c 256
 1087.07 1437.05 1051.29 1421.06 1028 1383 c 258
 659 780 l 257
 300 1370 l 258
 272.511 1415.18 233.741 1433.31 195.865 1433.31 c 256
 131.79 1433.31 70.2746 1381.43 70.2746 1320.89 c 256
 70.2746 1303.95 75.0865 1286.34 86 1269 c 258
 522 586 l 257
 522 121 l 258
EndSplineSet
EndChar

StartChar: Z
Encoding: 90 90 129
Width: 1190
VWidth: 0
GlyphClass: 2
Flags: W
PickledData: "(dp1
S'b'
(dp2
sS'anchors'
p3
(tsS'lib'
p4
(dp5
sS'unicodes'
p6
(tsS'width'
p7
I1222
sS'contours'
p8
(tsS'components'
p9
(tsS'com.typemytype.robofont.layerData'
p10
(dp11
S'b'
(dp12
S'name'
p13
S'Z'
sg4
(dp14
sg6
(tsg7
I1165
sg8
((dp15
S'points'
p16
((dp17
S'segmentType'
p18
S'curve'
p19
sS'x'
I266
sS'smooth'
p20
I1
sS'y'
I0
s(dp21
g18
S'line'
p22
sS'x'
I1035
sg20
I1
sS'y'
I0
s(dp23
S'y'
I0
sS'x'
I1084
sg20
I0
s(dp24
S'y'
I34
sS'x'
I1108
sg20
I0
s(dp25
g18
S'curve'
p26
sS'x'
I1108
sg20
I1
sS'y'
I71
s(dp27
S'y'
I107
sS'x'
I1108
sg20
I0
s(dp28
S'y'
I141
sS'x'
I1084
sg20
I0
s(dp29
g18
S'curve'
p30
sS'x'
I1035
sg20
I1
sS'y'
I141
s(dp31
g18
S'line'
p32
sS'x'
I356
sg20
I0
sS'y'
I141
s(dp33
g18
S'line'
p34
sS'x'
I356
sg20
I0
sS'y'
I665
s(dp35
g18
S'line'
p36
sS'x'
I975
sg20
I1
sS'y'
I665
s(dp37
S'y'
I665
sS'x'
I1024
sg20
I0
s(dp38
S'y'
I698
sS'x'
I1049
sg20
I0
s(dp39
g18
S'curve'
p40
sS'x'
I1049
sg20
I1
sS'y'
I734
s(dp41
S'y'
I770
sS'x'
I1049
sg20
I0
s(dp42
S'y'
I803
sS'x'
I1026
sg20
I0
s(dp43
g18
S'curve'
p44
sS'x'
I975
sg20
I1
sS'y'
I803
s(dp45
g18
S'line'
p46
sS'x'
I356
sg20
I0
sS'y'
I803
s(dp47
g18
S'line'
p48
sS'x'
I356
sg20
I0
sS'y'
I1285
s(dp49
g18
S'line'
p50
sS'x'
I1007
sg20
I1
sS'y'
I1285
s(dp51
S'y'
I1285
sS'x'
I1056
sg20
I0
s(dp52
S'y'
I1319
sS'x'
I1080
sg20
I0
s(dp53
g18
S'curve'
p54
sS'x'
I1080
sg20
I1
sS'y'
I1356
s(dp55
S'y'
I1392
sS'x'
I1080
sg20
I0
s(dp56
S'y'
I1426
sS'x'
I1056
sg20
I0
s(dp57
g18
S'curve'
p58
sS'x'
I1007
sg20
I1
sS'y'
I1426
s(dp59
g18
S'line'
p60
sS'x'
I261
sg20
I1
sS'y'
I1426
s(dp61
S'y'
I1426
sS'x'
I213
sg20
I0
s(dp62
S'y'
I1383
sS'x'
I178
sg20
I0
s(dp63
g18
S'curve'
p64
sS'x'
I178
sg20
I1
sS'y'
I1340
s(dp65
g18
S'line'
p66
sS'x'
I178
sg20
I1
sS'y'
I86
s(dp67
S'y'
I41
sS'x'
I178
sg20
I0
s(dp68
S'y'
I0
sS'x'
I222
sg20
I0
stp69
stp70
sg9
(tsg3
(tsssg13
S'Z'
s."
AnchorPoint: "top" 644 1438 basechar 0
LayerCount: 2
Fore
SplineSet
208 0 m 258
 1042 0 l 258
 1105 0 1136 52 1136 99 c 256
 1136 146 1105 197 1042 197 c 258
 381 197 l 257
 1116 1256 l 258
 1135 1283 1142 1308 1142 1334 c 256
 1142 1391 1100 1436 1032 1436 c 258
 190 1436 l 258
 126 1436 96 1385 96 1338 c 256
 96 1291 127 1238 190 1238 c 258
 841 1238 l 257
 109 180 l 258
 93 156 84 131 84 105 c 256
 84 50 122 0 208 0 c 258
EndSplineSet
EndChar

StartChar: a
Encoding: 97 97 133
Width: 1062
VWidth: 0
GlyphClass: 2
Flags: W
PickledData: "(dp1
S'b'
(dp2
sS'anchors'
p3
(tsS'lib'
p4
(dp5
sS'unicodes'
p6
(tsS'width'
p7
I1101
sS'contours'
p8
(tsS'components'
p9
(tsS'com.typemytype.robofont.layerData'
p10
(dp11
S'b'
(dp12
S'name'
p13
S'a'
sg4
(dp14
sg6
(tsg7
I1040
sg8
(tsg9
(tsg3
(tsssg13
S'a'
s."
AnchorPoint: "ogonek" 798 24 basechar 0
AnchorPoint: "top" 546 999 basechar 0
LayerCount: 2
Fore
SplineSet
422 -14 m 256
 600 -14 675 85 712 158 c 257
 712 104 l 258
 712 34.6246 765.558 -0.125336 819.211 -0.125336 c 256
 873.057 -0.125336 927 34.8746 927 105 c 258
 927 653 l 258
 927 912 758 1013 526 1013 c 256
 359 1013 243 974 159 932 c 256
 132.539 919.415 121.594 897.459 121.594 874.565 c 256
 121.594 834.213 155.595 790.949 198.578 790.949 c 256
 206.783 790.949 215.315 792.526 224 796 c 256
 290 822 394 866 517 866 c 256
 638 866 707 809 707 670 c 258
 707 582 l 257
 261 582 69 556 69 274 c 256
 69 83 224 -14 422 -14 c 256
441 129 m 256
 348.639 129 276.99 172.398 276.99 283.682 c 256
 276.99 438.298 369.448 458 706 458 c 257
 706 432 l 258
 706 249 575 129 441 129 c 256
EndSplineSet
EndChar

StartChar: acute
Encoding: 180 180 137
Width: 569
VWidth: 0
GlyphClass: 4
Flags: W
AnchorPoint: "top" 116 1040 mark 0
LayerCount: 2
Fore
SplineSet
105 1201 m 256
 121 1201 136 1208 151 1220 c 258
 462 1469 l 258
 483 1486 494 1507 494 1529 c 256
 494 1584 437 1633 385 1633 c 256
 356 1633 333 1615 312 1588 c 258
 71 1292 l 258
 60 1278 55 1264 55 1251 c 256
 55 1221 77 1201 105 1201 c 256
EndSplineSet
EndChar

StartChar: ae
Encoding: 230 230 139
Width: 1727
VWidth: 0
GlyphClass: 2
Flags: W
PickledData: "(dp1
S'com.typemytype.robofont.layerData'
p2
(dp3
S'b'
(dp4
S'name'
p5
S'ae'
p6
sS'lib'
p7
(dp8
sS'unicodes'
p9
(tsS'width'
p10
I1734
sS'contours'
p11
(tsS'components'
p12
(tsS'anchors'
p13
(tsss."
AnchorPoint: "top" 868 1009 basechar 0
LayerCount: 2
Fore
SplineSet
425 -25 m 256
 588 -25 749 37 824 184 c 257
 894 58 1011 -25 1175 -25 c 256
 1379 -25 1586 62 1586 167 c 256
 1586 201 1563 232 1529 232 c 256
 1518 232 1506 228 1493 221 c 256
 1422 181 1329 134 1222 134 c 256
 1020 134 948 274 945 458 c 257
 1559 458 l 258
 1606 458 1628 493 1628 528 c 256
 1622 813 1487 1026 1191 1026 c 256
 1045 1026 932 960 856 858 c 257
 802 974 693 1025 536 1025 c 256
 352 1025 215 979 148 886 c 256
 138 873 133 860 133 846 c 256
 133 811 162 779 200 779 c 256
 211 779 221 781 231 787 c 256
 310 828 391 865 525 865 c 256
 648 865 729 820 729 681 c 258
 729 610 l 257
 698 611 654 612 625 613 c 256
 284 613 64 521 64 275 c 256
 64 85 212 -25 425 -25 c 256
467 114 m 257
 358 117 271 171 271 287 c 256
 271 489 545 481 728 482 c 257
 728 399 l 257
 722 212 612 117 467 114 c 257
946 586 m 257
 958 750 1041 882 1193 882 c 256
 1345 882 1419 764 1430 586 c 257
 946 586 l 257
EndSplineSet
EndChar

StartChar: ampersand
Encoding: 38 38 144
Width: 1540
VWidth: 0
GlyphClass: 2
Flags: W
LayerCount: 2
Fore
SplineSet
643 -27 m 256
 850 -27 983 52 1094 172 c 257
 1242 15 l 258
 1260 -5 1280 -14 1301 -14 c 256
 1356 -14 1419 45 1419 100 c 256
 1419 118 1412 134 1396 153 c 257
 1247 311 l 257
 1359.94 492.897 1404.06 742.657 1404.06 856.183 c 256
 1404.06 908.255 1356.05 939 1309 939 c 256
 1268 939 1224 923 1216 874 c 257
 1209 732 1172 579 1107 451 c 257
 747 834 l 257
 891 937 1006 1059 1006 1227 c 256
 1006 1415 859 1504 654 1504 c 256
 652.964 1504.01 651.928 1504.01 650.892 1504.01 c 256
 450.964 1504.01 255 1408.02 255 1219 c 256
 255 1075 344 966 445 861 c 257
 253 757 88 632 88 402 c 256
 88 126 317 -27 643 -27 c 256
648 148 m 256
 480 148 318 245 318 428 c 256
 318 547 428 640 576 718 c 257
 970 293 l 257
 899 211 787 148 648 148 c 256
618 962 m 257
 548 1030 467 1132 467 1222 c 256
 467 1318 552 1359 638 1359 c 256
 721 1359 806 1313 806 1222 c 256
 806 1114 699 1037 618 962 c 257
EndSplineSet
EndChar

StartChar: uni02BC
Encoding: 700 700 146
Width: 600
VWidth: 0
GlyphClass: 4
Flags: W
AnchorPoint: "top.2" 246 -47 mark 0
LayerCount: 2
Fore
SplineSet
173 35 m 258
 247 35 l 258
 248.104 34.9619 249.189 34.9427 250.256 34.9427 c 256
 277.211 34.9427 292.419 47.2183 303 78 c 258
 472 561 l 258
 473.488 565.167 474.799 571.549 474.799 578.537 c 256
 474.799 595.027 467.499 614.893 438 617 c 257
 306 617 l 257
 274 616 241 608 233 561 c 258
 149 78 l 258
 148.484 74.9016 147.967 70.6032 147.967 65.9139 c 256
 147.967 52.4414 152.23 35.7418 173 35 c 258
EndSplineSet
EndChar

StartChar: approxequal
Encoding: 8776 8776 147
Width: 1197
VWidth: 0
GlyphClass: 2
Flags: W
LayerCount: 2
Fore
SplineSet
798 279 m 256
 900 279 987 349 987 482 c 256
 987 523 948 552 913 552 c 256
 818 552 846 451 791 451 c 256
 725 451 481 552 359 552 c 256
 283 552 166 497 166 349 c 256
 166 311 197 282 236 282 c 256
 252 282 269 283 282 294 c 256
 339 336 328 381 380 381 c 256
 452 376 687 279 798 279 c 256
798 677 m 256
 900 677 987 746 987 880 c 256
 987 921 948 950 913 950 c 256
 818 950 846 848 791 848 c 256
 725 848 481 950 359 950 c 256
 283 950 166 894 166 746 c 256
 166 708 197 680 236 680 c 256
 252 680 269 681 282 691 c 256
 339 734 328 779 380 779 c 256
 452 774 687 677 798 677 c 256
EndSplineSet
EndChar

StartChar: asciicircum
Encoding: 94 94 149
Width: 1319
VWidth: 0
GlyphClass: 2
Flags: W
LayerCount: 2
Fore
SplineSet
259 510 m 256
 294 510 323 534 343 578 c 257
 665 1227 l 257
 986 578 l 258
 1007 537 1034 511 1070 511 c 256
 1115 511 1154 542 1154 588 c 256
 1154 603 1146 624 1138 642 c 257
 780 1344 l 258
 751 1400 715 1431 665 1431 c 256
 613 1431 576 1394 551 1344 c 258
 192 642 l 258
 183 624 175 603 175 588 c 256
 175 540 215 510 259 510 c 256
EndSplineSet
EndChar

StartChar: asciitilde
Encoding: 126 126 150
Width: 1320
VWidth: 0
GlyphClass: 2
Flags: W
LayerCount: 2
Fore
SplineSet
776 1162 m 256
 876 1162 931 1217 955 1311 c 256
 955.822 1315.66 956.212 1320.19 956.212 1324.56 c 256
 956.212 1360.07 930.504 1385.38 901.059 1385.38 c 256
 881.15 1385.38 859.534 1373.81 843 1346 c 256
 827 1319 808 1303 781 1303 c 256
 717 1303 624 1384 516 1384 c 256
 422 1384 365 1334 336 1240 c 256
 333.72 1232.54 332.675 1225.59 332.675 1219.19 c 256
 332.675 1186.69 359.634 1168.32 388.605 1168.32 c 256
 408.962 1168.32 430.313 1177.39 444 1197 c 256
 466 1229 489 1245 520 1245 c 256
 588 1245 682 1162 776 1162 c 256
EndSplineSet
EndChar

StartChar: asterisk
Encoding: 42 42 151
Width: 1046
VWidth: 0
GlyphClass: 2
Flags: W
LayerCount: 2
Fore
SplineSet
422 800 m 258
 521 981 l 257
 623 800 l 258
 638.455 771.989 660.855 760.253 682.357 760.253 c 256
 715.581 760.253 746.661 788.273 746.661 827.568 c 256
 746.661 841.827 742.568 857.571 733 874 c 258
 631 1040 l 257
 849 1033 l 257
 894 1033 916.5 1065.75 916.5 1098.5 c 256
 916.5 1131.25 894 1164 849 1164 c 257
 632 1157 l 257
 740 1331 l 258
 747.851 1344.14 751.274 1357.4 751.274 1369.89 c 256
 751.274 1407.37 720.48 1437.98 685.985 1437.98 c 256
 664.593 1437.98 641.777 1426.21 624 1397 c 257
 521 1211 l 257
 418 1401 l 258
 403.323 1426.61 381.821 1437.29 360.77 1437.29 c 256
 326.251 1437.29 292.946 1408.56 292.946 1369.75 c 256
 292.946 1356.43 296.865 1341.93 306 1327 c 258
 411 1157 l 257
 197 1164 l 257
 152.126 1164 129.874 1131.43 129.874 1098.77 c 256
 129.874 1065.93 152.376 1033 197 1033 c 257
 413 1040 l 257
 306 866 l 258
 297.397 852.407 293.679 838.844 293.679 826.167 c 256
 293.679 788.754 326.06 759.052 360.845 759.052 c 256
 382.78 759.052 405.67 770.863 422 800 c 258
EndSplineSet
EndChar

StartChar: at
Encoding: 64 64 152
Width: 1638
VWidth: 0
GlyphClass: 2
Flags: W
LayerCount: 2
Fore
SplineSet
809 -27 m 256
 911 -27 1017 -11 1128 22 c 256
 1156 30 1169 54 1169 78 c 256
 1169 108 1147 139 1107 139 c 256
 1098 139 1089 138 1081 135 c 256
 995 108 909 96 825 96 c 256
 491 96 202 304 202 722 c 256
 202 1145 566 1385 895 1385 c 256
 1165 1385 1411 1222 1411 864 c 256
 1411 635 1269 421 1130 421 c 256
 1092 421 1078 440 1078 472 c 256
 1078 499 1088 536 1102 583 c 258
 1244 1055 l 258
 1247 1064 1248 1072 1248 1079 c 256
 1248 1119 1215 1140 1180 1140 c 256
 1145 1140 1114 1122 1102 1084 c 258
 1093 1055 l 257
 1047 1143 956 1186 860 1186 c 256
 571 1186 378 884 378 616 c 256
 378 441 489 294 676 294 c 256
 793 294 877 342 941 432 c 257
 945 340 1028 298 1098 298 c 256
 1304 298 1558 549 1558 876 c 256
 1558 1309 1237 1511 893 1511 c 256
 489 1511 52 1235 52 733 c 256
 52 256 378 -27 809 -27 c 256
719 429 m 256
 598.684 429 557.976 515.003 557.976 640.244 c 256
 557.976 815.753 680.475 1047 863 1047 c 256
 1004 1047 1054 927 1054 927 c 257
 962 605 l 257
 931 507 833 429 719 429 c 256
EndSplineSet
EndChar

StartChar: b
Encoding: 98 98 154
Width: 1207
VWidth: 0
GlyphClass: 2
Flags: W
PickledData: "(dp1
S'b'
(dp2
sS'anchors'
p3
(tsS'lib'
p4
(dp5
sS'unicodes'
p6
(tsS'width'
p7
I1203
sS'contours'
p8
(tsS'components'
p9
(tsS'com.typemytype.robofont.layerData'
p10
(dp11
S'b'
(dp12
S'name'
p13
S'b'
sg4
(dp14
sg6
(tsg7
I1181
sg8
((dp15
S'points'
p16
((dp17
S'segmentType'
p18
S'curve'
p19
sS'x'
I238
sS'smooth'
p20
I1
sS'y'
I1425
s(dp21
S'y'
I1425
sS'x'
I198
sg20
I0
s(dp22
S'y'
I1400
sS'x'
I158
sg20
I0
s(dp23
g18
S'curve'
p24
sS'x'
I158
sg20
I1
sS'y'
I1351
s(dp25
g18
S'line'
p26
sS'x'
I158
sg20
I1
sS'y'
I76
s(dp27
S'y'
I27
sS'x'
I158
sg20
I0
s(dp28
S'y'
I3
sS'x'
I197
sg20
I0
s(dp29
g18
S'curve'
p30
sS'x'
I237
sg20
I1
sS'y'
I3
s(dp31
S'y'
I3
sS'x'
I297
sg20
I0
s(dp32
S'y'
I38
sS'x'
I318
sg20
I0
s(dp33
g18
S'curve'
p34
sS'x'
I318
sg20
I1
sS'y'
I76
s(dp35
g18
S'line'
p36
sS'x'
I318
sg20
I0
sS'y'
I183
s(dp37
S'y'
I46
sS'x'
I384
sg20
I0
s(dp38
S'y'
S'-20'
p39
sS'x'
I516
sg20
I0
s(dp40
g18
S'curve'
p41
sS'x'
I666
sg20
I1
sS'y'
S'-20'
p42
s(dp43
S'y'
S'-20'
p44
sS'x'
I957
sg20
I0
s(dp45
S'y'
I225
sS'x'
I1095
sg20
I0
s(dp46
g18
S'curve'
p47
sS'x'
I1095
sg20
I1
sS'y'
I502
s(dp48
S'y'
I777
sS'x'
I1095
sg20
I0
s(dp49
S'y'
I1013
sS'x'
I939
sg20
I0
s(dp50
g18
S'curve'
p51
sS'x'
I650
sg20
I1
sS'y'
I1013
s(dp52
S'y'
I1013
sS'x'
I503
sg20
I0
s(dp53
S'y'
I942
sS'x'
I376
sg20
I0
s(dp54
g18
S'curve'
p55
sS'x'
I318
sg20
I0
sS'y'
I814
s(dp56
g18
S'line'
p57
sS'x'
I318
sg20
I1
sS'y'
I1351
s(dp58
S'y'
I1400
sS'x'
I318
sg20
I0
s(dp59
S'y'
I1425
sS'x'
I278
sg20
I0
stp60
s(dp61
g16
((dp62
g18
S'curve'
p63
sS'x'
I632
sg20
I1
sS'y'
I903
s(dp64
S'y'
I903
sS'x'
I859
sg20
I0
s(dp65
S'y'
I685
sS'x'
I935
sg20
I0
s(dp66
g18
S'curve'
p67
sS'x'
I935
sg20
I1
sS'y'
I496
s(dp68
S'y'
I316
sS'x'
I935
sg20
I0
s(dp69
S'y'
I93
sS'x'
I869
sg20
I0
s(dp70
g18
S'curve'
p71
sS'x'
I645
sg20
I0
sS'y'
I90
s(dp72
S'y'
I90
sS'x'
I395
sg20
I0
s(dp73
S'y'
I279
sS'x'
I319
sg20
I0
s(dp74
g18
S'curve'
p75
sS'x'
I319
sg20
I1
sS'y'
I501
s(dp76
S'y'
I701
sS'x'
I319
sg20
I0
s(dp77
S'y'
I903
sS'x'
I407
sg20
I0
stp78
stp79
sg9
(tsg3
(tsssg13
S'b'
s."
LayerCount: 2
Fore
SplineSet
693 -14 m 256
 975 -14 1125 231 1125 506 c 256
 1125 805 957 1013 679 1013 c 256
 533 1013 426 958 360 848 c 257
 360 1333 l 258
 360 1401 305 1435 250 1435 c 256
 195 1435 140 1401 140 1333 c 258
 140 106 l 258
 140 37 197 1 251 1 c 256
 315 1 360 32 360 106 c 258
 360 161 l 257
 428 40 545 -14 693 -14 c 256
643 135 m 256
 428 135 361 277 361 503 c 256
 361 684 436 865 639 865 c 256
 843 865 906 671 906 505 c 256
 906 347 848 135 643 135 c 256
EndSplineSet
EndChar

StartChar: backslash
Encoding: 92 92 155
Width: 618
VWidth: 0
GlyphClass: 2
Flags: W
LayerCount: 2
Fore
SplineSet
548 -92 m 256
 589 -92 630 -64 630 -16 c 256
 630 -7 628 3 625 14 c 258
 150 1444 l 258
 136 1484 104 1501 70 1501 c 256
 29 1501 -13 1473 -13 1425 c 256
 -13 1416 -11 1405 -7 1393 c 258
 471 -36 l 258
 485 -76 516 -92 548 -92 c 256
EndSplineSet
EndChar

StartChar: bar
Encoding: 124 124 156
Width: 455
VWidth: 0
GlyphClass: 2
Flags: W
LayerCount: 2
Fore
SplineSet
227 -374 m 256
 268 -374 309 -346 309 -292 c 258
 309 1403 l 258
 309 1457 269 1484 228 1484 c 256
 187 1484 146 1457 146 1403 c 258
 146 -292 l 258
 146 -346 186 -374 227 -374 c 256
EndSplineSet
EndChar

StartChar: braceleft
Encoding: 123 123 157
Width: 682
VWidth: 0
GlyphClass: 2
Flags: W
LayerCount: 2
Fore
SplineSet
451 -223 m 258
 582 -223 l 258
 636 -223 658 -188 661 -145 c 256
 661 -93 634 -58 584 -58 c 258
 536 -58 l 258
 461 -58 447 6 447 114 c 258
 447 363 l 258
 447 545 324 613 288 626 c 257
 328 640 447 687 447 900 c 258
 447 1137 l 258
 447 1251 463 1313 534 1313 c 258
 578 1313 l 258
 631 1313 660 1348 660 1396 c 256
 660 1453 624 1479 578 1479 c 258
 451 1479 l 258
 322 1479 233 1369 233 1242 c 258
 233 937 l 258
 233 797 207 724 97 713 c 256
 38 710 10 672 10 625 c 256
 10 572 46 540 97 538 c 256
 211 527 233 450 233 316 c 258
 233 10 l 258
 233 -135 342 -223 451 -223 c 258
EndSplineSet
EndChar

StartChar: braceright
Encoding: 125 125 158
Width: 682
VWidth: 0
GlyphClass: 2
Flags: W
LayerCount: 2
Fore
SplineSet
98 -223 m 258
 230 -223 l 258
 352 -223 447 -121 447 14 c 258
 447 316 l 258
 447 456 472 529 589 539 c 257
 642 539 670 582 670 625 c 256
 670 680 633 711 584 713 c 256
 470 724 447 801 447 937 c 258
 447 1246 l 258
 447 1389 338 1479 230 1479 c 258
 98 1479 l 258
 44 1479 19 1441 19 1397 c 256
 19 1344 53 1313 102 1313 c 258
 147 1313 l 258
 218 1313 233 1245 233 1142 c 258
 233 890 l 258
 233 712 367 651 392 626 c 257
 349 609 233 541 233 363 c 258
 233 105 l 258
 233 0 215 -58 149 -58 c 258
 98 -58 l 258
 43 -58 19 -98 19 -141 c 256
 19 -190 49 -223 98 -223 c 258
EndSplineSet
EndChar

StartChar: bracketleft
Encoding: 91 91 159
Width: 677
VWidth: 0
GlyphClass: 2
Flags: W
LayerCount: 2
Fore
SplineSet
277 -217 m 258
 493 -217 l 257
 547 -214 574 -175 574 -135 c 256
 574 -94 547 -55 493 -55 c 258
 382 -55 l 257
 382 1275 l 257
 493 1275 l 258
 546 1275 574 1316 574 1355 c 256
 574 1397 547 1436 493 1436 c 258
 277 1436 l 258
 217 1436 171 1388 171 1331 c 258
 171 -113 l 258
 171 -170 217 -217 277 -217 c 258
EndSplineSet
EndChar

StartChar: bracketright
Encoding: 93 93 160
Width: 677
VWidth: 0
GlyphClass: 2
Flags: W
LayerCount: 2
Fore
SplineSet
183 -217 m 257
 399 -217 l 258
 459 -217 505 -170 505 -113 c 258
 505 1331 l 258
 505 1388 459 1436 399 1436 c 258
 183 1436 l 258
 130 1436 103 1397 103 1355 c 256
 103 1316 130 1275 183 1275 c 258
 294 1275 l 257
 294 -55 l 257
 183 -55 l 258
 130 -55 103 -94 103 -135 c 256
 103 -175 129 -214 183 -217 c 257
EndSplineSet
EndChar

StartChar: breve
Encoding: 728 728 161
Width: 569
VWidth: 0
GlyphClass: 4
Flags: W
AnchorPoint: "top" 285 1040 mark 0
LayerCount: 2
Fore
SplineSet
285 1223 m 256
 420 1223 525 1283 572 1389 c 256
 578 1403 579 1414 580 1425 c 256
 580 1463 549 1485 516 1485 c 256
 490 1485 466 1473 451 1447 c 256
 410 1388 369 1367 285 1367 c 256
 201 1367 160 1388 119 1447 c 256
 104 1473 80 1485 54 1485 c 256
 21 1485 -10 1463 -10 1425 c 256
 -10 1414 -7 1402 -2 1389 c 256
 45 1283 150 1223 285 1223 c 256
EndSplineSet
EndChar

StartChar: uni0311
Encoding: 785 785 162
Width: 569
VWidth: 0
GlyphClass: 4
Flags: W
AnchorPoint: "top" 286 1040 mark 0
LayerCount: 2
Fore
SplineSet
40 1255 m 256
 61 1255 79 1265 94 1285 c 256
 141 1353 187 1377 285 1377 c 256
 383 1377 427 1353 476 1285 c 256
 491 1265 509 1255 530 1255 c 256
 560 1255 585 1274 585 1305 c 256
 585 1313 583 1322 578 1333 c 256
 531 1439 426 1502 285 1502 c 256
 144 1502 39 1439 -8 1333 c 256
 -13 1322 -15 1313 -15 1305 c 256
 -15 1274 10 1255 40 1255 c 256
EndSplineSet
EndChar

StartChar: brokenbar
Encoding: 166 166 163
Width: 455
VWidth: 0
GlyphClass: 2
Flags: W
LayerCount: 2
Fore
SplineSet
223 -48 m 256
 268 -48 305 -17 305 37 c 258
 305 599 l 258
 305 654 268 684 224 684 c 256
 181 684 143 656 143 603 c 258
 143 37 l 258
 143 -19 180 -48 223 -48 c 256
225 843 m 256
 269 843 307 874 307 928 c 258
 307 1459 l 258
 307 1513 270 1544 226 1544 c 256
 183 1544 144 1515 144 1462 c 258
 144 928 l 258
 144 872 181 843 225 843 c 256
EndSplineSet
EndChar

StartChar: bullet
Encoding: 8226 8226 164
Width: 1024
VWidth: 0
GlyphClass: 2
Flags: W
LayerCount: 2
Fore
SplineSet
511 359 m 256
 716 359 882 522 882 716 c 256
 882 915 716 1075 511 1075 c 256
 308 1075 142 915 142 716 c 256
 142 522 308 359 511 359 c 256
EndSplineSet
EndChar

StartChar: c
Encoding: 99 99 165
Width: 964
VWidth: 0
GlyphClass: 2
Flags: W
PickledData: "(dp1
S'b'
(dp2
sS'anchors'
p3
(tsS'lib'
p4
(dp5
sS'unicodes'
p6
(tsS'width'
p7
I992
sS'contours'
p8
(tsS'components'
p9
(tsS'com.typemytype.robofont.layerData'
p10
(dp11
S'b'
(dp12
S'name'
p13
S'c'
sg4
(dp14
sg6
(tsg7
F956.14099999999996
sg8
(tsg9
(tsg3
(tsssg13
S'c'
s."
AnchorPoint: "bot" 527 2 basechar 0
AnchorPoint: "top" 576 1011 basechar 0
LayerCount: 2
Fore
SplineSet
571 -14 m 256
 728 -14 827 32 877 75 c 256
 902.591 96.6773 913.135 121.165 913.135 143.222 c 256
 913.135 179.391 884.785 209.026 847.937 209.026 c 256
 832.618 209.026 815.83 203.904 799 192 c 256
 752 158 679 135 588 135 c 256
 405 135 300 287 300 501 c 256
 300 715 410 866 594 866 c 256
 659 866 726 847 779 818 c 256
 794.694 809.341 810.161 805.564 824.425 805.564 c 256
 864.167 805.564 894.577 834.889 894.577 869.67 c 256
 894.577 891.606 882.481 915.712 853 936 c 256
 803 971 709 1013 576 1013 c 256
 276 1013 81 779 81 500 c 256
 81 218 269 -14 571 -14 c 256
EndSplineSet
EndChar

StartChar: caron
Encoding: 711 711 167
Width: 569
VWidth: 0
GlyphClass: 4
Flags: W
AnchorPoint: "top" 285 1040 mark 0
LayerCount: 2
Fore
SplineSet
284 1117 m 256
 318 1117 354 1136 382 1174 c 258
 572 1432 l 258
 584 1449 591 1467 591 1483 c 256
 591 1521 561 1548 524 1548 c 256
 498 1548 471 1535 448 1504 c 258
 284 1284 l 257
 120 1504 l 258
 96 1536 67 1548 41 1548 c 256
 4 1548 -27 1522 -27 1485 c 256
 -27 1468 -20 1452 -6 1433 c 258
 185 1174 l 257
 214 1138 248 1117 284 1117 c 256
EndSplineSet
EndChar

StartChar: caron.alt
Encoding: 65536 -1 168
Width: 624
VWidth: 0
GlyphClass: 4
Flags: W
AnchorPoint: "caron.alt" -34 305 mark 0
LayerCount: 2
Fore
SplineSet
265 300 m 258
 333 300 l 258
 334.104 299.962 335.189 299.943 336.256 299.943 c 256
 363.211 299.943 378.419 312.218 389 343 c 258
 540 766 l 258
 541.488 770.167 542.799 776.549 542.799 783.537 c 256
 542.799 800.027 535.499 819.893 506 822 c 257
 386 822 l 257
 354 821 321 813 313 766 c 258
 241 343 l 258
 240.484 339.902 239.967 335.603 239.967 330.914 c 256
 239.967 317.441 244.23 300.742 265 300 c 258
EndSplineSet
EndChar

StartChar: cedilla
Encoding: 184 184 173
Width: 569
VWidth: 0
GlyphClass: 4
Flags: W
AnchorPoint: "bot" 281 0 mark 0
LayerCount: 2
Fore
SplineSet
287 -415 m 256
 393 -415 499 -365 501 -258 c 256
 501 -144 417 -107 322 -106 c 256
 310 -106 296 -107 280 -108 c 257
 320 5 l 257
 240 5 l 257
 191 -125 l 258
 187 -134 186 -142 186 -149 c 256
 186 -170 201 -184 230 -184 c 257
 251 -181 l 257
 302 -181 355 -200 355 -252 c 256
 355 -303 330 -333 257 -333 c 256
 200 -333 146 -315 98 -299 c 256
 93 -297 90 -296 87 -296 c 256
 65 -296 52 -316 52 -337 c 256
 52 -388 177 -415 287 -415 c 256
EndSplineSet
EndChar

StartChar: cent
Encoding: 162 162 174
Width: 1043
VWidth: 0
GlyphClass: 2
Flags: W
PickledData: "(dp1
S'com.typemytype.robofont.layerData'
p2
(dp3
S'b'
(dp4
S'name'
p5
S'cent'
p6
sS'lib'
p7
(dp8
sS'unicodes'
p9
(tsS'width'
p10
I1046
sS'contours'
p11
(tsS'components'
p12
(tsS'anchors'
p13
(tsss."
LayerCount: 2
Fore
SplineSet
570 -266 m 256
 602 -266 633 -245 633 -202 c 258
 633 66 l 257
 505 66 l 257
 505 -202 l 258
 505 -244 537 -266 570 -266 c 256
505 950 m 257
 633 950 l 257
 633 1219 l 258
 633 1262 602 1282 570 1282 c 256
 537 1282 505 1261 505 1219 c 258
 505 950 l 257
EndSplineSet
Refer: 165 99 N 1 0 0 1 0 0 2
EndChar

StartChar: circumflex
Encoding: 710 710 175
Width: 569
VWidth: 0
GlyphClass: 4
Flags: W
AnchorPoint: "top" 294 1040 mark 0
LayerCount: 2
Fore
SplineSet
41 1131 m 256
 66 1131 95 1144 120 1175 c 257
 285 1395 l 257
 448 1175 l 258
 471 1144 501 1132 525 1132 c 256
 563 1132 592 1159 592 1195 c 256
 592 1211 586 1227 572 1247 c 258
 383 1505 l 257
 352 1543 318 1561 284 1561 c 256
 248 1561 215 1542 185 1505 c 257
 -5 1246 l 258
 -19.0625 1228.19 -26.0938 1212.13 -26.0938 1196.19 c 256
 -26.0938 1157.98 1.04227 1131 41 1131 c 256
EndSplineSet
EndChar

StartChar: colon
Encoding: 58 58 176
Width: 610
VWidth: 0
GlyphClass: 2
Flags: W
LayerCount: 2
Fore
SplineSet
305 -3 m 256
 384 -3 437 56 437 121 c 256
 437 189 381 245 305 245 c 256
 224 245 172 185 172 121 c 256
 172 54 227 -3 305 -3 c 256
305 773 m 256
 385 773 437 831 437 897 c 256
 437 965 381 1021 305 1021 c 256
 224 1021 172 962 172 897 c 256
 172 827 227 773 305 773 c 256
EndSplineSet
EndChar

StartChar: comma
Encoding: 44 44 177
Width: 610
VWidth: 0
GlyphClass: 2
Flags: W
PickledData: "(dp1
S'b'
(dp2
sS'anchors'
p3
(tsS'lib'
p4
(dp5
sS'unicodes'
p6
(tsS'width'
p7
I615
sS'contours'
p8
(tsS'components'
p9
(tsS'com.typemytype.robofont.layerData'
p10
(dp11
S'b'
(dp12
S'name'
p13
S'comma'
p14
sg4
(dp15
sg6
(tsg7
I584
sg8
(tsg9
(tsg3
(tsssg13
S'comma'
p16
s."
LayerCount: 2
Fore
SplineSet
149 -325 m 258
 223 -325 l 258
 224.104 -325.038 225.189 -325.057 226.256 -325.057 c 256
 253.211 -325.057 268.419 -312.782 279 -282 c 258
 448 201 l 258
 449.488 205.167 450.799 211.549 450.799 218.537 c 256
 450.799 235.027 443.499 254.893 414 257 c 257
 282 257 l 257
 250 256 217 248 209 201 c 258
 125 -282 l 258
 124.484 -285.098 123.967 -289.397 123.967 -294.086 c 256
 123.967 -307.559 128.23 -324.258 149 -325 c 258
EndSplineSet
EndChar

StartChar: uni0326
Encoding: 806 806 178
Width: 610
VWidth: 0
GlyphClass: 4
Flags: W
PickledData: "(dp1
S'b'
(dp2
sS'anchors'
p3
(tsS'lib'
p4
(dp5
sS'unicodes'
p6
(tsS'width'
p7
I615
sS'contours'
p8
(tsS'components'
p9
(tsS'com.typemytype.robofont.layerData'
p10
(dp11
S'b'
(dp12
S'name'
p13
S'uni0326'
p14
sg4
(dp15
sg6
(tsg7
I584
sg8
(tsg9
(tsg3
(tsssg13
S'uni0326'
p16
s."
AnchorPoint: "bot" 329 0 mark 0
LayerCount: 2
Fore
SplineSet
150 -626 m 258
 218 -626 l 258
 219.104 -626.038 220.189 -626.057 221.256 -626.057 c 256
 248.211 -626.057 263.419 -613.782 274 -583 c 258
 425 -160 l 258
 426.488 -155.833 427.799 -149.451 427.799 -142.463 c 256
 427.799 -125.973 420.499 -106.107 391 -104 c 257
 271 -104 l 257
 239 -105 206 -113 198 -160 c 258
 126 -583 l 258
 125.484 -586.098 124.967 -590.397 124.967 -595.086 c 256
 124.967 -608.559 129.23 -625.258 150 -626 c 258
EndSplineSet
EndChar

StartChar: uni0312
Encoding: 786 786 179
Width: 600
VWidth: 0
GlyphClass: 4
Flags: W
AnchorPoint: "top" 283 991 mark 0
LayerCount: 2
Fore
SplineSet
213 1204 m 257
 345 1204 l 257
 377 1205 410 1213 418 1260 c 258
 502 1744 l 258
 502.516 1747.1 503.033 1751.4 503.033 1756.09 c 256
 503.033 1769.56 498.77 1786.26 478 1787 c 258
 404 1787 l 258
 402.896 1787.04 401.811 1787.06 400.744 1787.06 c 256
 373.789 1787.06 358.581 1774.78 348 1744 c 258
 179 1260 l 258
 177.512 1255.83 176.201 1249.45 176.201 1242.46 c 256
 176.201 1225.97 183.501 1206.11 213 1204 c 257
EndSplineSet
EndChar

StartChar: copyright
Encoding: 169 169 180
Width: 1685
VWidth: 0
GlyphClass: 2
Flags: W
LayerCount: 2
Fore
SplineSet
860 389 m 256
 943 389 1122 424 1122 501 c 256
 1122 527 1101 551 1077 551 c 256
 1071 551 1064 549 1057 546 c 256
 998 517 941 499 881 499 c 256
 738 499 612 597 612 788 c 256
 612 984 730 1065 872 1065 c 256
 933 1065 999 1048 1059 1019 c 256
 1067 1016 1074 1014 1079 1014 c 256
 1109 1014 1129 1043 1129 1071 c 256
 1129 1142 936 1176 859 1176 c 256
 655 1176 473 1046 473 786 c 256
 473 523 659 389 860 389 c 256
851 227 m 256
 521 227 278 463 278 781 c 256
 278 1098 521 1334 851 1334 c 256
 1177 1334 1420 1098 1420 781 c 256
 1420 463 1177 227 851 227 c 256
851 105 m 256
 1239 105 1556 408 1556 781 c 256
 1556 1154 1239 1459 851 1459 c 256
 460 1459 142 1154 142 781 c 256
 142 408 460 105 851 105 c 256
EndSplineSet
EndChar

StartChar: currency
Encoding: 164 164 181
Width: 1198
VWidth: 0
GlyphClass: 2
Flags: W
LayerCount: 2
Fore
SplineSet
220 158 m 256
 233 158 247 163 260 176 c 258
 346 263 l 257
 414 215 500 189 604 189 c 256
 710 189 796 216 864 264 c 257
 951 176 l 258
 963 163 976 158 990 158 c 256
 1021 158 1049 185 1049 217 c 256
 1049 231 1044 245 1032 257 c 258
 947 340 l 257
 1007 416 1036 510 1036 606 c 256
 1036 698 1009 791 950 867 c 257
 1032 948 l 258
 1043 959 1049 975 1049 987 c 256
 1049 1019 1022 1046 991 1046 c 256
 976 1046 963 1041 950 1028 c 258
 868 946 l 257
 800 995 713 1025 604 1025 c 256
 496 1025 409 994 341 946 c 257
 260 1028 l 258
 247 1041 234 1046 219 1046 c 256
 189 1046 162 1019 162 988 c 256
 162 973 167 959 179 948 c 258
 260 867 l 257
 202 792 173 699 173 606 c 256
 173 510 202 416 263 341 c 257
 179 257 l 258
 167 245 162 231 162 217 c 256
 162 185 189 158 220 158 c 256
604 299 m 256
 406 299 307 453 307 606 c 256
 307 759 406 914 604 914 c 256
 803 914 902 759 902 606 c 256
 902 453 803 299 604 299 c 256
EndSplineSet
EndChar

StartChar: d
Encoding: 100 100 182
Width: 1207
VWidth: 0
GlyphClass: 2
Flags: W
PickledData: "(dp1
S'b'
(dp2
sS'anchors'
p3
(tsS'lib'
p4
(dp5
sS'unicodes'
p6
(tsS'width'
p7
I1207
sS'contours'
p8
(tsS'components'
p9
(tsS'com.typemytype.robofont.layerData'
p10
(dp11
S'b'
(dp12
S'name'
p13
S'd'
sg4
(dp14
sg6
(tsg7
I1181
sg8
(tsg9
(tsg3
(tsssg13
S'd'
s."
AnchorPoint: "mid" 901 1179 basechar 0
AnchorPoint: "caron.alt" 950 1029 basechar 0
LayerCount: 2
Fore
SplineSet
513 -14 m 256
 662 -14 779 40 847 161 c 257
 847 106 l 258
 847 32 891 1 955 1 c 256
 1010 1 1066 37 1066 106 c 258
 1066 1333 l 258
 1066 1401 1012 1435 957 1435 c 256
 901 1435 847 1401 847 1333 c 258
 847 848 l 257
 781 958 674 1013 528 1013 c 256
 250 1013 81 805 81 506 c 256
 81 231 231 -14 513 -14 c 256
563 135 m 256
 358 135 300 347 300 505 c 256
 300 671 364 865 567 865 c 256
 771 865 846 684 846 503 c 256
 846 277 779 135 563 135 c 256
EndSplineSet
EndChar

StartChar: dagger
Encoding: 8224 8224 183
Width: 1218
VWidth: 0
GlyphClass: 2
Flags: W
LayerCount: 2
Fore
SplineSet
609 1 m 256
 659 1 709 34 709 99 c 258
 709 957 l 257
 971 957 l 258
 1026 957 1054 1000 1054 1044 c 256
 1054 1085 1026 1128 971 1128 c 258
 709 1128 l 257
 709 1378 l 258
 709 1443 659 1477 609 1477 c 256
 559 1477 509 1444 509 1378 c 258
 509 1128 l 257
 242 1128 l 258
 189 1128 162 1085 162 1042 c 256
 162 999 189 957 242 957 c 258
 509 957 l 257
 509 99 l 258
 509 34 559 1 609 1 c 256
EndSplineSet
EndChar

StartChar: daggerdbl
Encoding: 8225 8225 184
Width: 1218
VWidth: 0
GlyphClass: 2
Flags: W
LayerCount: 2
Fore
SplineSet
609 0 m 256
 657 0 706 33 706 98 c 258
 706 330 l 257
 969 330 l 258
 1025 330 1054 372 1054 413 c 256
 1054 454 1025 495 969 495 c 258
 706 495 l 257
 706 979 l 257
 969 979 l 258
 1025 979 1054 1020 1054 1062 c 256
 1054 1103 1025 1144 969 1144 c 258
 706 1144 l 257
 706 1378 l 258
 706 1444 657 1477 609 1477 c 256
 560 1477 511 1444 511 1378 c 258
 511 1144 l 257
 244 1144 l 258
 190 1144 162 1102 162 1061 c 256
 162 1020 189 979 244 979 c 258
 511 979 l 257
 511 495 l 257
 244 495 l 258
 190 495 162 453 162 412 c 256
 162 371 189 330 244 330 c 258
 511 330 l 257
 511 98 l 258
 511 33 560 0 609 0 c 256
EndSplineSet
EndChar

StartChar: uni030F
Encoding: 783 783 185
Width: 569
VWidth: 0
GlyphClass: 4
Flags: W
AnchorPoint: "top" 487 1064 mark 0
LayerCount: 2
Fore
SplineSet
283 1178 m 256
 311 1178 334 1200 334 1227 c 256
 332 1242 327 1254 317 1269 c 257
 75 1563 l 257
 53 1592 30 1608 2 1608 c 256
 -49 1608 -108 1560 -108 1505 c 256
 -108 1485 -100 1465 -81 1450 c 258
 229 1201 l 257
 246 1186 268 1178 283 1178 c 256
650 1178 m 256
 679 1178 698 1199 700 1224 c 256
 699 1240 694 1253 683 1268 c 258
 444 1561 l 258
 419 1591 396 1608 367 1608 c 256
 314 1608 258 1557 258 1505 c 256
 258 1484 267 1465 285 1450 c 258
 590 1206 l 258
 610 1189 632 1178 650 1178 c 256
EndSplineSet
EndChar

StartChar: degree
Encoding: 176 176 188
Width: 819
VWidth: 0
GlyphClass: 2
Flags: W
LayerCount: 2
Fore
SplineSet
410 947 m 256
 301 947 222 1023 222 1129 c 256
 222 1231 300 1312 409 1312 c 256
 516 1312 598 1231 598 1129 c 256
 598 1023 516 947 410 947 c 256
410 835 m 256
 575 835 714 966 714 1129 c 256
 714 1292 575 1423 410 1423 c 256
 241 1423 106 1292 106 1129 c 256
 106 966 242 835 410 835 c 256
EndSplineSet
EndChar

StartChar: dieresis
Encoding: 168 168 189
Width: 569
VWidth: 0
GlyphClass: 4
Flags: W
AnchorPoint: "top" 287 1040 mark 0
LayerCount: 2
Fore
SplineSet
80 1193 m 256
 151 1193 201 1246 201 1307 c 256
 201 1368 151 1421 80 1421 c 256
 7 1421 -42 1367 -42 1307 c 256
 -42 1245 10 1193 80 1193 c 256
490 1193 m 256
 562 1193 611 1246 611 1307 c 256
 611 1369 560 1421 490 1421 c 256
 416 1421 368 1366 368 1307 c 256
 368 1245 419 1193 490 1193 c 256
EndSplineSet
EndChar

StartChar: divide
Encoding: 247 247 190
Width: 1320
VWidth: 0
GlyphClass: 2
Flags: W
LayerCount: 2
Fore
SplineSet
209 434 m 258
 1120 434 l 258
 1171 434 1196 473 1196 515 c 256
 1196 557 1171 597 1120 597 c 258
 209 597 l 258
 158 597 132 557 132 515 c 256
 132 473 158 434 209 434 c 258
661 -24 m 256
 733 -24 778 28 778 86 c 256
 778 142 733 194 661 194 c 256
 587 194 543 142 543 86 c 256
 543 28 587 -24 661 -24 c 256
661 836 m 256
 733 836 778 889 778 946 c 256
 778 1003 733 1055 661 1055 c 256
 587 1055 543 1003 543 946 c 256
 543 889 587 836 661 836 c 256
EndSplineSet
EndChar

StartChar: dollar
Encoding: 36 36 191
Width: 1193
VWidth: 0
GlyphClass: 2
Flags: W
PickledData: "(dp1
S'com.typemytype.robofont.layerData'
p2
(dp3
S'b'
(dp4
S'name'
p5
S'dollar'
p6
sS'lib'
p7
(dp8
sS'unicodes'
p9
(tsS'width'
p10
I1274
sS'contours'
p11
(tsS'components'
p12
(tsS'anchors'
p13
(tsss."
LayerCount: 2
Fore
SplineSet
537 0 m 258
 537 -43.7245 568.377 -64.5196 600.301 -64.5196 c 256
 633.357 -64.5196 667 -42.2232 667 0 c 258
 667 202.046 l 257
 859.466 220.518 999.253 320.367 999.253 509.918 c 256
 999.253 662.666 911.392 749.652 702 802 c 258
 540 842 l 258
 417 872 384 893 384 966 c 256
 384 1055.08 482.161 1088.19 592.371 1088.19 c 256
 706.702 1088.19 803.067 1046.34 848 1030 c 256
 860.964 1025.3 872.926 1023.2 883.754 1023.2 c 256
 925.8 1023.2 950.73 1054.89 950.73 1089.07 c 256
 950.73 1115.33 936.003 1143.07 903 1159 c 256
 852.117 1184.87 767.765 1219.67 657 1230.68 c 257
 657 1438 l 258
 657 1480.22 623.616 1502.52 590.814 1502.52 c 256
 559.136 1502.52 528 1481.72 528 1438 c 258
 528 1232.65 l 257
 330.859 1219.87 180.996 1131.96 180.996 955.57 c 256
 180.996 768.199 298.754 725.064 498 673 c 257
 663 631 l 258
 767.457 604.632 813.103 561.676 813.103 496.119 c 256
 813.103 386.744 704.357 343.983 584.116 343.983 c 256
 459.043 343.983 367.54 391.273 304 429 c 256
 286.585 438.977 270.092 443.262 255.212 443.262 c 256
 212.69 443.262 183.348 408.273 183.348 371.177 c 256
 183.348 349.697 193.186 327.51 216 311 c 256
 284.184 262.553 397.443 213.302 537 201.518 c 257
 537 0 l 258
EndSplineSet
EndChar

StartChar: dotaccent
Encoding: 729 729 192
Width: 609
VWidth: 0
GlyphClass: 4
Flags: W
AnchorPoint: "top" 293 1038 mark 0
LayerCount: 2
Fore
SplineSet
300 1215 m 256
 381 1215 431 1272 431 1338 c 256
 431 1401 381 1460 300 1460 c 256
 219 1460 169 1401 169 1338 c 256
 169 1272 219 1215 300 1215 c 256
EndSplineSet
EndChar

StartChar: dotlessi
Encoding: 305 305 193
Width: 504
VWidth: 0
GlyphClass: 2
Flags: W
AnchorPoint: "top" 253 991 basechar 0
LayerCount: 2
Fore
SplineSet
250 0 m 256
 305 0 362 38 362 109 c 258
 362 890 l 258
 362 962 307 1000 252 1000 c 256
 196 1000 142 962 142 890 c 258
 142 109 l 258
 142 35 195 0 250 0 c 256
EndSplineSet
EndChar

StartChar: uni0237
Encoding: 567 567 194
Width: 513
VWidth: 0
GlyphClass: 2
Flags: W
AnchorPoint: "top" 261 991 basechar 0
LayerCount: 2
Fore
SplineSet
-5 -382 m 256
 339 -382 372 -272 372 -19 c 258
 372 875 l 258
 372 957 332 997 261 997 c 256
 192 997 148 955 148 872 c 258
 148 -33 l 258
 148 -198 121 -217 -8 -218 c 256
 -58.6211 -218 -83.3974 -257.612 -83.3974 -297.901 c 256
 -83.3974 -339.589 -56.8704 -382 -5 -382 c 256
EndSplineSet
EndChar

StartChar: e
Encoding: 101 101 195
Width: 1095
VWidth: 0
GlyphClass: 2
Flags: W
PickledData: "(dp1
S'b'
(dp2
sS'anchors'
p3
(tsS'lib'
p4
(dp5
sS'unicodes'
p6
(tsS'width'
p7
I1132
sS'contours'
p8
(tsS'components'
p9
(tsS'com.typemytype.robofont.layerData'
p10
(dp11
S'b'
(dp12
S'name'
p13
S'e'
sg4
(dp14
sg6
(tsg7
I1132
sg8
(tsg9
(tsg3
(tsssg13
S'e'
s."
AnchorPoint: "ogonek" 769 42 basechar 0
AnchorPoint: "top" 573 1001 basechar 0
LayerCount: 2
Fore
SplineSet
590 -14 m 256
 752 -14 868 39 958 118 c 256
 981.175 137.361 990.667 160.853 990.667 183.073 c 256
 990.667 223.209 959.696 259.197 922.451 259.197 c 256
 910.027 259.197 896.904 255.192 884 246 c 256
 809 193 717 138 606 138 c 256
 435 139 313 228 303 449 c 257
 959 449 l 258
 1007 449 1024 488 1024 532 c 256
 1019 787 883 1013 567 1013 c 256
 257 1013 83 776 83 509 c 256
 83 181 292 -12 590 -14 c 256
305 581 m 257
 317 718 401 865 576 865 c 256
 751 865 824 727 835 581 c 257
 305 581 l 257
EndSplineSet
EndChar

StartChar: eight
Encoding: 56 56 203
Width: 1203
VWidth: 0
GlyphClass: 2
Flags: W
PickledData: "(dp1
S'com.typemytype.robofont.layerData'
p2
(dp3
S'b'
(dp4
S'name'
p5
S'eight'
p6
sS'lib'
p7
(dp8
sS'unicodes'
p9
(tsS'width'
p10
I1160
sS'contours'
p11
(tsS'components'
p12
(tsS'anchors'
p13
(tsss."
LayerCount: 2
Fore
SplineSet
601 -22 m 256
 909 -22 1123 134 1123 392 c 256
 1123 573 1032 702 846 750 c 257
 1004 787 1097 913 1097 1075 c 256
 1097 1330 885 1472 601 1472 c 256
 316 1472 107 1329 107 1075 c 256
 107 909 198 792 358 750 c 257
 175 711 80 569 80 392 c 256
 80 134 294 -22 601 -22 c 256
602 164 m 256
 453 164 329 221 329 393 c 256
 329 567 452 646 602 646 c 256
 750 646 874 567 874 393 c 256
 874 221 750 164 602 164 c 256
602 859 m 256
 445 859 343 934 343 1085 c 256
 343 1246 467 1295 602 1295 c 256
 737 1295 860 1246 860 1085 c 256
 860 934 760 859 602 859 c 256
EndSplineSet
EndChar

StartChar: ellipsis
Encoding: 8230 8230 204
Width: 1831
VWidth: 0
GlyphClass: 2
Flags: W
LayerCount: 2
Fore
SplineSet
305 -3 m 256
 384 -3 437 56 437 121 c 256
 437 189 381 245 305 245 c 256
 224 245 172 185 172 121 c 256
 172 54 227 -3 305 -3 c 256
915 -3 m 256
 995 -3 1047 56 1047 121 c 256
 1047 191 990 245 915 245 c 256
 834 245 782 185 782 121 c 256
 782 54 837 -3 915 -3 c 256
1525 -3 m 256
 1605 -3 1657 56 1657 121 c 256
 1657 189 1602 245 1525 245 c 256
 1444 245 1393 185 1393 121 c 256
 1393 54 1445 -3 1525 -3 c 256
EndSplineSet
EndChar

StartChar: emdash
Encoding: 8212 8212 206
Width: 2048
VWidth: 0
GlyphClass: 2
Flags: W
LayerCount: 2
Fore
SplineSet
85 442 m 258
 1963 442 l 258
 2018 442 2046 486 2046 530 c 256
 2046 575 2018 620 1963 620 c 258
 85 620 l 258
 29 620 1 575 1 531 c 256
 1 486 29 442 85 442 c 258
EndSplineSet
EndChar

StartChar: emptyset
Encoding: 8709 8709 207
Width: 1745
VWidth: 0
GlyphClass: 2
Flags: W
LayerCount: 2
Fore
SplineSet
658.934 289.419 m 257
 1215.89 1032.69 l 257
 1297.74 948.824 1346 833.884 1346 707 c 256
 1346 435 1130 242 874 242 c 256
 794.979 242 722.351 259.05 658.934 289.419 c 257
556.367 356.763 m 257
 458.555 441.97 400 567.24 400 707 c 256
 400 972 606 1172 874 1172 c 256
 965.718 1172 1048.92 1148.69 1119.03 1108.05 c 257
 556.367 356.763 l 257
370.747 92.4206 m 256
 370.747 62.0542 395.511 27.7016 431.791 27.7016 c 256
 461.803 27.7016 488.205 62.557 511 92 c 258
 589.866 197.248 l 257
 675.67 154.08 772.836 130 874 130 c 256
 1206 130 1478 390 1478 707 c 256
 1478 877.382 1403.57 1025.38 1288.44 1129.5 c 257
 1363 1229 l 257
 1380.33 1253.92 1403.45 1280.26 1403.45 1309.08 c 256
 1403.45 1340.28 1378.89 1369.6 1344.37 1369.6 c 256
 1325.52 1369.6 1307.63 1360.71 1292 1339 c 258
 1189.59 1202.26 l 257
 1096.04 1257.66 987.044 1289 874 1289 c 256
 526 1289 267 1015 267 707 c 256
 267 524.294 353.749 367.03 486.176 263.042 c 257
 412 164 l 257
 393.88 143.748 370.747 113.305 370.747 92.4206 c 256
EndSplineSet
EndChar

StartChar: endash
Encoding: 8211 8211 208
Width: 1024
VWidth: 0
GlyphClass: 2
Flags: W
LayerCount: 2
Fore
SplineSet
86 442 m 258
 937 442 l 258
 993 442 1021 486 1021 530 c 256
 1021 575 993 620 937 620 c 258
 86 620 l 258
 30 620 1 575 1 531 c 256
 1 486 30 442 86 442 c 258
EndSplineSet
EndChar

StartChar: eng
Encoding: 331 331 209
Width: 1188
VWidth: 0
GlyphClass: 2
Flags: W
PickledData: "(dp1
S'com.typemytype.robofont.layerData'
p2
(dp3
S'b'
(dp4
S'name'
p5
S'eng'
p6
sS'lib'
p7
(dp8
sS'unicodes'
p9
(tsS'width'
p10
I1158
sS'contours'
p11
(tsS'components'
p12
(tsS'anchors'
p13
(tsss."
LayerCount: 2
Fore
SplineSet
673.209 -364.167 m 256
 895.631 -364.167 1047 -234.24 1047 105 c 258
 1047 630 l 258
 1047 899 877 1013 684 1013 c 256
 534 1013 416 954 360 843 c 257
 360 899 l 258
 360 966 306 999 251 999 c 256
 195 999 140 964 140 896 c 258
 140 105 l 258
 140 35 195 0 250 0 c 256
 306 0 360 36 360 105 c 258
 360 560 l 258
 362 750 486 865 622 865 c 256
 739 865 828 789 828 632 c 258
 828 90 l 258
 828 -104.04 780.13 -195.055 637.472 -195.055 c 256
 582.362 -195.055 513.106 -181.473 427 -155 c 256
 417.522 -152.055 408.518 -150.703 400.075 -150.703 c 256
 355.035 -150.703 325.95 -189.197 325.95 -229.871 c 256
 325.95 -264.432 346.948 -300.567 397 -316 c 256
 497.441 -346.72 590.603 -364.167 673.209 -364.167 c 256
EndSplineSet
EndChar

StartChar: equal
Encoding: 61 61 211
Width: 1319
VWidth: 0
GlyphClass: 2
Flags: W
LayerCount: 2
Fore
SplineSet
229 213 m 258
 1075 213 l 258
 1126 213 1172 240 1172 293 c 256
 1172 349 1126 375 1082 375 c 258
 244 375 l 258
 192 375 145 348 145 293 c 256
 145 247 184 213 229 213 c 258
229 626 m 258
 1074 626 l 258
 1126 626 1172 654 1172 706 c 256
 1172 764 1123 788 1074 788 c 258
 245 788 l 258
 192 788 145 761 145 706 c 256
 145 661 183 626 229 626 c 258
EndSplineSet
EndChar

StartChar: estimated
Encoding: 8494 8494 212
Width: 1132
VWidth: 0
GlyphClass: 2
Flags: W
LayerCount: 2
Fore
SplineSet
600 -12 m 256
 782 -12 888 35 982 115 c 256
 1008 137 1019 159 1019 177 c 256
 1019 199 1003 214 980 214 c 256
 955.463 214 938.222 201.452 921 183 c 256
 826 85 712 39 604 39 c 256
 428 39 327 159 315 491 c 257
 970 491 l 258
 1018 491 1035 541 1035 577 c 256
 1035 786 927 1013 577 1013 c 256
 231 1013 86 759 86 512 c 256
 86 183 268 -12 600 -12 c 256
317 562 m 257
 328 796 421 968 591 968 c 256
 764 968 825 817 836 562 c 257
 317 562 l 257
EndSplineSet
EndChar

StartChar: eth
Encoding: 240 240 213
Width: 1218
VWidth: 0
GlyphClass: 2
Flags: W
PickledData: "(dp1
S'com.typemytype.robofont.layerData'
p2
(dp3
S'b'
(dp4
S'name'
p5
S'eth'
p6
sS'lib'
p7
(dp8
sS'unicodes'
p9
(tsS'width'
p10
I1230
sS'contours'
p11
(tsS'components'
p12
(tsS'anchors'
p13
(tsss."
LayerCount: 2
Fore
SplineSet
583 -34 m 256
 992 -34 1135 272 1135 633 c 256
 1135 765 1118 913 1082 1058 c 257
 1213 1058 l 258
 1259 1058 1281 1091 1281 1125 c 256
 1281 1160 1260 1193 1213 1193 c 258
 1036 1193 l 257
 956 1384 855 1548 756 1548 c 256
 698.4 1548 651.963 1503.88 651.963 1451.68 c 256
 651.963 1432.28 658.372 1411.77 673 1392 c 256
 714 1336 770 1256 796 1193 c 257
 616 1193 l 258
 569 1193 547 1159 547 1124 c 256
 547 1090 569 1058 616 1058 c 258
 843 1058 l 257
 874.622 975.616 891.009 843.373 891.009 754.625 c 256
 891.009 736.725 890.343 720.595 889 707 c 257
 821 840 685 901 532 901 c 256
 258 901 83 722 83 448 c 256
 83 168 273 -34 583 -34 c 256
594 141 m 256
 417 141 318 259 318 438 c 256
 318 607 396 746 574 746 c 256
 763 746 867 616 867 432 c 256
 867 269 754 141 594 141 c 256
EndSplineSet
EndChar

StartChar: exclam
Encoding: 33 33 214
Width: 786
VWidth: 0
GlyphClass: 2
Flags: W
LayerCount: 2
Fore
SplineSet
343 494 m 258
 347.022 448.753 377.583 425.748 408.253 425.748 c 256
 438.587 425.748 469.027 448.253 474 494 c 257
 540 1376 l 258
 540.375 1380.1 540.557 1384.09 540.557 1387.98 c 256
 540.557 1461.85 474.741 1498.63 408.819 1498.63 c 256
 342.684 1498.63 276.443 1461.61 276.443 1387.91 c 256
 276.443 1384.04 276.625 1380.07 277 1376 c 258
 343 494 l 258
EndSplineSet
Refer: 313 46 N 1 0 0 1 107 -2 2
EndChar

StartChar: f
Encoding: 102 102 216
Width: 718
VWidth: 0
GlyphClass: 2
Flags: W
PickledData: "(dp1
S'b'
(dp2
sS'anchors'
p3
(tsS'lib'
p4
(dp5
sS'unicodes'
p6
(tsS'width'
p7
I723
sS'contours'
p8
(tsS'components'
p9
(tsS'com.typemytype.robofont.layerData'
p10
(dp11
S'b'
(dp12
S'name'
p13
S'f'
sg4
(dp14
sg6
(tsg7
I696
sg8
(tsg9
(tsg3
(tsssg13
S'f'
s."
LayerCount: 2
Fore
SplineSet
335 0 m 256
 391 0 445 36 445 108 c 258
 445 847 l 257
 595 847 l 258
 648 847 672 880 672 918 c 256
 672 953 648 989 595 989 c 258
 445 989 l 257
 445 1078 l 258
 445 1259 484 1278 578 1278 c 258
 663 1278 l 258
 713.228 1278 737.267 1319.22 737.267 1361.07 c 256
 737.267 1404.2 711.727 1448 663 1448 c 258
 538 1448 l 258
 358 1448 225 1357 225 1108 c 258
 225 989 l 257
 112 989 l 258
 111.284 989.013 110.574 989.02 109.869 989.02 c 256
 57.3419 989.02 33 952.536 33 918 c 256
 33 881 58 848 112 847 c 257
 225 847 l 257
 225 108 l 258
 225 36 280 0 335 0 c 256
EndSplineSet
EndChar

StartChar: uniFB01
Encoding: 64257 64257 217
Width: 1215
VWidth: 0
GlyphClass: 2
Flags: W
LayerCount: 2
Fore
SplineSet
325 1 m 256
 380 1 435 37 435 109 c 258
 435 849 l 257
 853 849 l 257
 853 109 l 258
 853 35 906 0 962 0 c 256
 1017 0 1073 38 1073 109 c 258
 1073 889 l 258
 1073 963 1016 997 960 997 c 258
 435 997 l 257
 435 1028 l 258
 435 1241 442 1290 556 1290 c 256
 588 1290 616 1282 650 1282 c 256
 694 1282 718 1321 718 1360 c 256
 718 1392 701 1424 664 1435 c 256
 610 1449 555 1456 500 1456 c 256
 320 1456 216 1361 216 1092 c 258
 216 997 l 257
 99 997 l 258
 46 997 20 961 20 924 c 256
 20 886 46 849 99 849 c 258
 216 849 l 257
 216 109 l 258
 216 37 270 1 325 1 c 256
963 1226 m 256
 1041 1226 1096 1272 1096 1334 c 256
 1096 1395 1041 1442 963 1442 c 256
 885 1442 830 1395 830 1334 c 256
 830 1273 885 1226 963 1226 c 256
EndSplineSet
EndChar

StartChar: five
Encoding: 53 53 218
Width: 1203
VWidth: 0
GlyphClass: 2
Flags: W
PickledData: "(dp1
S'com.typemytype.robofont.layerData'
p2
(dp3
S'b'
(dp4
S'name'
p5
S'five'
p6
sS'lib'
p7
(dp8
sS'unicodes'
p9
(tsS'width'
p10
I1160
sS'contours'
p11
(tsS'components'
p12
(tsS'anchors'
p13
(tsss."
LayerCount: 2
Fore
SplineSet
613 -22 m 256
 894 -22 1114 161 1114 450 c 256
 1114 723 930 909 668 909 c 256
 460 909 370 817 370 817 c 257
 370 1248 l 257
 949 1248 l 258
 1006 1248 1033 1295 1033 1340 c 256
 1033 1384 1006 1432 949 1432 c 258
 296 1432 l 258
 214 1432 175 1398 175 1322 c 258
 175 694 l 258
 175 637.42 278.514 600.526 335.237 600.526 c 256
 349.693 600.526 361.11 602.923 367 608 c 256
 427 661 522 718 629 718 c 256
 777 718 878 620 878 457 c 256
 878 282 786 176 604 176 c 256
 476 176 373 222 294 283 c 256
 281.066 292.74 267.571 296.973 254.301 296.973 c 256
 203.433 296.973 155.868 234.771 155.868 182.147 c 256
 155.868 162.526 162.481 144.237 178 131 c 256
 282 44 413 -22 613 -22 c 256
EndSplineSet
EndChar

StartChar: uniFB02
Encoding: 64258 64258 220
Width: 1215
VWidth: 0
GlyphClass: 2
Flags: W
LayerCount: 2
Fore
SplineSet
325 1 m 256
 380 1 435 37 435 109 c 258
 435 849 l 257
 575 849 l 258
 629 849 654 889 654 924 c 256
 654 961 629 997 575 997 c 258
 435 997 l 257
 435 1036 l 258
 435 1245 456 1313 562 1313 c 258
 794 1313 l 257
 794 109 l 258
 794 35 847 0 902 0 c 256
 958 0 1014 38 1014 109 c 258
 1014 1326 l 258
 1014 1398 960 1434 905 1434 c 256
 856 1434 807 1405 797 1347 c 257
 781 1374 690 1453 491 1453 c 256
 337 1450 216 1357 216 1092 c 258
 216 997 l 257
 99 997 l 258
 46 997 20 961 20 924 c 256
 20 886 46 849 99 849 c 258
 216 849 l 257
 216 109 l 258
 216 37 270 1 325 1 c 256
EndSplineSet
EndChar

StartChar: florin
Encoding: 402 402 221
Width: 1218
VWidth: 0
GlyphClass: 2
Flags: W
LayerCount: 2
Fore
SplineSet
72 -538 m 256
 240 -538 418 -438 522 1 c 256
 580 249 631 517 682 759 c 257
 886 759 l 258
 944 759 974 803 974 847 c 256
 974 892 944 937 886 937 c 258
 716 937 l 257
 785 1290 873 1429 1006 1429 c 256
 1082 1429 1121 1469 1121 1507 c 256
 1121 1542 1090 1575 1025 1575 c 256
 795 1575 617 1394 535 937 c 257
 358 937 l 258
 300 937 270 892 270 848 c 256
 270 803 300 759 358 759 c 258
 502 759 l 257
 451 517 401 250 342 3 c 256
 264 -330 159 -383 79 -384 c 256
 12 -385 -30 -429 -30 -471 c 256
 -30 -506 0 -538 72 -538 c 256
EndSplineSet
EndChar

StartChar: foundryicon
Encoding: 65538 -1 222
Width: 1347
VWidth: 0
GlyphClass: 2
Flags: W
LayerCount: 2
Fore
SplineSet
485 405 m 257
 485 672 l 257
 591 672 l 257
 761 523 l 257
 761 672 l 257
 867 672 l 257
 867 405 l 257
 761 405 l 257
 591 552 l 257
 591 405 l 257
 485 405 l 257
280 2 m 257
 669 278 l 257
 1066 2 l 257
 922 461 l 257
 1313 755 l 257
 828 755 l 257
 669 1215 l 257
 519 755 l 257
 34 755 l 257
 423 461 l 257
 280 2 l 257
EndSplineSet
EndChar

StartChar: four
Encoding: 52 52 223
Width: 1203
VWidth: 0
GlyphClass: 2
Flags: W
PickledData: "(dp1
S'com.typemytype.robofont.layerData'
p2
(dp3
S'b'
(dp4
S'name'
p5
S'four'
p6
sS'lib'
p7
(dp8
sS'unicodes'
p9
(tsS'width'
p10
I1160
sS'contours'
p11
(tsS'components'
p12
(tsS'anchors'
p13
(tsss."
LayerCount: 2
Fore
SplineSet
853 -3 m 256
 909 -3 969 34 969 106 c 258
 969 298 l 257
 1097 298 l 258
 1155 298 1183 342 1183 384 c 256
 1183 429 1155 472 1097 472 c 258
 970 472 l 257
 970 1267 l 258
 970 1387 889 1435 799 1435 c 256
 717 1435 653 1402 598 1314 c 258
 79 479 l 258
 68.8837 462.814 64.0762 443.238 64.0762 423.021 c 256
 64.0762 363.303 106.026 298 177 298 c 258
 734 298 l 257
 734 106 l 258
 734 34 796 -3 853 -3 c 256
302 472 m 257
 734 1187 l 257
 734 472 l 257
 302 472 l 257
EndSplineSet
EndChar

StartChar: uni2074
Encoding: 8308 8308 224
Width: 745
VWidth: 0
GlyphClass: 2
Flags: W
LayerCount: 2
Fore
SplineSet
499 587 m 256
 529 587 559 608 559 651 c 258
 559 771 l 257
 636 771 l 258
 670 771 686 793 686 815 c 256
 686 837 669 859 636 859 c 258
 559 859 l 257
 559 1324 l 258
 559 1391 523 1425 473 1425 c 256
 426 1425 391 1408 358 1350 c 257
 51 870 l 258
 42 857 38 843 38 829 c 256
 38 795 65 771 107 771 c 258
 438 771 l 257
 438 651 l 258
 438 608 469 587 499 587 c 256
156 857 m 257
 438 1310 l 257
 438 857 l 257
 156 857 l 257
EndSplineSet
EndChar

StartChar: fraction
Encoding: 8260 8260 225
Width: 618
VWidth: 0
GlyphClass: 2
Flags: W
LayerCount: 2
Fore
SplineSet
71 -68 m 256
 103 -68 133 -50 147 -10 c 258
 625 1419 l 258
 629 1431 631 1441 631 1451 c 256
 631 1499 590 1528 548 1528 c 256
 514 1528 481 1511 468 1470 c 258
 -7 40 l 258
 -11 29 -12 19 -12 10 c 256
 -12 -39 29 -68 71 -68 c 256
EndSplineSet
EndChar

StartChar: g
Encoding: 103 103 226
Width: 1198
VWidth: 0
GlyphClass: 2
Flags: W
PickledData: "(dp1
S'b'
(dp2
sS'anchors'
p3
(tsS'lib'
p4
(dp5
sS'unicodes'
p6
(tsS'width'
p7
I1207
sS'contours'
p8
(tsS'components'
p9
(tsS'com.typemytype.robofont.layerData'
p10
(dp11
S'b'
(dp12
S'name'
p13
S'g'
sg4
(dp14
sg6
(tsg7
I1167
sg8
(tsg9
(tsg3
(tsssg13
S'g'
s."
AnchorPoint: "top" 578 999 basechar 0
LayerCount: 2
Fore
SplineSet
571 -437 m 256
 860 -437 1067 -299 1067 16 c 258
 1067 895 l 258
 1067 964 1015 999 964 999 c 256
 916 999 869 970 862 914 c 257
 862 847 l 257
 801 943 721 1013 544 1013 c 256
 253 1013 81 791 81 493 c 256
 81 197 262 0 550 0 c 256
 690 0 797 57 857 167 c 257
 857 0 l 258
 857 -183 742 -289 555 -289 c 256
 428 -289 351 -248 277 -223 c 256
 266.473 -218.739 256.37 -216.818 246.908 -216.818 c 256
 206.369 -216.818 177.587 -252.076 177.587 -289.623 c 256
 177.587 -313.245 188.978 -337.774 216 -355 c 256
 283 -396 416 -437 571 -437 c 256
583 143 m 257
 437 147 300 251 300 499 c 256
 300 692 382 865 586 865 c 256
 789 865 856 703 856 497 c 256
 855 246 734 144 583 143 c 257
EndSplineSet
EndChar

StartChar: germandbls
Encoding: 223 223 232
Width: 1329
VWidth: 0
GlyphClass: 2
Flags: W
LayerCount: 2
Fore
SplineSet
878 -26 m 256
 1082 -26 1263 97 1263 316 c 256
 1263 631 842 625 842 796 c 256
 842 890 1076 981 1076 1147 c 256
 1076 1354 872 1467 653 1467 c 256
 306 1467 151 1284 151 978 c 258
 151 106 l 258
 151 35 205 0 260 0 c 256
 316 0 370 36 370 106 c 258
 370 966 l 257
 373 1146 435 1321 632 1321 c 256
 741 1321 854 1267 854 1150 c 256
 854 1016 615 961 615 781 c 256
 615 524 1049 514 1049 305 c 256
 1049 182 976 125 868 125 c 256
 789 125 736 165 696 226 c 256
 680 252 657 262 634 262 c 256
 592 262 549 227 549 180 c 256
 549 168 551 155 558 142 c 256
 614 29 732 -26 878 -26 c 256
EndSplineSet
EndChar

StartChar: grave
Encoding: 96 96 233
Width: 569
VWidth: 0
GlyphClass: 4
Flags: W
AnchorPoint: "top" 446 1040 mark 0
LayerCount: 2
Fore
SplineSet
455 1195 m 256
 483 1195 503 1219 503 1246 c 256
 503 1259 497 1272 487 1286 c 257
 249 1578 l 258
 225 1608 201 1626 173 1626 c 256
 119 1626 62 1574 62 1522 c 256
 62 1502 71 1483 90 1468 c 258
 401 1219 l 257
 417 1204 439 1195 455 1195 c 256
EndSplineSet
EndChar

StartChar: greater
Encoding: 62 62 234
Width: 1319
VWidth: 0
GlyphClass: 2
Flags: W
PickledData: "(dp1
S'com.typemytype.robofont.layerData'
p2
(dp3
S'b'
(dp4
S'name'
p5
S'less'
p6
sS'lib'
p7
(dp8
sS'unicodes'
p9
(tsS'width'
p10
I1340
sS'contours'
p11
(tsS'components'
p12
(tsS'anchors'
p13
(tsss."
LayerCount: 2
Fore
SplineSet
225 29 m 258
 1079 402 l 258
 1119.53 419.733 1143.64 459.288 1143.64 499.852 c 256
 1143.64 539.347 1120.79 579.8 1068 602 c 258
 229 955 l 258
 223.072 957.515 217.015 958.674 210.966 958.674 c 256
 170.963 958.674 131.273 907.975 131.273 863.13 c 256
 131.273 839.244 142.532 817.02 171 805 c 258
 908 499 l 257
 169 178 l 258
 146.996 168.752 137.907 147.3 137.907 123.31 c 256
 137.907 78.6855 169.352 25.2762 207.614 25.2762 c 256
 213.287 25.2762 219.108 26.4499 225 29 c 258
EndSplineSet
EndChar

StartChar: greaterequal
Encoding: 8805 8805 235
Width: 1197
VWidth: 0
GlyphClass: 2
Flags: W
LayerCount: 2
Fore
SplineSet
173 261 m 256
 183 261 194 263 204 268 c 258
 1073 634 l 258
 1123 654 1145 690 1145 725 c 256
 1145 763 1123 797 1075 817 c 258
 202 1198 l 258
 191 1203 180 1205 170 1205 c 256
 126 1205 96 1166 96 1127 c 256
 96 1101 111 1076 142 1063 c 258
 914 726 l 257
 144 407 l 257
 111 392 97 366 97 340 c 256
 97 300 128 261 173 261 c 256
177 4 m 258
 1024 4 l 258
 1067 4 1089 37 1089 70 c 256
 1089 104 1067 137 1024 137 c 258
 177 137 l 258
 134 137 113 105 113 71 c 256
 113 38 134 4 177 4 c 258
EndSplineSet
EndChar

StartChar: guillemotleft
Encoding: 171 171 236
Width: 1190
VWidth: 0
GlyphClass: 2
Flags: W
LayerCount: 2
Fore
SplineSet
476 71 m 256
 524 71 558 102 558 148 c 256
 556 159 553 171 548 182 c 258
 384 538 l 257
 545 886 l 258
 552 901 557 917 557 929 c 256
 557 972 522 1004 479 1004 c 256
 446 1004 413 986 388 944 c 258
 157 538 l 257
 381 143 l 258
 409 94 440 71 476 71 c 256
908 71 m 256
 956 71 991 102 991 148 c 256
 989 160 986 171 981 182 c 258
 817 538 l 257
 978 886 l 258
 984 900 990 916 990 929 c 256
 990 972 954 1004 911 1004 c 256
 879 1004 845 987 820 944 c 258
 589 538 l 257
 813 143 l 258
 841 94 873 71 908 71 c 256
EndSplineSet
EndChar

StartChar: guillemotright
Encoding: 187 187 237
Width: 1190
VWidth: 0
GlyphClass: 2
Flags: W
LayerCount: 2
Fore
SplineSet
277 71 m 256
 312 71 343 93 372 143 c 258
 596 538 l 257
 372 932 l 258
 344 980 310 1004 275 1004 c 256
 232 1004 195 973 195 930 c 256
 195 915 201 901 208 887 c 258
 369 538 l 257
 208 188 l 258
 201 173 195 158 195 144 c 256
 195 99 234 71 277 71 c 256
709 71 m 256
 745 71 776 93 805 143 c 258
 1029 538 l 257
 805 932 l 257
 776 980 744 1004 708 1004 c 256
 665 1004 627 973 627 930 c 256
 627 916 634 901 641 886 c 258
 802 538 l 257
 641 189 l 258
 634 174 628 158 628 145 c 256
 628 100 666 71 709 71 c 256
EndSplineSet
EndChar

StartChar: guilsinglleft
Encoding: 8249 8249 238
Width: 609
VWidth: 0
GlyphClass: 2
Flags: W
LayerCount: 2
Fore
SplineSet
411 74 m 256
 452 74 489 105 489 146 c 256
 489 156 487 167 482 176 c 258
 315 538 l 257
 482 900 l 258
 487 909 489 920 489 930 c 256
 489 971 452 1002 411 1002 c 256
 379 1002 347 985 322 943 c 258
 92 538 l 257
 322 133 l 258
 346 90 380 74 411 74 c 256
EndSplineSet
EndChar

StartChar: guilsinglright
Encoding: 8250 8250 239
Width: 609
VWidth: 0
GlyphClass: 2
Flags: W
LayerCount: 2
Fore
SplineSet
200 74 m 256
 230 74 264 90 290 133 c 257
 519 538 l 257
 290 943 l 257
 264 985 230 1002 200 1002 c 256
 159 1002 121 971 121 930 c 256
 121 920 123 909 128 900 c 258
 296 538 l 257
 128 176 l 258
 123 166 121 156 121 146 c 256
 121 105 159 74 200 74 c 256
EndSplineSet
EndChar

StartChar: h
Encoding: 104 104 240
Width: 1178
VWidth: 0
GlyphClass: 2
Flags: W
PickledData: "(dp1
S'b'
(dp2
sS'anchors'
p3
(tsS'lib'
p4
(dp5
sS'unicodes'
p6
(tsS'y'
I113
sS'width'
p7
I1195
sS'points'
p8
(dp9
sS'contours'
p10
(dp11
sS'components'
p12
(tsS'segmentType'
p13
S'curve'
p14
sS'x'
I137
sS'com.typemytype.robofont.layerData'
p15
(dp16
S'b'
(dp17
S'name'
p18
S'h'
sg4
(dp19
sg6
(tsg7
I1148
sg10
(tsg12
(tsg3
(tsssg18
S'h'
s."
LayerCount: 2
Fore
SplineSet
250 0 m 256
 306 0 360 35 360 106 c 258
 360 563 l 258
 360 751 489 862 628 862 c 256
 741 862 828 791 828 635 c 258
 828 106 l 258
 828 35 882 0 936 0 c 256
 992 0 1047 35 1047 106 c 258
 1047 631 l 258
 1047 901 874 1013 686 1013 c 256
 534 1013 419 953 360 861 c 257
 360 1332 l 258
 360 1400 306 1435 251 1435 c 256
 195 1435 140 1400 140 1332 c 258
 140 106 l 258
 140 35 195 0 250 0 c 256
EndSplineSet
EndChar

StartChar: hungarumlaut
Encoding: 733 733 243
Width: 569
VWidth: 0
GlyphClass: 4
Flags: W
AnchorPoint: "top" 174 1040 mark 0
LayerCount: 2
Fore
SplineSet
-6 1109 m 256
 9 1109 24 1114 39 1127 c 258
 357 1381 l 258
 376 1396 383 1416 383 1435 c 256
 383 1485 328 1538 275 1538 c 256
 251 1538 229 1529 210 1504 c 257
 -45 1192 l 258
 -54 1181 -56 1170 -57 1159 c 256
 -57 1131 -35 1109 -6 1109 c 256
356 1109 m 256
 372 1109 386 1114 402 1127 c 258
 719 1381 l 258
 738 1396 746 1417 746 1435 c 256
 746 1485 690 1538 637 1538 c 256
 614 1538 591 1529 573 1504 c 257
 317 1192 l 258
 308 1181 306 1170 306 1159 c 256
 306 1131 327 1109 356 1109 c 256
EndSplineSet
EndChar

StartChar: hyphen
Encoding: 45 45 244
Width: 658
VWidth: 0
GlyphClass: 2
Flags: W
LayerCount: 2
Fore
SplineSet
129 444 m 258
 529 444 l 258
 581 444 621 482 621 530 c 256
 621 580 582 618 529 618 c 258
 129 618 l 258
 76 618 38 580 38 530 c 256
 38 482 78 444 129 444 c 258
EndSplineSet
EndChar

StartChar: i
Encoding: 105 105 245
Width: 494
VWidth: 0
GlyphClass: 2
Flags: W
LayerCount: 2
Fore
SplineSet
253 0 m 256
 309 0 365 38 365 109 c 258
 365 890 l 258
 365 962 311 999 256 999 c 256
 200 999 145 962 145 890 c 258
 145 109 l 258
 145 35 198 0 253 0 c 256
254 1208 m 256
 334 1208 387 1258 387 1334 c 256
 387 1409 335 1460 255 1460 c 256
 175 1460 122 1409 122 1334 c 256
 122 1258 175 1208 254 1208 c 256
EndSplineSet
EndChar

StartChar: infinity
Encoding: 8734 8734 254
Width: 1633
VWidth: 0
GlyphClass: 2
Flags: W
LayerCount: 2
Fore
SplineSet
425 253 m 256
 596 253 707 369 819 496 c 257
 962 324 1075 253 1201 253 c 256
 1369 253 1530 383 1530 599 c 258
 1530 602 l 258
 1530 800 1394 932 1210 932 c 256
 1030 932 925 799 827 690 c 257
 716 823 599 932 442 932 c 256
 248 932 102 789 102 589 c 256
 102 395 254 253 425 253 c 256
441 372 m 258
 312 372 229 472 229 590 c 256
 229 715 305 816 430 816 c 256
 574 816 663 699 751 585 c 257
 670 495 571 372 444 372 c 258
 441 372 l 258
1207 372 m 256
 1100 372 1023 441 889 596 c 257
 961 673 1065 816 1200 816 c 258
 1203 816 l 258
 1318 816 1404 729 1404 590 c 256
 1404 486 1333 372 1207 372 c 256
EndSplineSet
EndChar

StartChar: integral
Encoding: 8747 8747 255
Width: 782
VWidth: 0
GlyphClass: 2
Flags: W
LayerCount: 2
Fore
SplineSet
177 -344 m 256
 346 -344 501 -244 501 196 c 256
 501 544 471 889 471 1216 c 256
 471 1509 519 1628 646 1628 c 256
 709 1628 745 1663 745 1700 c 256
 745 1736 710 1773 630 1773 c 256
 417 1773 288 1620 288 1236 c 256
 288 903 321 549 321 198 c 256
 321 -122 243 -189 159 -189 c 256
 85 -189 51 -225 51 -263 c 256
 51 -303 89 -344 177 -344 c 256
EndSplineSet
EndChar

StartChar: j
Encoding: 106 106 258
Width: 514
VWidth: 0
GlyphClass: 2
Flags: W
LayerCount: 2
Fore
SplineSet
17 -379 m 256
 334 -379 373 -273 373 -17 c 258
 373 890 l 258
 373 962 318 999 263 999 c 256
 207 999 153 962 153 890 c 258
 153 -47 l 258
 153 -202 136 -220 11 -220 c 256
 -35.1422 -220 -59.1293 -259.141 -59.1293 -298.582 c 256
 -59.1293 -338.636 -34.3924 -379 17 -379 c 256
255 1208 m 256
 335 1208 388 1258 388 1334 c 256
 388 1409 336 1460 256 1460 c 256
 176 1460 122 1409 122 1334 c 256
 122 1258 176 1208 255 1208 c 256
EndSplineSet
EndChar

StartChar: k
Encoding: 107 107 260
Width: 1028
VWidth: 0
GlyphClass: 2
Flags: W
PickledData: "(dp1
S'com.typemytype.robofont.layerData'
p2
(dp3
S'b'
(dp4
S'name'
p5
S'k'
sS'lib'
p6
(dp7
sS'unicodes'
p8
(tsS'width'
p9
I984
sS'contours'
p10
((dp11
S'points'
p12
((dp13
S'segmentType'
p14
S'line'
p15
sS'x'
I318
sS'smooth'
p16
I0
sS'y'
I536
s(dp17
g14
S'line'
p18
sS'x'
I793
sg16
I1
sS'y'
I27
s(dp19
S'y'
I9
sS'x'
I809
sg16
I0
s(dp20
S'y'
I1
sS'x'
I828
sg16
I0
s(dp21
g14
S'curve'
p22
sS'x'
I845
sg16
I1
sS'y'
I1
s(dp23
S'y'
I1
sS'x'
I883
sg16
I0
s(dp24
S'y'
I33
sS'x'
I922
sg16
I0
s(dp25
g14
S'curve'
p26
sS'x'
I922
sg16
I1
sS'y'
I71
s(dp27
S'y'
I84
sS'x'
I922
sg16
I0
s(dp28
S'y'
I99
sS'x'
I918
sg16
I0
s(dp29
g14
S'curve'
p30
sS'x'
I906
sg16
I1
sS'y'
I112
s(dp31
g14
S'line'
p32
sS'x'
I492
sg16
I0
sS'y'
I554
s(dp33
g14
S'line'
p34
sS'x'
I873
sg16
I1
sS'y'
I889
s(dp35
S'y'
I902
sS'x'
I888
sg16
I0
s(dp36
S'y'
I918
sS'x'
I894
sg16
I0
s(dp37
g14
S'curve'
p38
sS'x'
I894
sg16
I1
sS'y'
I933
s(dp39
S'y'
I968
sS'x'
I894
sg16
I0
s(dp40
S'y'
I1002
sS'x'
I858
sg16
I0
s(dp41
g14
S'curve'
p42
sS'x'
I821
sg16
I1
sS'y'
I1002
s(dp43
S'y'
I1002
sS'x'
I802
sg16
I0
s(dp44
S'y'
I994
sS'x'
I785
sg16
I0
s(dp45
g14
S'curve'
p46
sS'x'
I770
sg16
I0
sS'y'
I979
s(dp47
g14
S'line'
p48
sS'x'
I318
sg16
I0
sS'y'
I574
stp49
stp50
sS'components'
p51
(tsS'anchors'
p52
(tsss."
AnchorPoint: "bot" 553 0 basechar 0
LayerCount: 2
Fore
SplineSet
250 0 m 256
 305 0 361 38 361 110 c 258
 361 510 l 257
 819 28 l 258
 840.882 4.8885 866.27 -4.74252 890.81 -4.74252 c 256
 944.477 -4.74252 994.084 41.3196 994.084 93.1807 c 256
 994.084 114.056 986.047 135.871 967 156 c 258
 596 544 l 257
 925 853 l 258
 943.201 870.291 950.895 890.947 950.895 911.552 c 256
 950.895 961.858 905.038 1011.86 854.285 1011.86 c 256
 834.457 1011.86 813.881 1004.23 795 986 c 258
 361 570 l 257
 361 1326 l 258
 361 1397 307 1435 253 1435 c 256
 197 1435 142 1397 142 1326 c 258
 142 110 l 258
 142 37 195 0 250 0 c 256
EndSplineSet
EndChar

StartChar: kgreenlandic
Encoding: 312 312 262
Width: 1034
VWidth: 0
GlyphClass: 2
Flags: W
PickledData: "(dp1
S'com.typemytype.robofont.layerData'
p2
(dp3
S'b'
(dp4
S'name'
p5
S'kgreenlandic'
p6
sS'lib'
p7
(dp8
sS'unicodes'
p9
(tsS'width'
p10
I1047
sS'contours'
p11
(tsS'components'
p12
(tsS'anchors'
p13
(tsss."
LayerCount: 2
Fore
SplineSet
256 0 m 256
 311 0 368 38 368 110 c 258
 368 489 l 257
 825 28 l 258
 847.234 5.76622 872.68 -3.50162 897.203 -3.50162 c 256
 951.692 -3.50162 1001.62 42.2571 1001.62 93.2031 c 256
 1001.62 114.201 993.141 136.08 973 156 c 258
 602 523 l 257
 931 853 l 258
 948.536 870.536 955.963 891.307 955.963 911.983 c 256
 955.963 962.924 910.881 1013.29 860.822 1013.29 c 256
 840.823 1013.29 820.03 1005.25 801 986 c 258
 368 549 l 257
 368 902 l 258
 368 973 313 1010 259 1010 c 256
 203 1010 148 973 148 902 c 258
 148 110 l 258
 148 37 202 0 256 0 c 256
EndSplineSet
EndChar

StartChar: l
Encoding: 108 108 263
Width: 507
VWidth: 0
GlyphClass: 2
Flags: W
PickledData: "(dp1
S'com.typemytype.robofont.layerData'
p2
(dp3
S'b'
(dp4
S'name'
p5
S'l'
sS'lib'
p6
(dp7
sS'unicodes'
p8
(tsS'width'
p9
I511
sS'contours'
p10
(tsS'components'
p11
(tsS'anchors'
p12
(tsss."
AnchorPoint: "bot" 252 0 basechar 0
AnchorPoint: "caron.alt" 258 1030 basechar 0
AnchorPoint: "top" 236 1436 basechar 0
LayerCount: 2
Fore
SplineSet
254 0 m 256
 309 0 366 38 366 109 c 258
 366 1326 l 258
 366 1397 311 1435 256 1435 c 256
 200 1435 146 1397 146 1326 c 258
 146 109 l 258
 146 35 199 0 254 0 c 256
EndSplineSet
EndChar

StartChar: less
Encoding: 60 60 268
Width: 1319
VWidth: 0
GlyphClass: 2
Flags: W
PickledData: "(dp1
S'com.typemytype.robofont.layerData'
p2
(dp3
S'b'
(dp4
S'name'
p5
S'less'
p6
sS'lib'
p7
(dp8
sS'unicodes'
p9
(tsS'width'
p10
I1340
sS'contours'
p11
(tsS'components'
p12
(tsS'anchors'
p13
(tsss."
LayerCount: 2
Fore
SplineSet
1049 29 m 258
 1054.89 26.4499 1060.72 25.2762 1066.41 25.2762 c 256
 1104.92 25.2762 1136.85 79.1215 1136.85 123.855 c 256
 1136.85 147.625 1127.84 168.822 1106 178 c 258
 367 499 l 257
 1103 805 l 258
 1131.97 817.098 1143.41 839.535 1143.41 863.598 c 256
 1143.41 908.328 1103.89 958.674 1064.03 958.674 c 256
 1057.98 958.674 1051.93 957.515 1046 955 c 258
 207 602 l 258
 154.068 579.739 130.992 539.124 130.992 499.525 c 256
 130.992 459.076 155.07 419.686 196 402 c 258
 1049 29 l 258
EndSplineSet
EndChar

StartChar: lessequal
Encoding: 8804 8804 269
Width: 1197
VWidth: 0
GlyphClass: 2
Flags: W
LayerCount: 2
Fore
SplineSet
1033 252 m 256
 1076 252 1106 291 1106 330 c 256
 1106 356 1093 382 1061 395 c 258
 289 731 l 257
 1059 1051 l 258
 1092 1065 1106 1091 1106 1117 c 256
 1106 1156 1073 1197 1030 1197 c 256
 1020 1197 1009 1195 999 1190 c 258
 129 824 l 258
 80 803 57 767 57 732 c 256
 57 696 79 661 127 641 c 258
 1000 259 l 258
 1011 254 1023 252 1033 252 c 256
164 4 m 258
 1010 4 l 258
 1053 4 1075 37 1075 70 c 256
 1075 104 1053 137 1010 137 c 258
 164 137 l 258
 120 137 99 105 99 71 c 256
 99 38 120 4 164 4 c 258
EndSplineSet
EndChar

StartChar: logicalnot
Encoding: 172 172 270
Width: 1320
VWidth: 0
GlyphClass: 2
Flags: W
LayerCount: 2
Fore
SplineSet
1092 233 m 256
 1133 233 1174 259 1174 313 c 258
 1174 726 l 258
 1174 767 1133 809 1090 809 c 258
 223 809 l 258
 172 809 148 767 148 727 c 256
 148 685 172 645 223 645 c 258
 1010 645 l 257
 1010 313 l 258
 1010 259 1050 233 1092 233 c 256
EndSplineSet
EndChar

StartChar: lozenge
Encoding: 9674 9674 271
Width: 1259
VWidth: 0
GlyphClass: 2
Flags: W
LayerCount: 2
Fore
SplineSet
626 -96 m 256
 657 -96 690 -78 711 -39 c 258
 1138 720 l 257
 733 1455 l 258
 706 1504 673 1545 630 1545 c 256
 592 1545 563 1518 537 1471 c 258
 122 720 l 257
 526 -8 l 258
 551 -55 583 -96 626 -96 c 256
627 124 m 257
 300 726 l 257
 624 1319 l 257
 631 1319 l 257
 957 716 l 257
 633 124 l 257
 627 124 l 257
EndSplineSet
EndChar

StartChar: lslash
Encoding: 322 322 272
Width: 611
VWidth: 0
GlyphClass: 2
Flags: HW
LayerCount: 2
Back
SplineSet
286 698 m 5
 476 826 l 6
 495.768607875 839.31779899 503.885742188 858.791015625 503.885742188 879.202148438 c 4
 503.885742188 919.431640625 472.083007812 962.34765625 433.909179688 962.34765625 c 4
 423.572265625 962.34765625 412.852850438 959.182033378 402 952 c 6
 266 862 l 5
 56 719 l 6
 34.4618444327 704.333541685 25.3779296875 682.62890625 25.3779296875 660.455078125 c 4
 25.3779296875 620.934570312 54.068359375 580.646484375 91.4677734375 580.646484375 c 4
 102.400390625 580.646484375 113.984732757 584.039885451 126 592 c 6
 286 698 l 5
EndSplineSet
Fore
SplineSet
305 0 m 0
 360 0 417 38 417 109 c 2
 417 737.905273438 l 5
 557 833 l 6
 579 848 589 869 589 892 c 4
 589 937 553 985 510 985 c 4
 498 985 486 982 474 974 c 6
 417 936.125 l 5
 417 1326 l 2
 417 1397 362 1435 307 1435 c 0
 251 1435 197 1397 197 1326 c 2
 197 787.893554688 l 5
 87 713 l 6
 63 697 53 672 53 647 c 4
 53 603 85 558 127 558 c 4
 139 558 152 561 165 570 c 6
 197 591.155273438 l 5
 197 109 l 2
 197 35 250 0 305 0 c 0
EndSplineSet
EndChar

StartChar: m
Encoding: 109 109 273
Width: 1860
VWidth: 0
GlyphClass: 2
Flags: W
PickledData: "(dp1
S'b'
(dp2
sS'anchors'
p3
(tsS'lib'
p4
(dp5
sS'unicodes'
p6
(tsS'width'
p7
I1877
sS'contours'
p8
(tsS'components'
p9
(tsS'com.typemytype.robofont.layerData'
p10
(dp11
S'b'
(dp12
S'name'
p13
S'm'
sg4
(dp14
sg6
(tsg7
I1838
sg8
(tsg9
(tsg3
(tsssg13
S'm'
s."
AnchorPoint: "top" 993 1021 basechar 0
LayerCount: 2
Fore
SplineSet
249 0 m 256
 304 0 361 34 361 105 c 258
 361 566 l 258
 361 751 465 865 622 865 c 256
 747 865 824 791 824 628 c 258
 824 106 l 258
 824 35 878 0 933 0 c 256
 989 0 1043 35 1043 106 c 258
 1043 546 l 258
 1043 751 1156 865 1306 865 c 256
 1433 865 1508 791 1508 635 c 258
 1508 105 l 258
 1508 34 1562 0 1617 0 c 256
 1672 0 1728 34 1728 105 c 258
 1728 631 l 258
 1728 899 1566 1013 1359 1013 c 256
 1197 1013 1070 941 1009 789 c 257
 969 916 853 1013 679 1013 c 256
 546 1013 430 963 361 834 c 257
 361 903 l 258
 361 967 304 999 251 999 c 256
 195 999 140 964 140 896 c 258
 140 105 l 258
 140 34 195 0 249 0 c 256
EndSplineSet
EndChar

StartChar: macron
Encoding: 175 175 274
Width: 569
VWidth: 0
GlyphClass: 4
Flags: W
AnchorPoint: "mid" 292 1352 mark 0
AnchorPoint: "top" 293 1040 mark 0
LayerCount: 2
Fore
SplineSet
21 1279 m 258
 553 1279 l 258
 602 1279 626 1315 626 1354 c 256
 626 1392 602 1429 553 1429 c 258
 21 1429 l 258
 -29 1429 -54 1392 -54 1354 c 256
 -54 1315 -29 1279 21 1279 c 258
EndSplineSet
EndChar

StartChar: minus
Encoding: 8722 8722 276
Width: 750
VWidth: 0
GlyphClass: 2
Flags: W
LayerCount: 2
Fore
SplineSet
127 442 m 258
 618 442 l 258
 676 442 706 486 706 530 c 256
 706 575 676 620 618 620 c 258
 127 620 l 258
 67 620 38 576 38 531 c 256
 38 487 69 442 127 442 c 258
EndSplineSet
EndChar

StartChar: mu
Encoding: 181 181 277
Width: 1188
VWidth: 0
GlyphClass: 2
Flags: W
LayerCount: 2
Fore
SplineSet
248 -277 m 256
 304 -277 361 -240 361 -168 c 258
 361 39 l 257
 406 13 458 1 516 1 c 256
 643 1 774 61 828 178 c 257
 828 102 l 258
 828 35 882 0 936 0 c 256
 992 0 1047 35 1047 105 c 258
 1047 893 l 258
 1047 963 993 997 938 997 c 256
 882 997 828 963 828 893 c 258
 828 383 l 257
 816 208 702 123 564 123 c 256
 456 123 361 197 361 353 c 258
 361 892 l 258
 361 962 306 997 250 997 c 256
 195 997 141 962 141 892 c 258
 141 -168 l 258
 141 -242 194 -277 248 -277 c 256
EndSplineSet
EndChar

StartChar: multiply
Encoding: 215 215 278
Width: 1320
VWidth: 0
GlyphClass: 2
Flags: W
LayerCount: 2
Fore
SplineSet
357 114 m 256
 376 114 394 121 412 138 c 258
 659 386 l 257
 898 148 l 258
 914 132 930 123 951 124 c 256
 995 124 1037 166 1037 210 c 256
 1037 227 1029 247 1014 263 c 258
 775 502 l 257
 1022 749 l 258
 1040 768 1046 787 1046 805 c 256
 1046 848 1008 887 965 887 c 256
 944 887 925 878 909 862 c 258
 662 615 l 257
 423 854 l 258
 406 871 387 878 368 878 c 256
 324 878 283 836 283 793 c 256
 283 774 290 755 306 739 c 258
 546 499 l 257
 299 252 l 258
 282 235 274 217 274 197 c 256
 274 154 315 114 357 114 c 256
EndSplineSet
EndChar

StartChar: n
Encoding: 110 110 279
Width: 1178
VWidth: 0
GlyphClass: 2
Flags: W
PickledData: "(dp1
S'b'
(dp2
sS'anchors'
p3
(tsS'lib'
p4
(dp5
sS'unicodes'
p6
(tsS'y'
I113
sS'width'
p7
I1195
sS'points'
p8
(dp9
sS'contours'
p10
(dp11
sS'components'
p12
(tsS'segmentType'
p13
S'curve'
p14
sS'x'
I137
sS'com.typemytype.robofont.layerData'
p15
(dp16
S'b'
(dp17
S'name'
p18
S'n'
sg4
(dp19
sg6
(tsg7
I1152
sg10
(tsg12
(tsg3
(tsssg18
S'n'
s."
AnchorPoint: "bot" 599 0 basechar 0
AnchorPoint: "top" 619 991 basechar 0
LayerCount: 2
Fore
SplineSet
250 0 m 256
 306 0 360 36 360 105 c 258
 360 560 l 257
 362 750 486 865 622 865 c 256
 739 865 828 789 828 632 c 258
 828 105 l 258
 828 35 882 0 936 0 c 256
 992 0 1047 35 1047 105 c 258
 1047 630 l 258
 1047 899 877 1013 684 1013 c 256
 534 1013 416 954 360 843 c 257
 360 899 l 258
 360 966 306 999 251 999 c 256
 195 999 140 964 140 896 c 258
 140 105 l 258
 140 35 195 0 250 0 c 256
EndSplineSet
EndChar

StartChar: nine
Encoding: 57 57 284
Width: 1203
VWidth: 0
GlyphClass: 2
Flags: W
PickledData: "(dp1
S'com.typemytype.robofont.layerData'
p2
(dp3
S'b'
(dp4
S'name'
p5
S'nine'
p6
sS'lib'
p7
(dp8
sS'unicodes'
p9
(tsS'width'
p10
I1160
sS'contours'
p11
(tsS'components'
p12
(tsS'anchors'
p13
(tsss."
LayerCount: 2
Fore
SplineSet
516 -22 m 256
 1017 -22 1127 382 1127 812 c 256
 1127 1167 986 1472 576 1472 c 256
 265 1472 71 1275 71 997 c 256
 71 727 264 543 539 543 c 256
 540.13 542.993 541.258 542.989 542.385 542.989 c 256
 700.915 542.989 835.247 612.635 870 702 c 257
 870 406 821 176 522 176 c 256
 448 176 360 196 269 235 c 256
 260.699 238.413 252.569 239.979 244.719 239.979 c 256
 195.751 239.979 157.74 179.004 157.74 124.875 c 256
 157.74 93.6088 170.422 64.627 201 51 c 256
 296 6 407 -22 516 -22 c 256
570.409 715.941 m 256
 388.122 715.941 309 836.779 309 1003 c 256
 309 1182 408 1279 587 1279 c 256
 754 1279 857 1170 857 1008 c 256
 857 827.393 755.702 715.941 570.409 715.941 c 256
EndSplineSet
EndChar

StartChar: notequal
Encoding: 8800 8800 285
Width: 1177
VWidth: 0
GlyphClass: 2
Flags: W
LayerCount: 2
Fore
SplineSet
364 -21 m 256
 395 -21 424 -5 440 32 c 258
 551 278 l 257
 1034 278 l 258
 1087 278 1114 317 1114 359 c 256
 1114 398 1087 438 1034 438 c 258
 618 438 l 257
 730 691 l 257
 1034 691 l 258
 1087 691 1113 730 1113 770 c 256
 1113 811 1086 851 1034 851 c 258
 797 851 l 257
 879 1030 l 258
 884 1042 886 1055 887 1068 c 256
 887 1114 846 1143 804 1143 c 256
 771 1143 742 1128 725 1090 c 258
 620 851 l 257
 171 851 l 258
 117 851 91 812 91 771 c 256
 91 731 117 691 171 691 c 258
 553 691 l 257
 440 438 l 257
 171 438 l 258
 118 438 92 400 92 359 c 256
 92 317 119 278 171 278 c 258
 375 278 l 257
 290 93 l 258
 284 79 281 67 282 56 c 256
 282 9 322 -21 364 -21 c 256
EndSplineSet
EndChar

StartChar: numbersign
Encoding: 35 35 287
Width: 1218
VWidth: 0
GlyphClass: 2
Flags: W
PickledData: "(dp1
S'com.typemytype.robofont.layerData'
p2
(dp3
S'b'
(dp4
S'name'
p5
S'numbersign'
p6
sS'lib'
p7
(dp8
sS'unicodes'
p9
(tsS'width'
p10
I1169
sS'contours'
p11
(tsS'components'
p12
(tsS'anchors'
p13
(tsss."
LayerCount: 2
Fore
SplineSet
315 -43 m 256
 350 -43 386 -21 393 26 c 258
 455 448 l 257
 697 448 l 257
 652 131 639 39 639 34 c 256
 638 -17 677 -43 716 -43 c 256
 752 -43 787 -21 794 26 c 258
 856 448 l 257
 989 448 l 258
 1040 448 1064 485 1064 522 c 256
 1064 560 1039 598 989 598 c 258
 878 598 l 257
 915 859 l 257
 1046 859 l 258
 1097 859 1121 896 1121 934 c 256
 1121 971 1096 1009 1046 1009 c 258
 937 1009 l 257
 980 1299 992 1384 992 1388 c 256
 993 1437 953 1463 914 1463 c 256
 877 1463 841 1441 834 1393 c 258
 778 1009 l 257
 535 1009 l 257
 578 1299 590 1384 590 1388 c 256
 592 1438 552 1463 513 1463 c 256
 475 1463 439 1441 432 1393 c 258
 376 1009 l 257
 227 1009 l 258
 178 1009 153 972 153 935 c 256
 153 897 178 859 227 859 c 258
 355 859 l 257
 317 598 l 257
 171 598 l 258
 121 598 96 561 96 523 c 256
 96 486 121 448 171 448 c 258
 296 448 l 257
 250 131 237 39 237 35 c 256
 235 -17 276 -43 315 -43 c 256
476 598 m 257
 514 859 l 257
 756 859 l 257
 719 598 l 257
 476 598 l 257
EndSplineSet
EndChar

StartChar: o
Encoding: 111 111 288
Width: 1185
VWidth: 0
GlyphClass: 2
Flags: W
PickledData: "(dp1
S'b'
(dp2
sS'anchors'
p3
(tsS'com.typemytype.robofont.layerData'
p4
(dp5
S'b'
(dp6
S'name'
p7
S'o'
sS'lib'
p8
(dp9
sS'unicodes'
p10
(tsS'width'
p11
I1144
sS'contours'
p12
(tsS'components'
p13
(tsg3
(tsssg10
(tsg7
S'o'
sg11
I1199
sg12
(tsg13
(tsg8
(dp14
sS'com.typemytype.robofont.guides'
p15
(ts."
AnchorPoint: "top" 591 993 basechar 0
LayerCount: 2
Fore
SplineSet
594 135 m 256
 408 135 298 270 298 498 c 256
 298 728 408 865 594 865 c 256
 780 865 890 727 890 498 c 256
 890 270 781 135 594 135 c 256
594 -14 m 256
 943 -14 1107 239 1107 498 c 256
 1107 772 934 1013 594 1013 c 256
 249 1013 81 765 81 498 c 256
 81 237 246 -14 594 -14 c 256
EndSplineSet
EndChar

StartChar: oe
Encoding: 339 339 293
Width: 1852
VWidth: 0
GlyphClass: 2
Flags: W
LayerCount: 2
Fore
SplineSet
1293 -30 m 256
 1494 -30 1696 58 1696 167 c 256
 1696 201 1673 232 1639 232 c 256
 1627 232 1615 228 1603 221 c 256
 1536 181 1442 134 1340 134 c 256
 1128 134 1053 274 1050 458 c 257
 1684 458 l 258
 1731 458 1753 493 1753 528 c 256
 1748 814 1608 1028 1301 1028 c 256
 1138 1028 1017 945 942 822 c 257
 869 942 748 1025 576 1025 c 256
 239 1025 78 776 78 498 c 256
 78 225 239 -25 576 -25 c 256
 745 -25 865 59 939 182 c 257
 1011 53 1129 -30 1293 -30 c 256
576 123 m 256
 383 123 304 310 304 498 c 256
 304 688 383 875 576 875 c 256
 770 875 841 681 841 491 c 257
 837 304 762 123 576 123 c 256
1049 586 m 257
 1060 750 1143 882 1296 882 c 256
 1456 882 1537 764 1548 586 c 257
 1049 586 l 257
EndSplineSet
EndChar

StartChar: ogonek
Encoding: 731 731 294
Width: 569
VWidth: 0
GlyphClass: 4
Flags: W
AnchorPoint: "ogonek" 243 0 mark 0
LayerCount: 2
Fore
SplineSet
453 -419 m 257
 453 -318 l 257
 364.769 -318 251.432 -293.941 251.432 -177.736 c 256
 251.432 -133.261 268.034 -75.288 309 0 c 257
 205 0 l 257
 115.284 -105.106 76.8144 -200.026 76.8144 -275.67 c 256
 76.8144 -386.078 158.769 -455.418 282.945 -455.418 c 256
 333.521 -455.418 391.101 -443.915 453 -419 c 257
EndSplineSet
EndChar

StartChar: one
Encoding: 49 49 298
Width: 1203
VWidth: 0
GlyphClass: 2
Flags: W
PickledData: "(dp1
S'com.typemytype.robofont.layerData'
p2
(dp3
S'b'
(dp4
S'name'
p5
S'one'
p6
sS'lib'
p7
(dp8
sS'unicodes'
p9
(tsS'width'
p10
I1160
sS'contours'
p11
(tsS'components'
p12
(tsS'anchors'
p13
(tsss."
LayerCount: 2
Fore
SplineSet
672 0 m 256
 733 0 795 39 795 117 c 258
 794 1314 l 258
 794 1395 737 1435 677 1435 c 256
 656 1433 632 1429 612 1418 c 257
 257 1201 l 258
 227 1183 215 1157 215 1131 c 256
 215 1086 253 1043 301 1043 c 256
 316 1043 332 1047 347 1056 c 258
 550 1186 l 257
 551 117 l 258
 551 39 612 0 672 0 c 256
EndSplineSet
EndChar

StartChar: onehalf
Encoding: 189 189 299
Width: 1636
VWidth: 0
GlyphClass: 2
Flags: W
LayerCount: 2
Fore
SplineSet
1029 -1 m 258
 1467 -1 l 258
 1502 -1 1519 26 1519 52 c 256
 1519 79 1501 107 1467 107 c 258
 1117 107 l 257
 1280 240 1512 456 1512 630 c 256
 1512 765 1395 837 1248 837 c 256
 1154 837 992 784 992 721 c 256
 992 696 1012 674 1042 674 c 256
 1052 674 1062 676 1072 681 c 256
 1114 703 1174 727 1233 727 c 256
 1305 727 1373 691 1373 617 c 256
 1373 525 1243 377 1128 269 c 257
 1035 171 951 124 951 63 c 256
 951 28 975 -1 1029 -1 c 258
401 589 m 256
 432 589 465 609 465 651 c 258
 465 1334 l 258
 465 1380 437 1403 406 1403 c 256
 393 1403 381 1400 371 1393 c 258
 166 1267 l 258
 149 1256 142 1241 142 1227 c 256
 142 1201 163 1176 191 1176 c 256
 201 1176 209 1179 218 1184 c 258
 338 1260 l 257
 338 651 l 258
 338 609 368 589 401 589 c 256
539 -78 m 256
 567 -78 593 -64 605 -30 c 258
 1076 1353 l 258
 1079 1364 1080 1373 1080 1380 c 256
 1080 1423 1045 1447 1008 1447 c 256
 980 1447 952 1432 940 1398 c 258
 472 15 l 258
 469 5 467 -4 467 -11 c 256
 467 -53 502 -78 539 -78 c 256
EndSplineSet
EndChar

StartChar: onequarter
Encoding: 188 188 300
Width: 1616
VWidth: 0
GlyphClass: 2
Flags: W
PickledData: "(dp1
S'com.typemytype.robofont.layerData'
p2
(dp3
S'b'
(dp4
S'name'
p5
S'onequarter'
p6
sS'lib'
p7
(dp8
sS'unicodes'
p9
(tsS'width'
p10
I1543
sS'contours'
p11
(tsS'components'
p12
(tsS'anchors'
p13
(tsss."
LayerCount: 2
Fore
SplineSet
1342 1 m 256
 1372 1 1402 22 1402 64 c 258
 1402 184 l 257
 1479 184 l 258
 1513 184 1528 206 1528 228 c 256
 1528 251 1512 272 1479 272 c 258
 1402 272 l 257
 1402 737 l 258
 1402 805 1366 838 1316 838 c 256
 1270 838 1233 822 1201 764 c 257
 894 283 l 258
 885 269 881 255 881 242 c 256
 881 209 907 184 949 184 c 258
 1282 184 l 257
 1282 64 l 258
 1282 22 1312 1 1342 1 c 256
401 589 m 256
 432 589 465 609 465 651 c 258
 465 1334 l 258
 465 1380 437 1403 406 1403 c 256
 393 1403 381 1400 371 1393 c 258
 166 1267 l 258
 149 1256 142 1241 142 1227 c 256
 142 1201 163 1176 191 1176 c 256
 201 1176 209 1179 218 1184 c 258
 338 1260 l 257
 338 651 l 258
 338 609 368 589 401 589 c 256
544 -78 m 256
 571 -78 599 -64 611 -30 c 258
 1081 1353 l 258
 1084 1364 1086 1373 1086 1381 c 256
 1086 1423 1050 1447 1013 1447 c 256
 986 1447 957 1432 946 1398 c 258
 478 15 l 258
 475 5 473 -5 473 -12 c 256
 473 -53 509 -78 544 -78 c 256
1000 271 m 257
 1282 723 l 257
 1282 271 l 257
 1000 271 l 257
EndSplineSet
EndChar

StartChar: uni00B9
Encoding: 185 185 301
Width: 698
VWidth: 0
GlyphClass: 2
Flags: W
LayerCount: 2
Fore
SplineSet
425 589 m 256
 456 589 489 609 489 651 c 258
 489 1334 l 258
 489 1380 461 1403 430 1403 c 256
 418 1403 405 1400 395 1393 c 258
 190 1267 l 258
 173 1256 166 1241 166 1227 c 256
 166 1201 188 1176 215 1176 c 256
 225 1176 233 1179 242 1184 c 258
 362 1260 l 257
 362 651 l 258
 362 609 392 589 425 589 c 256
EndSplineSet
EndChar

StartChar: ordfeminine
Encoding: 170 170 302
Width: 1073
VWidth: 0
GlyphClass: 2
Flags: W
LayerCount: 2
Fore
SplineSet
393 715 m 256
 495 715 601 766 642 862 c 257
 643 801 l 258
 643 757 680 735 715 735 c 256
 752 735 790 758 790 806 c 258
 791 1240 l 258
 791 1434 667 1512 489 1512 c 256
 353 1512 249 1477 198 1407 c 256
 189 1397 186 1387 186 1376 c 256
 186 1350 207 1327 235 1327 c 256
 244 1327 252 1329 259 1333 c 256
 320 1364 380 1393 482 1393 c 256
 576 1393 639 1357 639 1253 c 258
 639 1197 l 257
 615 1198 581 1199 559 1199 c 256
 302 1199 134 1128 134 943 c 256
 134 798 245 715 393 715 c 256
437 818 m 257
 355 821 288 862 288 952 c 256
 288 1100 483 1100 639 1100 c 257
 639 1037 l 257
 634 894 549 821 437 818 c 257
EndSplineSet
EndChar

StartChar: ordmasculine
Encoding: 186 186 303
Width: 1084
VWidth: 0
GlyphClass: 2
Flags: W
LayerCount: 2
Fore
SplineSet
527 848 m 256
 372 848 307 991 307 1122 c 256
 307 1255 372 1398 527 1398 c 256
 683 1398 747 1255 747 1124 c 256
 747 991 683 848 527 848 c 256
527 735 m 256
 802 735 925 922 925 1123 c 256
 925 1324 802 1512 527 1512 c 256
 253 1512 130 1324 130 1123 c 256
 130 922 253 735 527 735 c 256
EndSplineSet
EndChar

StartChar: oslash
Encoding: 248 248 304
Width: 1192
VWidth: 0
GlyphClass: 2
Flags: W
AnchorPoint: "top" 575 991 basechar 0
LayerCount: 2
Fore
SplineSet
689.75 850.958 m 257
 398.376 207.063 l 257
 333.54 268.852 298 368.402 298 498 c 256
 298 728 408 865 594 865 c 256
 628.623 865 660.613 860.218 689.75 850.958 c 257
804.426 776.102 m 257
 859.849 712.841 890 617.892 890 498 c 256
 890 270 781 135 594 135 c 256
 566.78 135 541.187 137.891 517.328 143.542 c 257
 804.426 776.102 l 257
329 -178 m 256
 354 -178 376 -166 390 -137 c 258
 452.813 1.3957 l 257
 495.987 -8.61571 543.031 -14 594 -14 c 256
 943 -14 1107 239 1107 498 c 256
 1107 680.393 1030.34 848.163 878.794 939.958 c 257
 936 1066 l 258
 944 1083 954 1104 954 1120 c 256
 954 1159 920 1183 885 1183 c 256
 857 1183 834 1170 821 1141 c 258
 753.955 992.841 l 257
 705.555 1005.93 652.226 1013 594 1013 c 256
 249 1013 81 765 81 498 c 256
 81 316.369 160.906 139.582 326.785 48.8567 c 257
 273 -70 l 258
 266 -85 261 -99 261 -114 c 256
 261 -152 294 -178 329 -178 c 256
EndSplineSet
EndChar

StartChar: p
Encoding: 112 112 307
Width: 1207
VWidth: 0
GlyphClass: 2
Flags: W
PickledData: "(dp1
S'b'
(dp2
sS'anchors'
p3
(tsS'lib'
p4
(dp5
sS'unicodes'
p6
(tsS'width'
p7
I1207
sS'contours'
p8
(tsS'components'
p9
(tsS'com.typemytype.robofont.layerData'
p10
(dp11
S'b'
(dp12
S'name'
p13
S'p'
sg4
(dp14
sg6
(tsg7
I1181
sg8
(tsg9
(tsg3
(tsssg13
S'p'
s."
LayerCount: 2
Fore
SplineSet
250 -381 m 256
 305 -381 360 -347 360 -279 c 258
 360 152 l 257
 426 41 533 -14 679 -14 c 256
 957 -14 1125 194 1125 493 c 256
 1125 768 975 1013 693 1013 c 256
 545 1013 428 960 360 838 c 257
 360 894 l 258
 360 967 315 999 251 999 c 256
 197 999 140 962 140 893 c 258
 140 -279 l 258
 140 -347 195 -381 250 -381 c 256
639 135 m 256
 436 135 361 314 361 496 c 256
 361 721 428 865 643 865 c 256
 848 864 906 651 906 494 c 256
 906 327 843 135 639 135 c 256
EndSplineSet
EndChar

StartChar: paragraph
Encoding: 182 182 308
Width: 1315
VWidth: 0
GlyphClass: 2
Flags: W
LayerCount: 2
Fore
SplineSet
605 -221 m 256
 648 -221 691 -193 691 -139 c 258
 691 1295 l 257
 904 1295 l 257
 904 -139 l 258
 904 -194 946 -221 989 -221 c 256
 1032 -221 1074 -194 1074 -139 c 258
 1075 1296 l 258
 1075 1367 1068 1436 943 1436 c 258
 563 1436 l 258
 278 1436 116 1289 116 1062 c 256
 116 865 290 696 519 696 c 257
 519 -139 l 258
 519 -194 562 -221 605 -221 c 256
EndSplineSet
EndChar

StartChar: parenleft
Encoding: 40 40 309
Width: 631
VWidth: 0
GlyphClass: 2
Flags: W
LayerCount: 2
Fore
SplineSet
440 -236 m 256
 486 -236 525 -201 525 -150 c 256
 525 -132 519 -115 513 -97 c 256
 427 147 378 387 378 622 c 256
 378 861 429 1108 516 1353 c 256
 522 1371 527 1389 527 1405 c 256
 527 1458 487 1492 441 1492 c 256
 398 1492 361 1454 340 1397 c 256
 237 1142 153 883 153 620 c 256
 153 351 240 88 352 -173 c 256
 371 -219 408 -236 440 -236 c 256
EndSplineSet
EndChar

StartChar: parenright
Encoding: 41 41 310
Width: 631
VWidth: 0
GlyphClass: 2
Flags: W
LayerCount: 2
Fore
SplineSet
193 -236 m 256
 225 -236 263 -220 283 -173 c 256
 394 87 483 350 483 620 c 256
 483 881 398 1141 295 1397 c 256
 272 1454 237 1491 195 1491 c 256
 148 1491 108 1455 108 1406 c 256
 108 1387 113 1371 119 1353 c 256
 206 1107 258 860 258 623 c 256
 258 386 208 144 122 -98 c 256
 115 -116 109 -135 109 -151 c 256
 109 -201 147 -236 193 -236 c 256
EndSplineSet
EndChar

StartChar: partialdiff
Encoding: 8706 8706 311
Width: 1207
VWidth: 0
GlyphClass: 2
Flags: W
LayerCount: 2
Fore
SplineSet
536 -25 m 256
 897 -25 1105 334 1105 826 c 256
 1105 1361 859 1618 526 1618 c 256
 381 1618 259 1577 160 1533 c 256
 123 1516 110 1489 110 1461 c 256
 110 1418 145 1373 190 1373 c 256
 200 1373 209 1375 219 1379 c 256
 305 1414 406 1446 514 1446 c 256
 752 1446 897 1257 897 852 c 256
 897 826 897 808 895 798 c 257
 884 813 741 993 546 993 c 256
 290 993 82 786 82 460 c 256
 82 232 226 -25 536 -25 c 256
554 143 m 258
 400 143 293 276 293 459 c 256
 293 663 424 829 589 829 c 256
 742 829 847 701 872 616 c 257
 848 374 731 143 556 143 c 258
 554 143 l 258
EndSplineSet
EndChar

StartChar: percent
Encoding: 37 37 312
Width: 2080
VWidth: 0
GlyphClass: 2
Flags: W
LayerCount: 2
Fore
SplineSet
625 -67 m 256
 652 -67 673 -43 690 -13 c 258
 1445 1333 l 257
 1455 1353 1465 1374 1465 1392 c 256
 1465 1426 1436 1455 1404 1455 c 256
 1382 1455 1359 1443 1343 1414 c 258
 577 45 l 258
 568 29 557 8 557 -5 c 256
 557 -40 589 -67 625 -67 c 256
541 748 m 256
 412 748 366 868 366 1022 c 256
 366 1175 414 1295 541 1295 c 256
 669 1295 717 1175 717 1022 c 256
 717 868 669 748 541 748 c 256
541 619 m 256
 757 619 893 793 893 1022 c 256
 893 1213 797 1425 541 1425 c 256
 322 1425 190 1248 190 1022 c 256
 190 781 320 619 541 619 c 256
1538 98 m 256
 1407 98 1363 218 1363 371 c 256
 1363 524 1409 644 1538 644 c 256
 1668 644 1713 521 1713 371 c 256
 1713 214 1664 98 1538 98 c 256
1538 -33 m 256
 1758 -33 1889 146 1889 371 c 256
 1889 560 1795 773 1538 773 c 256
 1320 773 1187 597 1187 371 c 256
 1187 132 1317 -33 1538 -33 c 256
EndSplineSet
EndChar

StartChar: period
Encoding: 46 46 313
Width: 610
VWidth: 0
GlyphClass: 2
Flags: W
LayerCount: 2
Fore
SplineSet
305 -3 m 256
 384 -3 437 56 437 121 c 256
 437 189 381 245 305 245 c 256
 224 245 172 185 172 121 c 256
 172 54 227 -3 305 -3 c 256
EndSplineSet
EndChar

StartChar: periodcentered
Encoding: 183 183 314
Width: 609
VWidth: 0
GlyphClass: 2
Flags: W
LayerCount: 2
Fore
SplineSet
300 393 m 256
 381 393 433 452 433 519 c 256
 433 584 381 644 300 644 c 256
 219 644 167 584 167 519 c 256
 167 452 219 393 300 393 c 256
EndSplineSet
EndChar

StartChar: perthousand
Encoding: 8240 8240 315
Width: 2319
VWidth: 0
GlyphClass: 2
Flags: W
LayerCount: 2
Fore
SplineSet
375 -67 m 256
 402 -67 424 -43 440 -13 c 258
 1196 1333 l 258
 1206 1352 1216 1374 1216 1392 c 256
 1216 1427 1187 1455 1154 1455 c 256
 1131 1455 1110 1443 1093 1414 c 258
 328 45 l 258
 319 29 308 9 308 -5 c 256
 308 -38 340 -67 375 -67 c 256
369 757 m 256
 238 757 194 882 194 1030 c 256
 194 1173 237 1302 369 1302 c 256
 500 1302 543 1175 543 1030 c 256
 543 874 494 757 369 757 c 256
365 634 m 256
 588 634 700 814 700 1035 c 256
 700 1254 576 1425 373 1425 c 256
 150 1425 37 1244 37 1025 c 256
 37 802 162 634 365 634 c 256
1175 91 m 256
 1043 91 1001 217 1001 363 c 256
 1001 508 1044 635 1175 635 c 256
 1305 635 1349 510 1349 363 c 256
 1349 209 1301 91 1175 91 c 256
1171 -33 m 256
 1393 -33 1507 148 1507 367 c 256
 1507 591 1381 758 1179 758 c 256
 957 758 843 578 843 358 c 256
 843 136 968 -33 1171 -33 c 256
1924 91 m 256
 1792 91 1749 217 1749 363 c 256
 1749 515 1797 635 1924 635 c 256
 2055 635 2098 508 2098 363 c 256
 2098 207 2050 91 1924 91 c 256
1920 -33 m 256
 2142 -33 2255 148 2255 367 c 256
 2255 587 2133 758 1928 758 c 256
 1705 758 1592 578 1592 358 c 256
 1592 134 1719 -33 1920 -33 c 256
EndSplineSet
EndChar

StartChar: pi
Encoding: 960 960 316
Width: 1268
VWidth: 0
GlyphClass: 2
Flags: W
PickledData: "(dp1
S'com.typemytype.robofont.layerData'
p2
(dp3
S'b'
(dp4
S'name'
p5
S'pi'
p6
sS'lib'
p7
(dp8
sS'unicodes'
p9
(tsS'width'
p10
I1285
sS'contours'
p11
(tsS'components'
p12
(tsS'anchors'
p13
(tsss."
LayerCount: 2
Fore
SplineSet
975 -16 m 256
 1058.21 -4.6902 1083.01 24.7296 1083.01 76.4769 c 256
 1083.01 152.842 1029 277.831 1029 465 c 258
 1029 906 l 257
 1113 906 l 258
 1169 906 1197 949 1197 992 c 256
 1197 1034 1169 1077 1113 1077 c 258
 208 1077 l 258
 142 1077 109 1034 109 992 c 256
 109 949 142 906 208 906 c 258
 287 906 l 257
 287 641 212 348 125 107 c 256
 119.724 93.4052 117.321 80.7162 117.321 69.0405 c 256
 117.321 15.0339 168.753 -17.2918 225.32 -17.2918 c 256
 277.064 -17.2918 333.103 9.75637 358 72 c 256
 431 258 480 642 489 906 c 257
 822 906 l 257
 822 417 l 258
 822 63.0496 852.981 -18.5936 943.653 -18.5936 c 256
 953.4 -18.5936 963.837 -17.6501 975 -16 c 256
EndSplineSet
EndChar

StartChar: plus
Encoding: 43 43 317
Width: 1319
VWidth: 0
GlyphClass: 2
Flags: W
LayerCount: 2
Fore
SplineSet
659 3 m 256
 715 3 742 51 742 96 c 258
 742 419 l 257
 1078 419 l 258
 1129 419 1173 450 1173 500 c 256
 1173 556 1124 581 1078 581 c 258
 742 581 l 257
 742 906 l 258
 742 957 711 1000 659 1000 c 256
 601 1000 576 952 576 906 c 258
 576 581 l 257
 241 581 l 258
 188 581 145 551 145 500 c 256
 145 446 194 419 241 419 c 258
 576 419 l 257
 576 96 l 258
 576 42 606 3 659 3 c 256
EndSplineSet
EndChar

StartChar: plusminus
Encoding: 177 177 318
Width: 1320
VWidth: 0
GlyphClass: 2
Flags: W
LayerCount: 2
Fore
SplineSet
658 233 m 256
 700 233 741 260 741 311 c 258
 741 534 l 257
 1091 534 l 258
 1144 534 1172 575 1172 614 c 256
 1172 656 1145 694 1091 694 c 258
 741 694 l 257
 741 919 l 258
 741 971 702 997 660 997 c 256
 619 997 578 971 578 919 c 258
 578 694 l 257
 229 694 l 258
 175 694 149 655 149 614 c 256
 149 575 175 534 229 534 c 258
 578 534 l 257
 578 311 l 258
 578 259 617 233 658 233 c 256
229 0 m 258
 1091 0 l 258
 1144 0 1172 40 1172 80 c 256
 1172 121 1146 160 1091 160 c 258
 229 160 l 258
 175 160 149 121 149 80 c 256
 149 40 175 0 229 0 c 258
EndSplineSet
EndChar

StartChar: product
Encoding: 8719 8719 319
Width: 1529
VWidth: 0
GlyphClass: 2
Flags: W
LayerCount: 2
Fore
SplineSet
396 0 m 256
 448 0 500 34 500 104 c 258
 500 1258 l 257
 1034 1258 l 257
 1034 102 l 258
 1034 33 1086 0 1139 0 c 256
 1192 0 1246 34 1246 102 c 258
 1247 1258 l 257
 1375 1258 l 258
 1429 1258 1455 1304 1455 1350 c 256
 1455 1397 1429 1443 1376 1443 c 258
 152 1443 l 258
 94 1443 66 1396 66 1351 c 256
 66 1304 95 1258 149 1258 c 258
 289 1258 l 257
 289 104 l 258
 289 35 342 0 396 0 c 256
EndSplineSet
EndChar

StartChar: q
Encoding: 113 113 320
Width: 1207
VWidth: 0
GlyphClass: 2
Flags: W
PickledData: "(dp1
S'b'
(dp2
sS'anchors'
p3
(tsS'lib'
p4
(dp5
sS'unicodes'
p6
(tsS'width'
p7
I1207
sS'contours'
p8
(tsS'components'
p9
(tsS'com.typemytype.robofont.layerData'
p10
(dp11
S'b'
(dp12
S'name'
p13
S'p'
sg4
(dp14
sg6
(tsg7
I1181
sg8
(tsg9
(tsg3
(tsssg13
S'p'
s."
LayerCount: 2
Fore
SplineSet
957 -381 m 256
 1012 -381 1066 -347 1066 -279 c 258
 1066 893 l 258
 1066 962 1010 999 955 999 c 256
 891 999 847 967 847 894 c 258
 847 838 l 257
 779 960 662 1013 513 1013 c 256
 231 1013 81 768 81 493 c 256
 81 194 250 -14 528 -14 c 256
 674 -14 781 41 847 152 c 257
 847 -279 l 258
 847 -347 901 -381 957 -381 c 256
567 135 m 256
 364 135 300 327 300 494 c 256
 300 651 358 864 563 865 c 256
 779 865 846 721 846 496 c 256
 846 314 771 135 567 135 c 256
EndSplineSet
EndChar

StartChar: question
Encoding: 63 63 321
Width: 1045
VWidth: 0
GlyphClass: 2
Flags: W
LayerCount: 2
Fore
SplineSet
319 461 m 258
 320.494 399.256 372.567 369.248 424.232 369.248 c 256
 476.326 369.248 528.004 399.756 527 459 c 258
 526 541 l 258
 525 697 921 774 921 1086 c 256
 921 1351 724 1457 489 1457 c 256
 393 1457 288 1443 191 1416 c 256
 137 1401 113 1361 113 1323 c 256
 113 1270 147 1228 199 1228 c 256
 244 1228 367 1257 434 1257 c 256
 551 1257 665 1222 665 1068 c 256
 665 843 318 767 318 561 c 257
 319 461 l 258
426 -30 m 256
 506 -30 558 29 558 96 c 256
 558 163 503 218 426 218 c 256
 344 218 294 159 294 96 c 256
 294 29 346 -30 426 -30 c 256
EndSplineSet
EndChar

StartChar: quotedbl
Encoding: 34 34 323
Width: 736
VWidth: 0
GlyphClass: 2
Flags: W
LayerCount: 2
Fore
SplineSet
211 968 m 256
 242 968 273 993 278 1045 c 258
 308 1400 l 257
 309 1452 261 1478 212 1478 c 256
 163 1478 113 1452 114 1398 c 256
 114 1396 120 1324 144 1045 c 256
 148 993 180 968 211 968 c 256
517 968 m 256
 548 968 580 993 585 1045 c 258
 614 1400 l 257
 615 1452 567 1478 519 1478 c 256
 470 1478 420 1451 421 1400 c 256
 421 1397 427 1324 451 1045 c 256
 456 993 486 968 517 968 c 256
EndSplineSet
EndChar

StartChar: quotedblbase
Encoding: 8222 8222 324
Width: 1158
VWidth: 0
GlyphClass: 2
Flags: W
PickledData: "(dp1
S'b'
(dp2
sS'anchors'
p3
(tsS'lib'
p4
(dp5
sS'unicodes'
p6
(tsS'width'
p7
I1161
sS'contours'
p8
(tsS'components'
p9
(tsS'com.typemytype.robofont.layerData'
p10
(dp11
S'b'
(dp12
S'name'
p13
S'quotedblbase'
p14
sg4
(dp15
sg6
(tsg7
I1146
sg8
(tsg9
(tsg3
(tsssg13
S'quotedblbase'
p16
s."
LayerCount: 2
Fore
SplineSet
245 -263 m 258
 319 -263 l 258
 320.104 -263.038 321.188 -263.057 322.252 -263.057 c 256
 349.138 -263.057 363.457 -250.782 375 -220 c 258
 546 222 l 258
 547.8 226.2 549.24 232.65 549.24 239.703 c 256
 549.24 256.16 541.4 275.9 512 278 c 257
 372 278 l 257
 340 277 307 269 299 222 c 258
 221 -220 l 258
 220.484 -223.098 219.967 -227.397 219.967 -232.086 c 256
 219.967 -245.559 224.23 -262.258 245 -263 c 258
664 -263 m 258
 738 -263 l 258
 739.104 -263.038 740.189 -263.057 741.256 -263.057 c 256
 768.211 -263.057 783.419 -250.782 794 -220 c 257
 966 222 l 258
 967.488 226.167 968.799 232.549 968.799 239.537 c 256
 968.799 256.027 961.499 275.893 932 278 c 257
 792 278 l 257
 760 277 727 269 719 222 c 258
 640 -220 l 258
 639.484 -223.098 638.967 -227.397 638.967 -232.086 c 256
 638.967 -245.559 643.23 -262.258 664 -263 c 258
EndSplineSet
EndChar

StartChar: quotedblleft
Encoding: 8220 8220 325
Width: 1158
VWidth: 0
GlyphClass: 2
Flags: W
PickledData: "(dp1
S'b'
(dp2
sS'anchors'
p3
(tsS'lib'
p4
(dp5
sS'unicodes'
p6
(tsS'width'
p7
I1161
sS'contours'
p8
(tsS'components'
p9
(tsS'com.typemytype.robofont.layerData'
p10
(dp11
S'b'
(dp12
S'name'
p13
S'quotedblleft'
p14
sg4
(dp15
sg6
(tsg7
I1146
sg8
(tsg9
(tsg3
(tsssg13
S'quotedblleft'
p16
s."
LayerCount: 2
Fore
SplineSet
209 895 m 258
 349 895 l 257
 381 896 414 904 422 951 c 258
 501 1393 l 258
 503 1405 505 1436 477 1436 c 258
 403 1436 l 258
 374 1436 358 1425 347 1393 c 257
 175 951 l 258
 173.512 946.833 172.201 940.185 172.201 932.903 c 256
 172.201 915.719 179.501 895 209 895 c 258
633 895 m 258
 773 895 l 257
 805 896 838 904 846 951 c 258
 925 1393 l 258
 925.516 1396.1 926.033 1400.46 926.033 1405.23 c 256
 926.033 1418.94 921.77 1436 901 1436 c 258
 827 1436 l 258
 798 1436 782 1425 771 1393 c 257
 599 951 l 258
 597.512 946.833 596.201 940.185 596.201 932.903 c 256
 596.201 915.719 603.501 895 633 895 c 258
EndSplineSet
EndChar

StartChar: quotedblright
Encoding: 8221 8221 326
Width: 1158
VWidth: 0
GlyphClass: 2
Flags: W
PickledData: "(dp1
S'b'
(dp2
sS'anchors'
p3
(tsS'lib'
p4
(dp5
sS'unicodes'
p6
(tsS'width'
p7
I1161
sS'contours'
p8
(tsS'components'
p9
(tsS'com.typemytype.robofont.layerData'
p10
(dp11
S'b'
(dp12
S'name'
p13
S'quotedblright'
p14
sg4
(dp15
sg6
(tsg7
I1146
sg8
(tsg9
(tsg3
(tsssg13
S'quotedblright'
p16
s."
LayerCount: 2
Fore
SplineSet
237 895 m 258
 311 895 l 258
 312.104 894.962 313.189 894.943 314.256 894.943 c 256
 341.211 894.943 356.419 907.218 367 938 c 257
 539 1380 l 258
 540.488 1384.17 541.799 1390.55 541.799 1397.54 c 256
 541.799 1414.03 534.499 1433.89 505 1436 c 257
 365 1436 l 257
 333 1435 300 1427 292 1380 c 258
 213 938 l 258
 212.484 934.902 211.967 930.603 211.967 925.914 c 256
 211.967 912.441 216.23 895.742 237 895 c 258
652 895 m 258
 726 895 l 258
 727.104 894.962 728.189 894.943 729.256 894.943 c 256
 756.211 894.943 771.419 907.218 782 938 c 257
 954 1380 l 258
 955.488 1384.17 956.799 1390.55 956.799 1397.54 c 256
 956.799 1414.03 949.499 1433.89 920 1436 c 257
 780 1436 l 257
 748 1435 715 1427 707 1380 c 258
 628 938 l 258
 627.484 934.902 626.967 930.603 626.967 925.914 c 256
 626.967 912.441 631.23 895.742 652 895 c 258
EndSplineSet
EndChar

StartChar: quoteleft
Encoding: 8216 8216 327
Width: 609
VWidth: 0
GlyphClass: 2
Flags: W
PickledData: "(dp1
S'b'
(dp2
sS'anchors'
p3
(tsS'lib'
p4
(dp5
sS'unicodes'
p6
(tsS'width'
p7
I615
sS'contours'
p8
(tsS'components'
p9
(tsS'com.typemytype.robofont.layerData'
p10
(dp11
S'b'
(dp12
S'name'
p13
S'quoteleft'
p14
sg4
(dp15
sg6
(tsg7
I584
sg8
(tsg9
(tsg3
(tsssg13
S'quoteleft'
p16
s."
LayerCount: 2
Fore
SplineSet
150 895 m 258
 290 895 l 257
 322 896 355 904 363 951 c 258
 441 1393 l 258
 441.516 1396.1 442.033 1400.46 442.033 1405.23 c 256
 442.033 1418.94 437.77 1436 417 1436 c 258
 343 1436 l 258
 314 1436 299 1425 287 1393 c 258
 116 951 l 258
 114.2 946.8 112.76 940.08 112.76 932.73 c 256
 112.76 915.58 120.6 895 150 895 c 258
EndSplineSet
EndChar

StartChar: quoteright
Encoding: 8217 8217 328
Width: 609
VWidth: 0
GlyphClass: 2
Flags: W
PickledData: "(dp1
S'b'
(dp2
sS'anchors'
p3
(tsS'lib'
p4
(dp5
sS'unicodes'
p6
(tsS'width'
p7
I615
sS'contours'
p8
(tsS'components'
p9
(tsS'com.typemytype.robofont.layerData'
p10
(dp11
S'b'
(dp12
S'name'
p13
S'quoteright'
p14
sg4
(dp15
sg6
(tsg7
I584
sg8
(tsg9
(tsg3
(tsssg13
S'quoteright'
p16
s."
LayerCount: 2
Fore
SplineSet
167 895 m 258
 241 895 l 258
 270 895 286 906 297 938 c 257
 469 1380 l 258
 470.488 1384.17 471.799 1390.81 471.799 1398.1 c 256
 471.799 1415.28 464.499 1436 435 1436 c 258
 295 1436 l 257
 263 1435 230 1427 222 1380 c 258
 143 938 l 258
 142.484 934.902 141.967 930.537 141.967 925.766 c 256
 141.967 912.058 146.23 895 167 895 c 258
EndSplineSet
EndChar

StartChar: quotesinglbase
Encoding: 8218 8218 329
Width: 609
VWidth: 0
GlyphClass: 2
Flags: W
PickledData: "(dp1
S'com.typemytype.robofont.layerData'
p2
(dp3
S'b'
(dp4
S'name'
p5
S'quotesinglbase'
p6
sS'lib'
p7
(dp8
sS'unicodes'
p9
(tsS'width'
p10
I615
sS'contours'
p11
(tsS'components'
p12
(tsS'anchors'
p13
(tsss."
LayerCount: 2
Fore
SplineSet
167 -308 m 258
 241 -308 l 258
 271 -308 286 -297 297 -265 c 257
 469 177 l 258
 470.488 181.167 471.799 187.815 471.799 195.097 c 256
 471.799 212.281 464.499 233 435 233 c 258
 295 233 l 258
 263 233 230 224 222 177 c 258
 143 -265 l 258
 142.484 -268.098 141.967 -272.397 141.967 -277.086 c 256
 141.967 -290.559 146.23 -307.258 167 -308 c 258
EndSplineSet
EndChar

StartChar: quotesingle
Encoding: 39 39 330
Width: 609
VWidth: 0
GlyphClass: 2
Flags: W
LayerCount: 2
Fore
SplineSet
303 968 m 256
 333 968 366 991 371 1042 c 258
 400 1400 l 257
 400 1452 353 1478 304 1478 c 256
 256 1478 206 1451 206 1400 c 256
 206 1397 212 1321 237 1042 c 256
 242 991 272 968 303 968 c 256
EndSplineSet
EndChar

StartChar: r
Encoding: 114 114 331
Width: 753
VWidth: 0
GlyphClass: 2
Flags: W
PickledData: "(dp1
S'b'
(dp2
sS'anchors'
p3
(tsS'lib'
p4
(dp5
sS'unicodes'
p6
(tsS'width'
p7
I763
sS'contours'
p8
(tsS'components'
p9
(tsS'com.typemytype.robofont.layerData'
p10
(dp11
S'b'
(dp12
S'name'
p13
S'r'
sg4
(dp14
sg6
(tsg7
I715
sg8
(tsg9
(tsg3
(tsssg13
S'r'
s."
AnchorPoint: "bot" 250 0 basechar 0
AnchorPoint: "top" 362 1001 basechar 0
LayerCount: 2
Fore
SplineSet
250 0 m 256
 306 0 362 35 362 104 c 258
 362 570 l 258
 362 768 491 817 648 817 c 256
 694.945 817 719.412 860.762 719.412 905.485 c 256
 719.412 952.218 692.697 1000 637 1000 c 256
 504 1000 393 902 359 781 c 257
 362 905 l 258
 362.99 967.396 309.049 999.384 254.338 999.384 c 256
 198.569 999.384 142 966.147 142 898 c 258
 142 104 l 258
 142 33 196 0 250 0 c 256
EndSplineSet
EndChar

StartChar: radical
Encoding: 8730 8730 333
Width: 1350
VWidth: 0
GlyphClass: 2
Flags: W
LayerCount: 2
Fore
SplineSet
263.713 561.094 m 256
 193.597 561.094 134.316 509.227 134.316 446.422 c 256
 134.316 425.389 140.782 408.057 151 392 c 258
 337 87 l 258
 412 -36 446 -90 546 -90 c 256
 649 -90 712 -39 757 86 c 258
 1252 1432 l 257
 1256 1446 1259 1460 1259 1472 c 256
 1259 1536 1199 1580 1138 1580 c 256
 1104 1580 1045 1558 1021 1493 c 258
 547 189 l 257
 543 189 l 257
 367 501 l 258
 342.135 544.099 303.531 561.094 263.713 561.094 c 256
EndSplineSet
EndChar

StartChar: registered
Encoding: 174 174 336
Width: 1688
VWidth: 0
GlyphClass: 2
Flags: W
LayerCount: 2
Fore
SplineSet
648 383 m 256
 680 383 713 403 713 443 c 258
 713 719 l 257
 847 719 l 257
 1039 412 l 258
 1050.49 392.654 1068.37 384.639 1086.6 384.639 c 256
 1119.31 384.639 1153.14 410.449 1153.14 442.919 c 256
 1153.14 452.217 1150.37 462.06 1144 472 c 258
 973 722 l 257
 1102 737 1197 785 1197 928 c 256
 1197 1071 1120 1140 910 1140 c 258
 665 1140 l 258
 610 1140 585 1102 585 1054 c 258
 585 443 l 258
 585 402 616 383 648 383 c 256
713 825 m 257
 713 1034 l 257
 896 1034 l 258
 990 1034 1063 1016 1063 935 c 256
 1063 835 989 824 897 824 c 256
 862.5 824 802.688 825.688 755.109 825.688 c 256
 739.25 825.688 724.75 825.5 713 825 c 257
848 198 m 256
 516 198 271 437 271 758 c 256
 271 1078 516 1317 848 1317 c 256
 1178 1317 1424 1078 1424 758 c 256
 1424 437 1178 198 848 198 c 256
848 76 m 256
 1241 76 1563 385 1563 758 c 256
 1563 1135 1241 1445 848 1445 c 256
 454 1445 131 1135 131 758 c 256
 131 385 454 76 848 76 c 256
EndSplineSet
EndChar

StartChar: ring
Encoding: 730 730 337
Width: 569
VWidth: 0
GlyphClass: 4
Flags: W
AnchorPoint: "top" 285 1040 mark 0
LayerCount: 2
Fore
SplineSet
285 1279 m 256
 223 1279 179 1321 179 1382 c 256
 179 1443 223 1484 285 1484 c 256
 347 1484 391 1443 391 1382 c 256
 391 1321 347 1279 285 1279 c 256
285 1183 m 256
 405 1183 488 1265 488 1382 c 256
 488 1498 405 1579 285 1579 c 256
 165 1579 81 1498 81 1382 c 256
 81 1265 165 1183 285 1183 c 256
EndSplineSet
EndChar

StartChar: s
Encoding: 115 115 338
Width: 1003
VWidth: 0
GlyphClass: 2
Flags: W
PickledData: "(dp1
S'b'
(dp2
sS'anchors'
p3
(tsS'lib'
p4
(dp5
sS'unicodes'
p6
(tsS'width'
p7
F1006.76
sS'contours'
p8
(tsS'components'
p9
(tsS'com.typemytype.robofont.layerData'
p10
(dp11
S'b'
(dp12
S'name'
p13
S's'
sg4
(dp14
sg6
(tsg7
I1007
sg8
(tsg9
(tsg3
(tsssg13
S's'
s."
AnchorPoint: "bot" 507 0 basechar 0
AnchorPoint: "top" 500 1003 basechar 0
LayerCount: 2
Fore
SplineSet
138 95 m 256
 215.958 39.609 353.647 -17.111 521.15 -17.111 c 256
 747.727 -17.111 921.253 82.7268 921.253 293.918 c 256
 921.253 446.666 833.392 533.652 624 586 c 258
 462 626 l 258
 339 656 306 677 306 750 c 256
 306 839.076 404.161 872.191 514.371 872.191 c 256
 628.702 872.191 725.067 830.339 770 814 c 256
 782.964 809.297 794.926 807.196 805.754 807.196 c 256
 847.8 807.196 872.73 838.892 872.73 873.068 c 256
 872.73 899.335 858.003 927.068 825 943 c 256
 762.696 974.68 646.724 1018.29 501.667 1018.29 c 256
 279.649 1018.29 102.996 931.078 102.996 739.57 c 256
 102.996 552.199 220.754 509.064 420 457 c 257
 585 415 l 258
 689.457 388.632 735.103 345.676 735.103 280.119 c 256
 735.103 170.744 626.357 127.983 506.116 127.983 c 256
 381.043 127.983 289.54 175.273 226 213 c 256
 208.585 222.977 192.092 227.262 177.212 227.262 c 256
 134.69 227.262 105.348 192.273 105.348 155.177 c 256
 105.348 133.697 115.186 111.51 138 95 c 256
EndSplineSet
EndChar

StartChar: section
Encoding: 167 167 344
Width: 1218
VWidth: 0
GlyphClass: 2
Flags: W
LayerCount: 2
Fore
SplineSet
568 -33 m 256
 800 -33 982 71 982 278 c 256
 982 408 893 483 775 529 c 257
 895 578 995 668 995 792 c 256
 995 1074 494 1044 494 1230 c 256
 494 1333 605 1359 694 1359 c 256
 753 1359 822 1340 874 1328 c 256
 877.595 1326.68 881.591 1326.05 885.842 1326.05 c 256
 917.066 1326.05 962 1359.99 962 1404 c 256
 962 1433 946 1463 905 1473 c 256
 823 1494 737 1512 649 1512 c 256
 417 1512 247 1428 247 1225 c 256
 247 1112 328 1055 435 982 c 257
 317 942 211 844 211 728 c 256
 211 413 738 481 738 286 c 256
 738 166 622 120 516 120 c 256
 423 120 354 132 294 153 c 256
 286.156 155.824 278.338 157.122 270.729 157.122 c 256
 229.833 157.122 195 119.627 195 80 c 256
 195 51 211 25 252 12 c 256
 353 -19 460 -33 568 -33 c 256
621 590 m 257
 538 626 418 667 418 755 c 256
 418 839 490 879 570 928 c 257
 665 885 793 856 793 764 c 256
 793 680 702 635 621 590 c 257
EndSplineSet
EndChar

StartChar: semicolon
Encoding: 59 59 345
Width: 610
VWidth: 0
GlyphClass: 2
Flags: W
LayerCount: 2
Fore
SplineSet
335 789 m 256
 416 789 467 848 467 915 c 256
 467 982 412 1038 335 1038 c 256
 253 1038 202 978 202 915 c 256
 202 845 257 789 335 789 c 256
EndSplineSet
Refer: 177 44 N 1 0 0 1 12 105 2
EndChar

StartChar: seven
Encoding: 55 55 346
Width: 1203
VWidth: 0
GlyphClass: 2
Flags: W
PickledData: "(dp1
S'com.typemytype.robofont.layerData'
p2
(dp3
S'b'
(dp4
S'name'
p5
S'seven'
p6
sS'lib'
p7
(dp8
sS'unicodes'
p9
(tsS'width'
p10
I1160
sS'contours'
p11
(tsS'components'
p12
(tsS'anchors'
p13
(tsss."
LayerCount: 2
Fore
SplineSet
466 0 m 256
 507 0 551 20 572 69 c 258
 1070 1214 l 258
 1085 1249 1093 1290 1093 1320 c 256
 1093 1386 1051 1432 960 1432 c 258
 192 1432 l 258
 129 1432 98 1381 98 1334 c 256
 98 1287 129 1236 192 1236 c 258
 821 1236 l 257
 353 167 l 258
 344 148 338 129 339 113 c 256
 339 46 403 0 466 0 c 256
EndSplineSet
EndChar

StartChar: six
Encoding: 54 54 347
Width: 1203
VWidth: 0
GlyphClass: 2
Flags: W
PickledData: "(dp1
S'com.typemytype.robofont.layerData'
p2
(dp3
S'b'
(dp4
S'name'
p5
S'nine'
p6
sS'lib'
p7
(dp8
sS'unicodes'
p9
(tsS'width'
p10
I1160
sS'contours'
p11
(tsS'components'
p12
(tsS'anchors'
p13
(tsss."
LayerCount: 2
Fore
SplineSet
630 -22 m 256
 941 -22 1135 176 1135 453 c 256
 1135 724 942 908 667 908 c 256
 507 908 371 838 336 748 c 257
 336 1045 385 1274 684 1274 c 256
 758 1274 846 1254 937 1216 c 256
 945.499 1212.41 953.82 1210.77 961.844 1210.77 c 256
 1010.54 1210.77 1048.26 1271.35 1048.26 1325.46 c 256
 1048.26 1356.84 1035.58 1386.04 1005 1400 c 256
 910 1445 799 1472 690 1472 c 256
 189 1472 79 1069 79 638 c 256
 79 284 220 -22 630 -22 c 256
638.012 735.026 m 256
 818.61 735.026 897 610.932 897 447 c 256
 897 269 798 171 619 171 c 256
 452 171 349 280 349 442 c 256
 349 623.392 451.18 735.026 638.012 735.026 c 256
EndSplineSet
EndChar

StartChar: slash
Encoding: 47 47 348
Width: 761
VWidth: 0
GlyphClass: 2
Flags: W
LayerCount: 2
Fore
SplineSet
142 -150 m 256
 174 -150 204 -133 218 -93 c 258
 697 1336 l 258
 700 1347 702 1357 702 1367 c 256
 702 1416 660 1445 619 1445 c 256
 586 1445 553 1429 539 1387 c 258
 64 -42 l 258
 60 -53 59 -64 59 -72 c 256
 59 -121 100 -150 142 -150 c 256
EndSplineSet
EndChar

StartChar: slashbar
Encoding: 65541 -1 349
Width: 600
VWidth: 0
GlyphClass: 2
Flags: W
LayerCount: 2
Fore
SplineSet
76 606 m 258
 716 819 l 258
 754.439 831.813 770.581 860.958 770.581 890.594 c 256
 770.581 932.054 738.987 974.474 692.652 974.474 c 256
 684.222 974.474 675.304 973.069 666 970 c 258
 28 761 l 258
 -13.4119 747.717 -31.1662 715.966 -31.1662 684.231 c 256
 -31.1662 642.68 -0.728645 601.158 46.8954 601.158 c 256
 55.9997 601.158 65.7321 602.675 76 606 c 258
EndSplineSet
EndChar

StartChar: sterling
Encoding: 163 163 351
Width: 1376
VWidth: 0
GlyphClass: 2
Flags: W
PickledData: "(dp1
S'com.typemytype.robofont.layerData'
p2
(dp3
S'b'
(dp4
S'name'
p5
S'sterling'
p6
sS'lib'
p7
(dp8
sS'unicodes'
p9
(tsS'width'
p10
I1361
sS'contours'
p11
(tsS'components'
p12
(tsS'anchors'
p13
(tsss."
LayerCount: 2
Fore
SplineSet
229 -1 m 258
 1094 -1 l 258
 1129 -1 1146.5 45.75 1146.5 92.5 c 256
 1146.5 139.25 1129 186 1094 186 c 258
 539 186 l 257
 539 724 l 257
 874 724 l 258
 909.982 724 925.709 761.517 925.709 800.553 c 256
 925.709 842.883 907.215 887 876 887 c 258
 539 887 l 257
 539 989 l 258
 539 1201 561 1280 751 1280 c 256
 836 1280 925 1263 1003 1248 c 256
 1004.9 1247.63 1006.77 1247.44 1008.6 1247.44 c 256
 1043.84 1247.44 1064.56 1314.71 1064.56 1361.23 c 256
 1064.56 1383.23 1059.92 1400.59 1050 1404 c 256
 972 1429 842 1455 729 1455 c 256
 467 1455 310 1333 310 1068 c 258
 310 887 l 257
 194 887 l 258
 161.989 887 147.783 849.792 147.783 810.93 c 256
 147.783 768.453 164.755 724 194 724 c 258
 310 724 l 257
 310 184 l 257
 228 184 l 258
 195.624 184 179.374 138.102 179.374 92.0296 c 256
 179.374 45.6037 195.874 -1 229 -1 c 258
EndSplineSet
EndChar

StartChar: summation
Encoding: 8721 8721 352
Width: 1205
VWidth: 0
GlyphClass: 2
Flags: W
LayerCount: 2
Fore
SplineSet
117 -200 m 258
 1163 -200 l 258
 1221 -200 1250 -153 1250 -106 c 256
 1250 -59 1221 -12 1163 -12 c 258
 324 -12 l 257
 843 645 l 257
 367 1268 l 257
 1127 1268 l 258
 1182 1268 1210 1312 1210 1355 c 256
 1210 1398 1182 1442 1127 1442 c 258
 147 1442 l 258
 79 1442 54 1405 54 1366 c 256
 54 1341 63 1319 76 1302 c 258
 600 618 l 257
 51 -72 l 258
 39 -87 31 -108 31 -129 c 256
 31 -165 53 -200 117 -200 c 258
EndSplineSet
EndChar

StartChar: t
Encoding: 116 116 353
Width: 765
VWidth: 0
GlyphClass: 2
Flags: W
PickledData: "(dp1
S'b'
(dp2
sS'anchors'
p3
(tsS'lib'
p4
(dp5
sS'unicodes'
p6
(tsS'width'
p7
I768
sS'contours'
p8
(tsS'components'
p9
(tsS'com.typemytype.robofont.layerData'
p10
(dp11
S'b'
(dp12
S'name'
p13
S't'
sg4
(dp14
sg6
(tsg7
I706
sg8
((dp15
S'points'
p16
((dp17
S'segmentType'
p18
S'curve'
p19
sS'x'
I317
sS'smooth'
p20
I1
sS'y'
I0
s(dp21
S'y'
I0
sS'x'
I358
sg20
I0
s(dp22
S'y'
I27
sS'x'
I398
sg20
I0
s(dp23
g18
S'curve'
p24
sS'x'
I398
sg20
I1
sS'y'
I79
s(dp25
g18
S'line'
p26
sS'x'
I398
sg20
I0
sS'y'
I876
s(dp27
g18
S'line'
p28
sS'x'
I578
sg20
I1
sS'y'
I876
s(dp29
S'y'
I876
sS'x'
I621
sg20
I0
s(dp30
S'y'
I897
sS'x'
I634
sg20
I0
s(dp31
g18
S'curve'
p32
sS'x'
I634
sg20
I1
sS'y'
I928
s(dp33
S'y'
I957
sS'x'
I634
sg20
I0
s(dp34
S'y'
I981
sS'x'
I621
sg20
I0
s(dp35
g18
S'curve'
p36
sS'x'
I578
sg20
I1
sS'y'
I981
s(dp37
g18
S'line'
p38
sS'x'
I398
sg20
I0
sS'y'
I981
s(dp39
g18
S'line'
p40
sS'x'
I398
sg20
I1
sS'y'
I1053
s(dp41
S'y'
I1285
sS'x'
I398
sg20
I0
s(dp42
S'y'
I1318
sS'x'
I432
sg20
I0
s(dp43
g18
S'curve'
p44
sS'x'
I544
sg20
I1
sS'y'
I1318
s(dp45
g18
S'line'
p46
sS'x'
I629
sg20
I1
sS'y'
I1318
s(dp47
S'y'
I1318
sS'x'
I706
sg20
I0
s(dp48
S'y'
I1438
sS'x'
I703
sg20
I0
s(dp49
g18
S'curve'
p50
sS'x'
I630
sg20
I1
sS'y'
I1438
s(dp51
g18
S'line'
p52
sS'x'
I510
sg20
I1
sS'y'
I1438
s(dp53
S'y'
I1438
sS'x'
I357
sg20
I0
s(dp54
S'y'
I1371
sS'x'
I238
sg20
I0
s(dp55
g18
S'curve'
p56
sS'x'
I238
sg20
I1
sS'y'
I1112
s(dp57
g18
S'line'
p58
sS'x'
I238
sg20
I0
sS'y'
I981
s(dp59
g18
S'line'
p60
sS'x'
I98
sg20
I1
sS'y'
I981
s(dp61
S'y'
I981
sS'x'
I55
sg20
I0
s(dp62
S'y'
I957
sS'x'
I39
sg20
I0
s(dp63
g18
S'curve'
p64
sS'x'
I39
sg20
I1
sS'y'
I928
s(dp65
S'y'
I899
sS'x'
I39
sg20
I0
s(dp66
S'y'
I876
sS'x'
I55
sg20
I0
s(dp67
g18
S'curve'
p68
sS'x'
I98
sg20
I1
sS'y'
I876
s(dp69
g18
S'line'
p70
sS'x'
I238
sg20
I0
sS'y'
I876
s(dp71
g18
S'line'
p72
sS'x'
I238
sg20
I1
sS'y'
I79
s(dp73
S'y'
I26
sS'x'
I238
sg20
I0
s(dp74
S'y'
I0
sS'x'
I278
sg20
I0
stp75
stp76
sg9
(tsg3
(tsssg13
S't'
s."
AnchorPoint: "bot" 469 6 basechar 0
AnchorPoint: "caron.alt" 384 1182 basechar 0
LayerCount: 2
Fore
SplineSet
491 -10 m 256
 504.029 -10 517.171 -10.0881 530.22 -10.0881 c 256
 628.388 -10.0881 721.276 -5.10244 721.276 79.8862 c 256
 721.276 122.342 691.428 165.231 636.122 165.231 c 256
 633.793 165.231 631.419 165.155 629 165 c 258
 556 160 l 258
 552.949 159.832 549.968 159.749 547.055 159.749 c 256
 463.088 159.749 436 228.99 436 344 c 258
 436 847 l 257
 611 847 l 258
 665 847 688 878 688 917 c 256
 688 955 664 989 611 989 c 258
 436 989 l 257
 436 1273 l 258
 436 1332 400 1356 355 1356 c 256
 295 1356 254 1317 247 1260 c 258
 217 989 l 257
 104 989 l 258
 51 989 26 957 26 919 c 256
 26 881 53 847 106 847 c 258
 217 847 l 257
 217 292 l 258
 217 99 324 -10 491 -10 c 256
EndSplineSet
EndChar

StartChar: thorn
Encoding: 254 254 358
Width: 1197
VWidth: 0
GlyphClass: 2
Flags: W
LayerCount: 2
Fore
SplineSet
237 -342 m 256
 291 -342 344 -306 344 -236 c 258
 344 182 l 257
 430 42 557 -25 701 -25 c 256
 980 -25 1113 233 1113 505 c 256
 1113 795 973 1025 696 1025 c 256
 560 1025 419 959 349 830 c 257
 349 1332 l 258
 349 1401 295 1435 240 1435 c 256
 184 1435 129 1400 129 1332 c 258
 129 -236 l 258
 129 -307 182 -342 237 -342 c 256
637 126 m 256
 414 126 349 292 349 514 c 256
 349 710 422 872 624 872 c 256
 823 872 886 692 886 509 c 256
 886 337 840 126 637 126 c 256
EndSplineSet
EndChar

StartChar: three
Encoding: 51 51 359
Width: 1203
VWidth: 0
GlyphClass: 2
Flags: W
PickledData: "(dp1
S'com.typemytype.robofont.layerData'
p2
(dp3
S'b'
(dp4
S'name'
p5
S'three'
p6
sS'lib'
p7
(dp8
sS'unicodes'
p9
(tsS'width'
p10
I1160
sS'contours'
p11
(tsS'components'
p12
(tsS'anchors'
p13
(tsss."
LayerCount: 2
Fore
SplineSet
575 -22 m 256
 844 -22 1075 104 1075 388 c 256
 1075 575 990 709 818 760 c 257
 952 818 1045 915 1045 1082 c 256
 1045 1336 826 1472 565 1472 c 256
 413 1472 259 1428 187 1380 c 256
 162.792 1364.34 152.86 1340.64 152.86 1315.73 c 256
 152.86 1263.46 196.602 1205.83 243.951 1205.83 c 256
 253.263 1205.83 262.714 1208.06 272 1213 c 256
 351 1255 462 1274 551 1274 c 256
 672 1274 798 1213 798 1065 c 256
 798 911 668 838 504 838 c 258
 428 838 l 258
 374 838 351 793 351 750 c 256
 351 708 373 663 428 663 c 258
 511 663 l 258
 689 663 828 558 828 394 c 256
 828 243 716 176 555 176 c 256
 436 176 346 215 286 242 c 256
 277.352 245.764 268.549 247.49 259.833 247.49 c 256
 210.582 247.49 164.107 192.402 164.107 138.846 c 256
 164.107 108.72 178.812 79.0792 216 60 c 256
 300 16 418 -22 575 -22 c 256
EndSplineSet
EndChar

StartChar: threequarters
Encoding: 190 190 360
Width: 1698
VWidth: 0
GlyphClass: 2
Flags: W
PickledData: "(dp1
S'com.typemytype.robofont.layerData'
p2
(dp3
S'b'
(dp4
S'name'
p5
S'threequarters'
p6
sS'lib'
p7
(dp8
sS'unicodes'
p9
(tsS'width'
p10
I1603
sS'contours'
p11
(tsS'components'
p12
(tsS'anchors'
p13
(tsss."
LayerCount: 2
Fore
SplineSet
315 667 m 256
 232.573 667 163.45 705.254 126.153 705.254 c 256
 94.6742 705.254 76 682.461 76 657 c 256
 76 595 235 561 315 561 c 256
 473 561 599 640 599 791 c 256
 599 902 531 982 425 1005 c 257
 443 1085 581 1095 581 1195 c 256
 581 1347 457 1428 309 1428 c 256
 212 1428 69 1395 69 1335 c 256
 69 1309 89 1285 121 1285 c 256
 139 1285 228 1320 308 1320 c 256
 389 1320 461 1275 461 1193 c 256
 461 1101 384 1054 291 1052 c 258
 251 1051 l 258
 217 1050 202 1027 202 1001 c 256
 202 976 217 953 251 953 c 258
 296 953 l 258
 396 953 474 891 474 796 c 256
 474 710 412 667 315 667 c 256
1383 1 m 256
 1413 1 1443 22 1443 64 c 258
 1443 184 l 257
 1520 184 l 258
 1554 184 1569 206 1569 228 c 256
 1569 251 1553 272 1520 272 c 258
 1443 272 l 257
 1443 737 l 258
 1443 805 1407 838 1356 838 c 256
 1311 838 1274 822 1242 764 c 257
 934 283 l 258
 926 271 922 257 922 242 c 256
 922 209 948 184 991 184 c 258
 1322 184 l 257
 1322 64 l 258
 1322 22 1353 1 1383 1 c 256
598 -78 m 256
 626 -78 653 -64 664 -30 c 258
 1135 1353 l 258
 1138 1363 1140 1373 1140 1380 c 256
 1140 1423 1104 1447 1068 1447 c 256
 1040 1447 1011 1432 1000 1398 c 258
 532 15 l 258
 529 5 527 -5 527 -12 c 256
 527 -53 563 -78 598 -78 c 256
1040 271 m 257
 1322 723 l 257
 1322 271 l 257
 1040 271 l 257
EndSplineSet
EndChar

StartChar: uni00B3
Encoding: 179 179 361
Width: 812
VWidth: 0
GlyphClass: 2
Flags: W
PickledData: "(dp1
S'com.typemytype.robofont.layerData'
p2
(dp3
S'b'
(dp4
S'name'
p5
S'threesuperior'
p6
sS'lib'
p7
(dp8
sS'unicodes'
p9
(tsS'width'
p10
I818
sS'contours'
p11
(tsS'components'
p12
(tsS'anchors'
p13
(tsss."
LayerCount: 2
Fore
SplineSet
403 661 m 256
 309.014 661 252.005 702.383 212.74 702.383 c 256
 183.247 702.383 164 676.254 164 651 c 256
 164 589 322 555 403 555 c 256
 562 555 687 635 687 785 c 256
 687 895 626 976 522 1000 c 257
 615 1032 669 1089 669 1189 c 256
 669 1342 554 1421 405 1421 c 256
 310 1421 157 1389 157 1330 c 256
 157 1304 177 1279 208 1279 c 256
 227 1279 307 1319 399 1319 c 256
 480 1319 549 1271 549 1187 c 256
 549 1096 471 1047 378 1046 c 257
 335 1046 l 258
 303 1046 289 1019 289 993 c 256
 289 969 305 942 338 942 c 258
 384 942 l 258
 484 942 562 886 562 790 c 256
 562 704 499 661 403 661 c 256
EndSplineSet
EndChar

StartChar: tilde
Encoding: 732 732 362
Width: 569
VWidth: 0
GlyphClass: 4
Flags: W
AnchorPoint: "top" 293 1040 mark 0
LayerCount: 2
Fore
SplineSet
16 1193 m 256
 39 1193 62 1202 79 1228 c 256
 100 1258 122 1277 153 1277 c 256
 223 1277 316 1193 411 1193 c 256
 501.472 1193 594.051 1260.61 594.051 1364.01 c 256
 594.051 1382.93 580.492 1396.07 566 1398 c 257
 563 1412 552 1421 537 1421 c 256
 481 1412 467 1335 418 1335 c 256
 350 1335 258 1417 152 1417 c 256
 48 1417 -11 1354 -33 1255 c 256
 -36 1250 -36 1245 -36 1240 c 256
 -36 1209 -13 1193 16 1193 c 256
EndSplineSet
EndChar

StartChar: trademark
Encoding: 8482 8482 363
Width: 1957
VWidth: 0
GlyphClass: 2
Flags: W
LayerCount: 2
Fore
SplineSet
905 651 m 256
 943 651 980 675 980 724 c 258
 980 1188 l 257
 1202 706 l 257
 1215 671 1242 656 1271 656 c 256
 1301 656 1330 674 1343 706 c 257
 1565 1188 l 257
 1565 724 l 258
 1565 675 1601 651 1639 651 c 256
 1677 651 1714 676 1714 724 c 258
 1714 1261 l 258
 1714 1350 1661 1390 1601 1390 c 256
 1555 1390 1507 1364 1480 1301 c 257
 1273 857 l 257
 1066 1301 l 257
 1039 1365 989 1391 945 1391 c 256
 885 1391 830 1351 830 1261 c 258
 830 724 l 258
 830 675 867 651 905 651 c 256
373 651 m 256
 412 651 451 676 451 725 c 258
 451 1279 l 257
 622 1279 l 258
 661 1279 680 1307 680 1334 c 256
 680 1363 660 1391 622 1391 c 258
 123 1391 l 258
 83 1391 64 1363 64 1335 c 256
 64 1307 84 1279 123 1279 c 258
 296 1279 l 257
 296 725 l 258
 296 676 334 651 373 651 c 256
EndSplineSet
EndChar

StartChar: two
Encoding: 50 50 364
Width: 1216
VWidth: 0
GlyphClass: 2
Flags: W
PickledData: "(dp1
S'com.typemytype.robofont.layerData'
p2
(dp3
S'b'
(dp4
S'name'
p5
S'two'
p6
sS'lib'
p7
(dp8
sS'unicodes'
p9
(tsS'width'
p10
I1160
sS'contours'
p11
(tsS'components'
p12
(tsS'anchors'
p13
(tsss."
LayerCount: 2
Fore
SplineSet
1065 1035 m 256
 1065 1259.57 879.468 1444.05 613.439 1444.05 c 256
 427.84 1444.05 306.087 1386.86 194 1320 c 256
 160.97 1300.78 147.866 1274.17 147.866 1247.45 c 256
 147.866 1195.86 196.712 1143.85 245.301 1143.85 c 256
 255.357 1143.85 265.402 1146.08 275 1151 c 256
 357 1195 420 1256 592 1256 c 256
 724 1256 835 1163 835 1019 c 256
 835 935 792 853 695 756 c 258
 177 235 l 258
 141.435 199.435 124.967 158.733 124.967 121.308 c 256
 124.967 55.6062 175.719 0 263 0 c 258
 964 0 l 258
 1020 0 1048 47 1048 93 c 256
 1048 139 1020 184 964 184 c 258
 389 184 l 257
 827 594 l 257
 997 747 1065 886 1065 1035 c 256
EndSplineSet
EndChar

StartChar: uni00B2
Encoding: 178 178 365
Width: 752
VWidth: 0
GlyphClass: 2
Flags: W
LayerCount: 2
Fore
SplineSet
162 589 m 258
 600 589 l 258
 635 589 652 615 652 642 c 256
 652 668 634 696 600 696 c 258
 249 696 l 257
 412 829 644 1044 644 1218 c 256
 644 1354 527 1426 381 1426 c 256
 286 1426 125 1373 125 1311 c 256
 125 1285 145 1262 174 1262 c 256
 185 1262 195 1264 205 1270 c 256
 247 1291 306 1316 365 1316 c 256
 437 1316 505 1279 505 1205 c 256
 505 1114 376 964 260 857 c 257
 168 761 83 714 83 653 c 256
 83 617 107 589 162 589 c 258
EndSplineSet
EndChar

StartChar: u
Encoding: 117 117 366
Width: 1178
VWidth: 0
GlyphClass: 2
Flags: W
PickledData: "(dp1
S'b'
(dp2
sS'anchors'
p3
(tsS'lib'
p4
(dp5
sS'unicodes'
p6
(tsS'width'
p7
I1195
sS'contours'
p8
(tsS'components'
p9
(tsS'com.typemytype.robofont.layerData'
p10
(dp11
S'b'
(dp12
S'name'
p13
S'u'
sg4
(dp14
sg6
(tsg7
I1152
sg8
((dp15
S'points'
p16
((dp17
S'segmentType'
p18
S'curve'
p19
sS'x'
I915
sS'smooth'
p20
I1
sS'y'
I991
s(dp21
S'y'
I991
sS'x'
I875
sg20
I0
s(dp22
S'y'
I965
sS'x'
I834
sg20
I0
s(dp23
g18
S'curve'
p24
sS'x'
I834
sg20
I1
sS'y'
I916
s(dp25
g18
S'line'
p26
sS'x'
I834
sg20
I0
sS'y'
I395
s(dp27
S'y'
I198
sS'x'
I821
sg20
I0
s(dp28
S'y'
I90
sS'x'
I698
sg20
I0
s(dp29
g18
S'curve'
p30
sS'x'
I542
sg20
I1
sS'y'
I90
s(dp31
S'y'
I90
sS'x'
I385
sg20
I0
s(dp32
S'y'
I187
sS'x'
I306
sg20
I0
s(dp33
g18
S'curve'
p34
sS'x'
I306
sg20
I1
sS'y'
I367
s(dp35
g18
S'line'
p36
sS'x'
I306
sg20
I1
sS'y'
I916
s(dp37
S'y'
I967
sS'x'
I306
sg20
I0
s(dp38
S'y'
I991
sS'x'
I266
sg20
I0
s(dp39
g18
S'curve'
p40
sS'x'
I226
sg20
I1
sS'y'
I991
s(dp41
S'y'
I991
sS'x'
I186
sg20
I0
s(dp42
S'y'
I967
sS'x'
I146
sg20
I0
s(dp43
g18
S'curve'
p44
sS'x'
I146
sg20
I1
sS'y'
I916
s(dp45
g18
S'line'
p46
sS'x'
I146
sg20
I1
sS'y'
I369
s(dp47
S'y'
I96
sS'x'
I146
sg20
I0
s(dp48
S'y'
S'-20'
p49
sS'x'
I294
sg20
I0
s(dp50
g18
S'curve'
p51
sS'x'
I507
sg20
I1
sS'y'
S'-20'
p52
s(dp53
S'y'
S'-20'
p54
sS'x'
I656
sg20
I0
s(dp55
S'y'
I49
sS'x'
I786
sg20
I0
s(dp56
g18
S'curve'
p57
sS'x'
I834
sg20
I0
sS'y'
I179
s(dp58
g18
S'line'
p59
sS'x'
I834
sg20
I1
sS'y'
I73
s(dp60
S'y'
I24
sS'x'
I834
sg20
I0
s(dp61
S'y'
I0
sS'x'
I874
sg20
I0
s(dp62
g18
S'curve'
p63
sS'x'
I913
sg20
I1
sS'y'
I0
s(dp64
S'y'
I0
sS'x'
I953
sg20
I0
s(dp65
S'y'
I24
sS'x'
I994
sg20
I0
s(dp66
g18
S'curve'
p67
sS'x'
I994
sg20
I1
sS'y'
I75
s(dp68
g18
S'line'
p69
sS'x'
I994
sg20
I1
sS'y'
I916
s(dp70
S'y'
I967
sS'x'
I994
sg20
I0
s(dp71
S'y'
I991
sS'x'
I955
sg20
I0
stp72
stp73
sg9
(tsg3
(tsssg13
S'u'
s."
AnchorPoint: "ogonek" 914 21 basechar 0
AnchorPoint: "top" 586 993 basechar 0
LayerCount: 2
Fore
SplineSet
493 -14 m 256
 643 -14 762 46 819 157 c 257
 819 99 l 258
 819 33 872 0 927 0 c 256
 983 0 1038 34 1038 103 c 258
 1038 894 l 258
 1038 964 984 999 929 999 c 256
 873 999 819 963 819 894 c 258
 819 440 l 257
 816 249 691 135 554 135 c 256
 437 135 351 210 351 368 c 258
 351 894 l 258
 351 964 296 999 242 999 c 256
 186 999 132 964 132 894 c 258
 132 370 l 258
 132 101 300 -14 493 -14 c 256
EndSplineSet
EndChar

StartChar: underscore
Encoding: 95 95 374
Width: 1024
VWidth: 0
GlyphClass: 2
Flags: W
LayerCount: 2
Fore
SplineSet
59 -255 m 258
 962 -255 l 258
 1002 -255 1023 -223 1023 -192 c 256
 1023 -160 1002 -129 962 -129 c 258
 59 -129 l 258
 20 -129 0 -160 0 -192 c 256
 0 -223 20 -255 59 -255 c 258
EndSplineSet
EndChar

StartChar: uni00AD
Encoding: 173 173 376
Width: 735
VWidth: 0
GlyphClass: 2
Flags: W
LayerCount: 2
Fore
SplineSet
128 451 m 258
 599 451 l 258
 659 451 696 482 696 530 c 256
 696 580 659 611 599 611 c 258
 137 611 l 258
 77 611 38 580 38 530 c 256
 38 482 73 451 128 451 c 258
EndSplineSet
EndChar

StartChar: uni02C9
Encoding: 713 713 440
Width: 569
VWidth: 0
GlyphClass: 4
Flags: W
AnchorPoint: "top" 289 1040 mark 0
LayerCount: 2
Fore
SplineSet
53 1292 m 258
 521 1292 l 258
 570 1292 594 1328 594 1367 c 256
 594 1405 570 1442 521 1442 c 258
 53 1442 l 258
 3 1442 -22 1405 -22 1367 c 256
 -22 1328 3 1292 53 1292 c 258
EndSplineSet
EndChar

StartChar: uni0307
Encoding: 775 775 441
Width: 600
VWidth: 0
GlyphClass: 2
Flags: W
LayerCount: 2
Fore
SplineSet
323 391 m 256
 405 391 458 452 458 519 c 256
 458 587 403 645 323 645 c 256
 241 645 188 586 188 519 c 256
 188 451 240 391 323 391 c 256
EndSplineSet
EndChar

StartChar: uni03A9
Encoding: 937 937 442
Width: 1575
VWidth: 0
GlyphClass: 2
Flags: W
LayerCount: 2
Fore
SplineSet
218 0 m 258
 711 0 l 257
 562 246 378 594 378 855 c 256
 378 1072 493 1226 811 1226 c 256
 1130 1226 1245 1072 1245 855 c 256
 1245 595 1061 248 911 0 c 257
 1404 0 l 258
 1450 0 1474 42 1474 85 c 256
 1474 127 1450 169 1404 169 c 258
 1145 169 l 257
 1349 413 1499 708 1499 938 c 256
 1499 1203 1368 1460 811 1460 c 256
 285 1460 123 1200 123 938 c 256
 123 708 265 433 477 169 c 257
 218 169 l 258
 172 169 149 127 149 85 c 256
 149 42 172 0 218 0 c 258
EndSplineSet
EndChar

StartChar: uni03BC
Encoding: 956 956 443
Width: 1183
VWidth: 0
GlyphClass: 2
Flags: W
LayerCount: 2
Fore
SplineSet
242 -281 m 256
 313 -281 354 -226 354 -146 c 258
 354 502 l 257
 131 502 l 257
 131 -146 l 258
 131 -237 174 -281 242 -281 c 256
EndSplineSet
Refer: 366 117 N 1 0 0 1 0 0 2
EndChar

StartChar: afii61289
Encoding: 8467 8467 462
Width: 769
VWidth: 0
GlyphClass: 2
Flags: W
LayerCount: 2
Fore
SplineSet
514 1494 m 256
 375 1494 215 1405 214 1170 c 258
 213 836 l 257
 36 697 l 258
 21 685 14 671 14 658 c 256
 14 637 31 619 53 619 c 256
 63 619 72 621 85 631 c 258
 213 731 l 257
 213 289 l 258
 213 60 335 -17 492 -17 c 256
 565 -17 627 -15 653 -10 c 256
 686 -4 705 25 705 58 c 256
 705 97.7442 679.629 128.092 637.084 128.092 c 256
 635.74 128.092 634.378 128.061 633 128 c 258
 568 125 l 258
 564.406 124.844 560.88 124.764 557.423 124.764 c 256
 472.399 124.764 429 173.134 429 324 c 258
 429 876 l 257
 654 1042 736 1129 736 1263 c 256
 736 1376 670 1494 514 1494 c 256
514 1348 m 256
 555 1348 596 1316 596 1249 c 256
 596 1149 539 1067 429 981 c 257
 429 1195 l 258
 429 1313 472 1348 514 1348 c 256
EndSplineSet
EndChar

StartChar: v
Encoding: 118 118 471
Width: 1061
VWidth: 0
GlyphClass: 2
Flags: W
PickledData: "(dp1
S'com.typemytype.robofont.layerData'
p2
(dp3
S'b'
(dp4
S'name'
p5
S'v'
sS'lib'
p6
(dp7
sS'unicodes'
p8
(tsS'width'
p9
I1027
sS'contours'
p10
((dp11
S'points'
p12
((dp13
S'segmentType'
p14
S'line'
p15
sS'x'
I518
sS'smooth'
p16
I0
sS'y'
I0
s(dp17
S'y'
I0
sS'x'
I589
sg16
I0
s(dp18
S'y'
I36
sS'x'
I618
sg16
I0
s(dp19
g14
S'curve'
p20
sS'x'
I654
sg16
I1
sS'y'
I121
s(dp21
g14
S'line'
p22
sS'x'
I979
sg16
I1
sS'y'
I890
s(dp23
S'y'
I940
sS'x'
I1000
sg16
I0
s(dp24
S'y'
I991
sS'x'
I968
sg16
I0
s(dp25
g14
S'curve'
p26
sS'x'
I907
sg16
I1
sS'y'
I991
s(dp27
S'y'
I991
sS'x'
I878
sg16
I0
s(dp28
S'y'
I975
sS'x'
I850
sg16
I0
s(dp29
g14
S'curve'
p30
sS'x'
I836
sg16
I1
sS'y'
I940
s(dp31
g14
S'line'
p32
sS'x'
I518
sg16
I0
sS'y'
I166
stp33
s(dp34
g12
((dp35
g14
S'curve'
p36
sS'x'
I518
sg16
I0
sS'y'
I0
s(dp37
g14
S'line'
p38
sS'x'
I518
sg16
I0
sS'y'
I166
s(dp39
g14
S'line'
p40
sS'x'
I200
sg16
I1
sS'y'
I940
s(dp41
S'y'
I975
sS'x'
I186
sg16
I0
s(dp42
S'y'
I991
sS'x'
I158
sg16
I0
s(dp43
g14
S'curve'
p44
sS'x'
I129
sg16
I1
sS'y'
I991
s(dp45
S'y'
I991
sS'x'
I68
sg16
I0
s(dp46
S'y'
I940
sS'x'
I36
sg16
I0
s(dp47
g14
S'curve'
p48
sS'x'
I57
sg16
I1
sS'y'
I890
s(dp49
g14
S'line'
p50
sS'x'
I382
sg16
I1
sS'y'
I121
s(dp51
S'y'
I36
sS'x'
I418
sg16
I0
s(dp52
S'y'
I0
sS'x'
I447
sg16
I0
stp53
stp54
sS'components'
p55
(tsS'anchors'
p56
(tsss."
LayerCount: 2
Fore
SplineSet
534 -2 m 256
 629 -2 676 48 720 159 c 257
 1007 864 l 258
 1012.17 876.759 1014.51 889.143 1014.51 900.903 c 256
 1014.51 957.473 960.395 999.607 906.971 999.607 c 256
 870.528 999.607 834.407 980.002 816 932 c 258
 534 217 l 257
 252 932 l 258
 233.593 980.002 197.472 999.607 161.029 999.607 c 256
 107.605 999.607 53.4917 957.473 53.4917 900.903 c 256
 53.4917 889.143 55.8304 876.759 61 864 c 258
 348 159 l 257
 392 48 439 -2 534 -2 c 256
EndSplineSet
EndChar

StartChar: w
Encoding: 119 119 472
Width: 1701
VWidth: 0
GlyphClass: 2
Flags: W
PickledData: "(dp1
S'b'
(dp2
sS'anchors'
p3
(tsS'lib'
p4
(dp5
sS'unicodes'
p6
(tsS'width'
p7
I1742
sS'contours'
p8
(tsS'components'
p9
(tsS'com.typemytype.robofont.layerData'
p10
(dp11
S'b'
(dp12
S'name'
p13
S'w'
sg4
(dp14
sg6
(tsg7
I1699
sg8
((dp15
S'points'
p16
((dp17
S'segmentType'
p18
S'curve'
p19
sS'x'
I477
sS'smooth'
p20
I1
sS'y'
I0
s(dp21
S'y'
I0
sS'x'
I524
sg20
I0
s(dp22
S'y'
I30
sS'x'
I564
sg20
I0
s(dp23
g18
S'curve'
p24
sS'x'
I588
sg20
I0
sS'y'
I96
s(dp25
g18
S'line'
p26
sS'x'
I859
sg20
I0
sS'y'
I839
s(dp27
g18
S'line'
p28
sS'x'
I859
sg20
I0
sS'y'
I991
s(dp29
S'y'
I991
sS'x'
I808
sg20
I0
s(dp30
S'y'
I959
sS'x'
I771
sg20
I0
s(dp31
g18
S'curve'
p32
sS'x'
I750
sg20
I1
sS'y'
I899
s(dp33
g18
S'line'
p34
sS'x'
I488
sg20
I0
sS'y'
I173
s(dp35
g18
S'line'
p36
sS'x'
I223
sg20
I1
sS'y'
I936
s(dp37
S'y'
I974
sS'x'
I210
sg20
I0
s(dp38
S'y'
I991
sS'x'
I183
sg20
I0
s(dp39
g18
S'curve'
p40
sS'x'
I152
sg20
I1
sS'y'
I991
s(dp41
S'y'
I991
sS'x'
I112
sg20
I0
s(dp42
S'y'
I962
sS'x'
I79
sg20
I0
s(dp43
g18
S'curve'
p44
sS'x'
I79
sg20
I1
sS'y'
I916
s(dp45
S'y'
I909
sS'x'
I79
sg20
I0
s(dp46
S'y'
I899
sS'x'
I81
sg20
I0
s(dp47
g18
S'curve'
p48
sS'x'
I84
sg20
I0
sS'y'
I888
s(dp49
g18
S'line'
p50
sS'x'
I372
sg20
I1
sS'y'
I88
s(dp51
S'y'
I26
sS'x'
I394
sg20
I0
s(dp52
S'y'
I0
sS'x'
I433
sg20
I0
stp53
s(dp54
g16
((dp55
g18
S'curve'
p56
sS'x'
I1241
sg20
I1
sS'y'
I0
s(dp57
S'y'
I0
sS'x'
I1285
sg20
I0
s(dp58
S'y'
I26
sS'x'
I1324
sg20
I0
s(dp59
g18
S'curve'
p60
sS'x'
I1346
sg20
I1
sS'y'
I88
s(dp61
g18
S'line'
p62
sS'x'
I1634
sg20
I0
sS'y'
I888
s(dp63
S'y'
I899
sS'x'
I1637
sg20
I0
s(dp64
S'y'
I909
sS'x'
I1639
sg20
I0
s(dp65
g18
S'curve'
p66
sS'x'
I1639
sg20
I1
sS'y'
I916
s(dp67
S'y'
I962
sS'x'
I1639
sg20
I0
s(dp68
S'y'
I991
sS'x'
I1606
sg20
I0
s(dp69
g18
S'curve'
p70
sS'x'
I1566
sg20
I1
sS'y'
I991
s(dp71
S'y'
I991
sS'x'
I1535
sg20
I0
s(dp72
S'y'
I974
sS'x'
I1508
sg20
I0
s(dp73
g18
S'curve'
p74
sS'x'
I1495
sg20
I1
sS'y'
I936
s(dp75
g18
S'line'
p76
sS'x'
I1230
sg20
I0
sS'y'
I173
s(dp77
g18
S'line'
p78
sS'x'
I968
sg20
I1
sS'y'
I899
s(dp79
S'y'
I959
sS'x'
I947
sg20
I0
s(dp80
S'y'
I991
sS'x'
I910
sg20
I0
s(dp81
g18
S'curve'
p82
sS'x'
I859
sg20
I0
sS'y'
I991
s(dp83
g18
S'line'
p84
sS'x'
I859
sg20
I0
sS'y'
I839
s(dp85
g18
S'line'
p86
sS'x'
I1130
sg20
I0
sS'y'
I96
s(dp87
S'y'
I30
sS'x'
I1154
sg20
I0
s(dp88
S'y'
I0
sS'x'
I1194
sg20
I0
stp89
stp90
sg9
(tsg3
(tsssg13
S'w'
s."
AnchorPoint: "top" 860 1011 basechar 0
LayerCount: 2
Fore
SplineSet
1241 0 m 256
 1301 0 1354 33 1383 122 c 258
 1628 870 l 258
 1632.06 882.385 1633.92 894.059 1633.92 904.933 c 256
 1633.92 962.275 1582.35 997.388 1531.29 997.388 c 256
 1491.96 997.388 1452.93 976.555 1438 929 c 258
 1222 227 l 257
 998 885 l 258
 972 963 921 999 857 999 c 256
 794 999 743 963 716 885 c 258
 493 227 l 257
 277 929 l 258
 262.065 976.555 223.035 997.388 183.645 997.388 c 256
 132.3 997.388 80.3423 961.99 80.3423 904.236 c 256
 80.3423 893.56 82.1176 882.121 86 870 c 258
 332 122 l 257
 360 33 414 0 474 0 c 256
 538 0 597 29 633 135 c 258
 857 790 l 257
 1082 135 l 258
 1118 29 1176 0 1241 0 c 256
EndSplineSet
EndChar

StartChar: x
Encoding: 120 120 477
Width: 1056
VWidth: 0
GlyphClass: 2
Flags: W
PickledData: "(dp1
S'com.typemytype.robofont.layerData'
p2
(dp3
S'b'
(dp4
S'name'
p5
S'x'
sS'lib'
p6
(dp7
sS'unicodes'
p8
(tsS'width'
p9
I1039
sS'contours'
p10
(tsS'components'
p11
(tsS'anchors'
p12
(tsss."
LayerCount: 2
Fore
SplineSet
866 0 m 256
 923 0 977 47 977 100 c 256
 977 120 970 140 956 158 c 258
 660.556 516.946 l 257
 935 853 l 258
 949 871 955 888 955 906 c 256
 955 956 910 999 858 999 c 256
 830 999 806 987 782 958 c 258
 540.698 662.566 l 257
 300 955 l 258
 275 986 245 999 216 999 c 256
 159 999 105 953 105 897 c 256
 105 877 112 858 126 839 c 257
 396.498 511.186 l 257
 98 147 l 258
 85 131 79 114 79 96 c 256
 79 46 127 0 180 0 c 256
 207 0 232 13 254 41 c 258
 515.618 366.825 l 257
 782 44 l 257
 806 13 836 0 866 0 c 256
EndSplineSet
EndChar

StartChar: y
Encoding: 121 121 478
Width: 1066
VWidth: 0
GlyphClass: 2
Flags: W
PickledData: "(dp1
S'com.typemytype.robofont.layerData'
p2
(dp3
S'b'
(dp4
S'name'
p5
S'y'
sS'lib'
p6
(dp7
sS'unicodes'
p8
(tsS'width'
p9
I1029
sS'contours'
p10
((dp11
S'points'
p12
((dp13
S'segmentType'
p14
S'line'
p15
sS'x'
I502
sS'smooth'
p16
I0
sS'y'
I10
s(dp17
g14
S'line'
p18
sS'x'
I585
sg16
I0
sS'y'
I181
s(dp19
g14
S'line'
p20
sS'x'
I241
sg16
I1
sS'y'
I931
s(dp21
S'y'
I966
sS'x'
I225
sg16
I0
s(dp22
S'y'
I984
sS'x'
I201
sg16
I0
s(dp23
g14
S'curve'
p24
sS'x'
I171
sg16
I1
sS'y'
I984
s(dp25
S'y'
I984
sS'x'
I117
sg16
I0
s(dp26
S'y'
I936
sS'x'
I64
sg16
I0
s(dp27
g14
S'curve'
p28
sS'x'
I91
sg16
I0
sS'y'
I887
stp29
s(dp30
g12
((dp31
g14
S'curve'
p32
sS'x'
I365
sg16
I1
sS'y'
S'-388'
p33
s(dp34
S'y'
S'-388'
p35
sS'x'
I396
sg16
I0
s(dp36
S'y'
S'-373'
p37
sS'x'
I424
sg16
I0
s(dp38
g14
S'curve'
p39
sS'x'
I442
sg16
I1
sS'y'
S'-334'
p40
s(dp41
g14
S'line'
p42
sS'x'
I1009
sg16
I1
sS'y'
I888
s(dp43
S'y'
I898
sS'x'
I1013
sg16
I0
s(dp44
S'y'
I908
sS'x'
I1016
sg16
I0
s(dp45
g14
S'curve'
p46
sS'x'
I1016
sg16
I1
sS'y'
I918
s(dp47
S'y'
I962
sS'x'
I1018
sg16
I0
s(dp48
S'y'
I990
sS'x'
I978
sg16
I0
s(dp49
g14
S'curve'
p50
sS'x'
I938
sg16
I1
sS'y'
I990
s(dp51
S'y'
I990
sS'x'
I910
sg16
I0
s(dp52
S'y'
I977
sS'x'
I883
sg16
I0
s(dp53
g14
S'curve'
p54
sS'x'
I866
sg16
I0
sS'y'
I941
s(dp55
g14
S'line'
p56
sS'x'
I299
sg16
I1
sS'y'
S'-286'
p57
s(dp58
S'y'
S'-344'
p59
sS'x'
I272
sg16
I0
s(dp60
S'y'
S'-388'
p61
sS'x'
I316
sg16
I0
stp62
stp63
sS'components'
p64
(tsS'anchors'
p65
(tsss."
AnchorPoint: "top" 573 1024 basechar 0
LayerCount: 2
Fore
SplineSet
431 -355 m 258
 1028 858 l 258
 1035.57 873.536 1038.94 888.702 1038.94 903.008 c 256
 1038.94 959.21 986.895 1002.15 932.771 1002.15 c 256
 896.918 1002.15 860.152 983.305 837 937 c 258
 551.611 356.099 l 257
 273 925 l 258
 250.332 970.679 213.274 989.345 176.896 989.345 c 256
 121.992 989.345 68.6373 946.827 68.6373 890.48 c 256
 68.6373 875.455 72.4308 859.447 81 843 c 258
 442.719 134.451 l 257
 245 -268 l 258
 237.597 -283.071 234.301 -297.88 234.301 -311.941 c 256
 234.301 -369.017 288.608 -413.78 342.986 -413.78 c 256
 376.547 -413.78 410.135 -396.729 431 -355 c 258
EndSplineSet
EndChar

StartChar: yen
Encoding: 165 165 482
Width: 1241
VWidth: 0
GlyphClass: 2
Flags: W
LayerCount: 2
Fore
SplineSet
209 295 m 258
 1093 295 l 258
 1135 295 1156 329 1156 362 c 256
 1156 393 1135 429 1093 429 c 258
 209 429 l 258
 166 429 147 394 147 363 c 256
 147 331 167 295 209 295 c 258
209 539 m 258
 1093 539 l 258
 1135 539 1156 572 1156 605 c 256
 1156 636 1135 672 1093 672 c 258
 209 672 l 258
 166 672 147 637 147 607 c 256
 147 574 167 539 209 539 c 258
EndSplineSet
Refer: 124 89 N 1 0 0 1 0 0 2
EndChar

StartChar: z
Encoding: 122 122 484
Width: 959
VWidth: 0
GlyphClass: 2
Flags: W
AnchorPoint: "top" 506 1001 basechar 0
LayerCount: 2
Fore
SplineSet
180 0 m 258
 796 0 l 258
 853 0 880 42 880 83 c 256
 880 125 853 166 796 166 c 258
 341 166 l 257
 857 837 l 258
 875 862 885 890 885 913 c 256
 885 961 849 999 776 999 c 258
 178 999 l 258
 122 999 94 957 94 916 c 256
 94 874 122 832 178 832 c 258
 620 832 l 257
 104 163 l 258
 85 140 77 115 77 91 c 256
 77 41 116 0 180 0 c 258
EndSplineSet
EndChar

StartChar: zero
Encoding: 48 48 488
Width: 1218
VWidth: 0
GlyphClass: 2
Flags: W
LayerCount: 2
Fore
SplineSet
609 176 m 256
 367 176 335 475 335 729 c 256
 335 987 367 1274 609 1274 c 256
 851 1274 883 986 883 729 c 256
 883 476 851 176 609 176 c 256
609 -22 m 256
 1014 -22 1132 347 1132 729 c 256
 1132 1115 1013 1472 609 1472 c 256
 204 1472 85 1115 85 729 c 256
 85 347 203 -22 609 -22 c 256
EndSplineSet
EndChar

StartChar: uni0358
Encoding: 856 856 491
Width: 600
VWidth: 0
GlyphClass: 2
Flags: W
LayerCount: 2
Fore
SplineSet
323 391 m 256
 405 391 458 452 458 519 c 256
 458 587 403 645 323 645 c 256
 241 645 188 586 188 519 c 256
 188 451 240 391 323 391 c 256
EndSplineSet
EndChar

